<svg fill="none" height="1500" viewBox="0 0 2750 1500" width="2750" xmlns="http://www.w3.org/2000/svg"><g fill="#021740" fill-opacity=".1"><path d="m100 480h2550v410h-2550z"/><path d="m100 980h2550v410h-2550z"/><path d="m1700 100h950v1290h-950z"/><path d="m650 100h950v1290h-950z"/></g><path d="m932.575 730.485.595-2.89 7.31-1.19 10.71-50.49-8.415-.51.34-2.465 14.45-4.335 1.105.85-2.04 9.52c2.663-3.23 5.525-5.752 8.585-7.565 3.06-1.87 5.808-2.805 8.245-2.805 2.097 0 3.91.793 5.44 2.38 1.53 1.53 2.295 4.222 2.295 8.075 0 2.89-.51 5.837-1.53 8.84s-2.408 5.893-4.165 8.67c-1.757 2.72-3.768 5.185-6.035 7.395s-4.647 3.967-7.14 5.27c-2.493 1.247-4.958 1.87-7.395 1.87-1.757 0-3.372-.425-4.845-1.275-.737 3.627-1.36 6.743-1.87 9.35s-.935 4.987-1.275 7.14l7.82 1.275-.68 2.89zm36.89-56.185c-1.757 0-3.825.765-6.205 2.295-2.323 1.53-4.817 3.712-7.48 6.545l-4.25 19.805c1.133.85 2.238 1.473 3.315 1.87 1.133.34 2.182.51 3.145.51 2.153 0 4.165-.595 6.035-1.785 1.927-1.19 3.627-2.748 5.1-4.675 1.7-2.267 3.032-4.817 3.995-7.65 1.02-2.89 1.53-5.808 1.53-8.755 0-5.44-1.728-8.16-5.185-8.16zm37.275-2.04c-1.31 0-2.75.51-4.34 1.53-1.53 1.02-3.031 2.437-4.504 4.25s-2.72 3.91-3.74 6.29c-.963 2.323-1.558 4.817-1.785 7.48 4.703-1.36 8.439-2.862 11.219-4.505 2.83-1.7 4.85-3.4 6.04-5.1 1.24-1.757 1.87-3.4 1.87-4.93 0-1.587-.46-2.805-1.36-3.655-.85-.907-1.99-1.36-3.4-1.36zm-7.484 38.845c-3.74 0-6.828-1.275-9.265-3.825-2.38-2.55-3.57-6.545-3.57-11.985 0-3.4.595-6.687 1.785-9.86 1.19-3.23 2.805-6.092 4.845-8.585 2.04-2.55 4.392-4.562 7.059-6.035 2.72-1.473 5.55-2.21 8.5-2.21 2.77 0 4.87.68 6.29 2.04 1.47 1.36 2.21 3.287 2.21 5.78 0 1.813-.71 3.825-2.13 6.035-1.42 2.153-3.94 4.335-7.56 6.545-3.57 2.21-8.589 4.25-15.049 6.12.17 3.627 1.02 6.233 2.55 7.82 1.53 1.53 3.598 2.295 6.209 2.295 2.66 0 4.95-.68 6.88-2.04s3.46-2.748 4.59-4.165l1.96 1.53c-1.76 2.89-3.97 5.383-6.63 7.48-2.67 2.04-5.56 3.06-8.674 3.06zm23.654-1.105 7.22-34.085-8.41-.51.34-2.465 14.02-4.335 1.11.85-1.87 11.39c1.24-2.153 2.55-4.137 3.91-5.95 1.41-1.87 2.89-3.372 4.42-4.505 1.53-1.19 3.03-1.785 4.5-1.785 1.19 0 2.3.198 3.32.595 1.02.34 1.81.992 2.38 1.955-.06 1.417-.49 2.578-1.28 3.485-.74.85-1.81 1.275-3.23 1.275-.74 0-1.56-.198-2.46-.595-.85-.453-1.7-.992-2.55-1.615-2.04 1.7-3.91 3.712-5.61 6.035s-3.32 4.987-4.85 7.99l-1.02 4.42c-.62 2.947-1.22 5.922-1.78 8.925-.51 2.947-1.05 5.922-1.62 8.925l-5.69.68zm82.99 1.105c-1.36 0-2.44-.34-3.23-1.02-.74-.68-1.11-1.558-1.11-2.635 0-.963.12-1.898.34-2.805.29-.963.63-2.323 1.02-4.08l3.66-14.96c.34-1.473.65-2.862.93-4.165.29-1.303.43-2.38.43-3.23 0-1.473-.26-2.493-.77-3.06s-1.24-.85-2.21-.85c-2.77 0-7.16 2.493-13.17 7.48l-2.21 10.37c-.68 2.947-1.3 5.922-1.87 8.925-.57 2.947-1.13 5.922-1.7 8.925l-5.53.68-.85-.68 5.87-27.71c.11-.737.25-1.473.42-2.21s.26-1.445.26-2.125c0-1.36-.26-2.295-.77-2.805-.51-.567-1.24-.85-2.21-.85-1.53 0-3.48.623-5.86 1.87-2.32 1.247-5.04 3.145-8.16 5.695l-2.3 10.285c-.62 2.947-1.21 5.922-1.78 8.925-.51 2.947-1.05 5.922-1.62 8.925l-5.69.68-.85-.68 7.22-34.085-8.41-.51.34-2.465 14.45-4.335 1.1.85-1.78 8.755c2.78-2.663 5.78-4.93 9.01-6.8s6.15-2.805 8.75-2.805c3.57 0 5.36 1.955 5.36 5.865 0 .567-.06 1.162-.17 1.785-.06.567-.14 1.162-.26 1.785 2.67-2.607 5.5-4.817 8.5-6.63 3.06-1.87 5.87-2.805 8.42-2.805 3.57 0 5.35 1.955 5.35 5.865 0 1.36-.17 2.748-.51 4.165-.28 1.36-.59 2.748-.93 4.165l-3.83 15.725c-.28 1.19-.53 2.21-.76 3.06-.23.793-.34 1.417-.34 1.87 0 .567.17 1.02.51 1.36.34.283.74.425 1.19.425 2.15 0 4.93-2.04 8.33-6.12l2.04 1.615c-1.19 1.7-2.55 3.343-4.08 4.93-1.47 1.587-3.09 2.89-4.85 3.91-1.75 1.02-3.65 1.53-5.69 1.53zm21.79-4.335c0-.623.06-1.36.17-2.21.11-.907.37-2.238.76-3.995l5.1-24.65-8.41-.51.34-2.465 14.45-4.335 1.1.85-6.03 29.07c-.23 1.077-.43 2.04-.6 2.89-.11.85-.17 1.502-.17 1.955 0 .567.2 1.02.6 1.36s.82.51 1.27.51c2.04 0 4.76-2.04 8.16-6.12l2.13 1.615c-1.25 1.7-2.61 3.343-4.08 4.93-1.42 1.587-2.98 2.89-4.68 3.91-1.64 1.02-3.48 1.53-5.52 1.53-1.13 0-2.18-.368-3.15-1.105-.96-.737-1.44-1.813-1.44-3.23zm12.49-49.725c-1.36 0-2.46-.425-3.31-1.275-.85-.907-1.28-2.153-1.28-3.74 0-1.417.51-2.635 1.53-3.655 1.02-1.077 2.19-1.615 3.49-1.615 1.36 0 2.46.453 3.31 1.36.85.85 1.28 2.04 1.28 3.57 0 1.36-.51 2.607-1.53 3.74-1.02 1.077-2.18 1.615-3.49 1.615zm33.72 41.99c0 3.513-1.33 6.403-3.99 8.67-2.61 2.267-6.07 3.4-10.37 3.4-3.29 0-5.81-.765-7.57-2.295-1.7-1.53-2.69-3.57-2.97-6.12.22-.737.62-1.303 1.19-1.7.62-.453 1.27-.68 1.95-.68 1.25 0 2.16.34 2.72 1.02.63.623 1.08 1.53 1.36 2.72l.94 3.655c.17.057.34.085.51.085h.68c2.94 0 5.24-.652 6.88-1.955 1.65-1.303 2.47-3.06 2.47-5.27 0-1.36-.31-2.663-.94-3.91-.62-1.247-2.15-2.748-4.59-4.505-2.09-1.643-3.88-3.315-5.35-5.015-1.42-1.757-2.13-3.967-2.13-6.63 0-2.21.57-4.222 1.7-6.035 1.14-1.813 2.69-3.23 4.68-4.25 2.04-1.077 4.42-1.615 7.14-1.615 2.49 0 4.64.567 6.46 1.7 1.81 1.077 3.03 3.003 3.65 5.78-.51 1.587-1.58 2.38-3.23 2.38-1.98 0-3.43-1.332-4.33-3.995l-.77-2.465c-.17-.057-.37-.085-.59-.085-.17 0-.37 0-.6 0-2.94 0-5.04.68-6.29 2.04-1.19 1.36-1.78 3.003-1.78 4.93 0 1.757.42 3.23 1.27 4.42.91 1.133 2.58 2.607 5.02 4.42 2.55 1.927 4.33 3.683 5.35 5.27 1.02 1.53 1.53 3.542 1.53 6.035zm30.63 0c0 3.513-1.33 6.403-3.99 8.67-2.61 2.267-6.07 3.4-10.37 3.4-3.29 0-5.81-.765-7.57-2.295-1.7-1.53-2.69-3.57-2.97-6.12.22-.737.62-1.303 1.19-1.7.62-.453 1.27-.68 1.95-.68 1.25 0 2.16.34 2.72 1.02.63.623 1.08 1.53 1.36 2.72l.94 3.655c.17.057.34.085.51.085h.68c2.94 0 5.24-.652 6.88-1.955 1.65-1.303 2.47-3.06 2.47-5.27 0-1.36-.31-2.663-.94-3.91-.62-1.247-2.15-2.748-4.59-4.505-2.09-1.643-3.88-3.315-5.35-5.015-1.42-1.757-2.13-3.967-2.13-6.63 0-2.21.57-4.222 1.7-6.035 1.14-1.813 2.69-3.23 4.68-4.25 2.04-1.077 4.42-1.615 7.14-1.615 2.49 0 4.64.567 6.46 1.7 1.81 1.077 3.03 3.003 3.65 5.78-.51 1.587-1.58 2.38-3.23 2.38-1.98 0-3.43-1.332-4.33-3.995l-.77-2.465c-.17-.057-.37-.085-.59-.085-.17 0-.37 0-.6 0-2.94 0-5.04.68-6.29 2.04-1.19 1.36-1.78 3.003-1.78 4.93 0 1.757.42 3.23 1.27 4.42.91 1.133 2.58 2.607 5.02 4.42 2.55 1.927 4.33 3.683 5.35 5.27 1.02 1.53 1.53 3.542 1.53 6.035zm10.32 7.735c0-.623.05-1.36.17-2.21.11-.907.37-2.238.76-3.995l5.1-24.65-8.41-.51.34-2.465 14.45-4.335 1.1.85-6.03 29.07c-.23 1.077-.43 2.04-.6 2.89-.11.85-.17 1.502-.17 1.955 0 .567.2 1.02.6 1.36.39.34.82.51 1.27.51 2.04 0 4.76-2.04 8.16-6.12l2.13 1.615c-1.25 1.7-2.61 3.343-4.08 4.93-1.42 1.587-2.98 2.89-4.68 3.91-1.64 1.02-3.48 1.53-5.52 1.53-1.14 0-2.18-.368-3.15-1.105-.96-.737-1.44-1.813-1.44-3.23zm12.49-49.725c-1.36 0-2.46-.425-3.31-1.275-.85-.907-1.28-2.153-1.28-3.74 0-1.417.51-2.635 1.53-3.655 1.02-1.077 2.18-1.615 3.49-1.615 1.36 0 2.46.453 3.31 1.36.85.85 1.28 2.04 1.28 3.57 0 1.36-.51 2.607-1.53 3.74-1.02 1.077-2.18 1.615-3.49 1.615zm24.54 54.06c-2.61 0-4.99-.567-7.14-1.7s-3.88-2.805-5.18-5.015c-1.25-2.267-1.87-5.015-1.87-8.245 0-3.853.56-7.423 1.7-10.71 1.19-3.343 2.8-6.262 4.84-8.755 2.04-2.55 4.39-4.533 7.06-5.95 2.72-1.417 5.58-2.125 8.58-2.125 4.02 0 7.31 1.275 9.86 3.825 2.61 2.55 3.91 6.233 3.91 11.05 0 3.683-.57 7.197-1.7 10.54-1.13 3.287-2.72 6.233-4.76 8.84-1.98 2.55-4.28 4.562-6.88 6.035-2.61 1.473-5.42 2.21-8.42 2.21zm.94-3.4c2.09 0 3.99-.652 5.69-1.955s3.15-3.06 4.34-5.27c1.24-2.21 2.21-4.675 2.89-7.395s1.02-5.497 1.02-8.33c0-4.59-.74-7.848-2.21-9.775-1.42-1.983-3.29-2.975-5.61-2.975-2.67 0-5.1 1.048-7.31 3.145-2.16 2.097-3.86 4.902-5.1 8.415-1.25 3.457-1.87 7.31-1.87 11.56 0 4.477.76 7.707 2.29 9.69 1.53 1.927 3.49 2.89 5.87 2.89zm34.78 2.295-5.69.68-.85-.68 7.22-34.085-8.41-.51.34-2.465 14.45-4.335 1.1.85-1.78 8.755c2.83-2.663 5.84-4.93 9.01-6.8 3.23-1.87 6.15-2.805 8.75-2.805 3.63 0 5.44 1.955 5.44 5.865 0 1.36-.14 2.748-.42 4.165-.28 1.36-.6 2.748-.94 4.165l-3.82 15.725c-.28 1.19-.54 2.21-.77 3.06-.22.793-.34 1.417-.34 1.87 0 1.19.54 1.785 1.62 1.785s2.35-.538 3.82-1.615c1.53-1.077 3.06-2.578 4.59-4.505l2.04 1.615c-1.07 1.643-2.4 3.287-3.99 4.93-1.53 1.587-3.2 2.89-5.02 3.91-1.81 1.02-3.71 1.53-5.69 1.53-1.3 0-2.35-.34-3.15-1.02-.73-.68-1.1-1.558-1.1-2.635 0-.963.11-1.898.34-2.805.28-.963.62-2.323 1.02-4.08l3.65-14.96c.34-1.473.66-2.862.94-4.165s.42-2.38.42-3.23c0-1.473-.25-2.493-.76-3.06s-1.25-.85-2.21-.85c-1.53 0-3.49.623-5.87 1.87s-5.12 3.145-8.24 5.695l-2.3 10.285c-.62 2.947-1.21 5.922-1.78 8.925-.51 2.947-1.05 5.922-1.62 8.925z" fill="#bd0611"/><path d="m969.291 1206.77c0-.62.056-1.36.17-2.21.113-.91.368-2.24.765-4l5.1-24.65-8.415-.51.34-2.46 14.45-4.34 1.105.85-6.035 29.07c-.227 1.08-.425 2.04-.595 2.89-.114.85-.17 1.51-.17 1.96 0 .57.198 1.02.595 1.36.396.34.821.51 1.275.51 2.04 0 4.76-2.04 8.16-6.12l2.125 1.61c-1.247 1.7-2.607 3.35-4.08 4.93-1.417 1.59-2.975 2.89-4.675 3.91-1.644 1.03-3.485 1.54-5.525 1.54-1.134 0-2.182-.37-3.145-1.11-.964-.74-1.445-1.81-1.445-3.23zm12.495-49.73c-1.36 0-2.465-.42-3.315-1.27-.85-.91-1.275-2.15-1.275-3.74 0-1.42.51-2.64 1.53-3.66 1.02-1.07 2.181-1.61 3.485-1.61 1.36 0 2.465.45 3.315 1.36.85.85 1.275 2.04 1.275 3.57 0 1.36-.51 2.61-1.53 3.74-1.02 1.08-2.182 1.61-3.485 1.61zm18.754 52.96-5.691.68-.85-.68 7.221-34.09-8.411-.51.34-2.46 14.451-4.34 1.1.85-1.78 8.76c2.83-2.66 5.84-4.93 9.01-6.8 3.23-1.87 6.15-2.81 8.75-2.81 3.63 0 5.44 1.96 5.44 5.87 0 1.36-.14 2.75-.42 4.16-.28 1.36-.6 2.75-.94 4.17l-3.82 15.72c-.28 1.19-.54 2.21-.77 3.06-.22.8-.34 1.42-.34 1.87 0 1.19.54 1.79 1.62 1.79s2.35-.54 3.82-1.62c1.53-1.07 3.06-2.57 4.59-4.5l2.04 1.61c-1.07 1.65-2.4 3.29-3.99 4.93-1.53 1.59-3.2 2.89-5.02 3.91-1.81 1.03-3.71 1.54-5.69 1.54-1.3 0-2.35-.34-3.15-1.02-.73-.69-1.1-1.56-1.1-2.64 0-.96.11-1.9.34-2.81.28-.96.62-2.32 1.02-4.08l3.65-14.96c.34-1.47.66-2.86.94-4.16s.42-2.38.42-3.23c0-1.47-.25-2.49-.76-3.06s-1.25-.85-2.21-.85c-1.53 0-3.49.62-5.87 1.87s-5.12 3.14-8.24 5.69l-2.3 10.29c-.62 2.95-1.21 5.92-1.78 8.92-.51 2.95-1.05 5.93-1.62 8.93zm42.98-9.44 5.69-26.69h-8.67l.6-3.4 9.18-.85 3.99-11.39h4.34l-2.47 11.48h10.8l-.68 4.59-10.97-.34-5.18 24.39c-.51 2.27-.77 3.91-.77 4.93 0 .63.2 1.11.6 1.45.45.34.93.51 1.44.51 2.16 0 4.93-2.04 8.33-6.12l2.13 1.61c-1.19 1.7-2.55 3.35-4.08 4.93-1.53 1.59-3.17 2.89-4.93 3.91-1.76 1.03-3.6 1.54-5.53 1.54-1.24 0-2.35-.37-3.31-1.11-.91-.74-1.36-1.81-1.36-3.23 0-.62.06-1.36.17-2.21.11-.91.34-2.24.68-4zm44.38-28.3c-1.31 0-2.75.51-4.34 1.53-1.53 1.02-3.03 2.44-4.5 4.25-1.48 1.81-2.72 3.91-3.74 6.29-.97 2.32-1.56 4.82-1.79 7.48 4.71-1.36 8.45-2.86 11.22-4.51 2.84-1.7 4.85-3.4 6.04-5.1 1.24-1.75 1.87-3.4 1.87-4.93 0-1.58-.46-2.8-1.36-3.65-.85-.91-1.99-1.36-3.4-1.36zm-7.48 38.85c-3.74 0-6.83-1.28-9.27-3.83-2.38-2.55-3.57-6.55-3.57-11.99 0-3.4.6-6.68 1.79-9.86 1.19-3.23 2.8-6.09 4.84-8.58 2.04-2.55 4.39-4.56 7.06-6.04 2.72-1.47 5.55-2.21 8.5-2.21 2.77 0 4.87.68 6.29 2.04 1.47 1.36 2.21 3.29 2.21 5.78 0 1.82-.71 3.83-2.13 6.04-1.41 2.15-3.94 4.33-7.56 6.54-3.57 2.21-8.59 4.25-15.05 6.12.17 3.63 1.02 6.24 2.55 7.82 1.53 1.53 3.6 2.3 6.21 2.3 2.66 0 4.96-.68 6.88-2.04 1.93-1.36 3.46-2.75 4.59-4.17l1.96 1.53c-1.76 2.89-3.97 5.39-6.63 7.48-2.67 2.04-5.56 3.07-8.67 3.07zm30.19-1.11-5.69.68-.85-.68 7.22-34.09-8.41-.51.34-2.46 14.45-4.34 1.1.85-1.78 8.76c2.83-2.66 5.83-4.93 9.01-6.8 3.23-1.87 6.15-2.81 8.75-2.81 3.63 0 5.44 1.96 5.44 5.87 0 1.36-.14 2.75-.42 4.16-.29 1.36-.6 2.75-.94 4.17l-3.82 15.72c-.29 1.19-.54 2.21-.77 3.06-.22.8-.34 1.42-.34 1.87 0 1.19.54 1.79 1.62 1.79 1.07 0 2.35-.54 3.82-1.62 1.53-1.07 3.06-2.57 4.59-4.5l2.04 1.61c-1.07 1.65-2.41 3.29-3.99 4.93-1.53 1.59-3.2 2.89-5.02 3.91-1.81 1.03-3.71 1.54-5.69 1.54-1.31 0-2.35-.34-3.15-1.02-.73-.69-1.1-1.56-1.1-2.64 0-.96.11-1.9.34-2.81.28-.96.62-2.32 1.02-4.08l3.65-14.96c.34-1.47.65-2.86.94-4.16.28-1.3.42-2.38.42-3.23 0-1.47-.25-2.49-.76-3.06s-1.25-.85-2.21-.85c-1.53 0-3.49.62-5.87 1.87s-5.13 3.14-8.24 5.69l-2.3 10.29c-.62 2.95-1.22 5.92-1.78 8.92-.51 2.95-1.05 5.93-1.62 8.93zm42.98-9.44 5.69-26.69h-8.67l.6-3.4 9.18-.85 3.99-11.39h4.34l-2.47 11.48h10.8l-.68 4.59-10.97-.34-5.18 24.39c-.51 2.27-.77 3.91-.77 4.93 0 .63.2 1.11.6 1.45.45.34.93.51 1.44.51 2.16 0 4.93-2.04 8.33-6.12l2.13 1.61c-1.19 1.7-2.55 3.35-4.08 4.93-1.53 1.59-3.18 2.89-4.93 3.91-1.76 1.03-3.6 1.54-5.53 1.54-1.24 0-2.35-.37-3.31-1.11-.91-.74-1.36-1.81-1.36-3.23 0-.62.05-1.36.17-2.21.11-.91.34-2.24.68-4zm27.12 6.21c0-.62.06-1.36.17-2.21.11-.91.37-2.24.77-4l5.1-24.65-8.42-.51.34-2.46 14.45-4.34 1.11.85-6.04 29.07c-.23 1.08-.42 2.04-.59 2.89-.12.85-.17 1.51-.17 1.96 0 .57.19 1.02.59 1.36s.82.51 1.28.51c2.04 0 4.76-2.04 8.16-6.12l2.12 1.61c-1.25 1.7-2.61 3.35-4.08 4.93-1.42 1.59-2.97 2.89-4.67 3.91-1.65 1.03-3.49 1.54-5.53 1.54-1.13 0-2.18-.37-3.14-1.11-.97-.74-1.45-1.81-1.45-3.23zm12.5-49.73c-1.36 0-2.47-.42-3.32-1.27-.85-.91-1.27-2.15-1.27-3.74 0-1.42.51-2.64 1.53-3.66 1.02-1.07 2.18-1.61 3.48-1.61 1.36 0 2.47.45 3.32 1.36.85.85 1.27 2.04 1.27 3.57 0 1.36-.51 2.61-1.53 3.74-1.02 1.08-2.18 1.61-3.48 1.61zm24.53 54.07c-2.6 0-4.98-.57-7.14-1.71-2.15-1.13-3.88-2.8-5.18-5.01-1.25-2.27-1.87-5.02-1.87-8.25 0-3.85.57-7.42 1.7-10.71 1.19-3.34 2.8-6.26 4.84-8.75 2.04-2.55 4.4-4.53 7.06-5.95 2.72-1.42 5.58-2.13 8.58-2.13 4.03 0 7.31 1.28 9.86 3.83 2.61 2.55 3.91 6.23 3.91 11.05 0 3.68-.56 7.2-1.7 10.54-1.13 3.29-2.72 6.23-4.76 8.84-1.98 2.55-4.27 4.56-6.88 6.03-2.61 1.48-5.41 2.22-8.42 2.22zm.94-3.41c2.1 0 3.99-.65 5.69-1.95s3.15-3.06 4.34-5.27c1.25-2.21 2.21-4.68 2.89-7.4s1.02-5.49 1.02-8.33c0-4.59-.74-7.84-2.21-9.77-1.42-1.98-3.29-2.98-5.61-2.98-2.66 0-5.1 1.05-7.31 3.15-2.15 2.1-3.85 4.9-5.1 8.41-1.25 3.46-1.87 7.31-1.87 11.56 0 4.48.76 7.71 2.29 9.69 1.53 1.93 3.49 2.89 5.87 2.89zm34.79 2.3-5.7.68-.85-.68 7.23-34.09-8.42-.51.34-2.46 14.45-4.34 1.11.85-1.79 8.76c2.84-2.66 5.84-4.93 9.01-6.8 3.23-1.87 6.15-2.81 8.76-2.81 3.63 0 5.44 1.96 5.44 5.87 0 1.36-.14 2.75-.43 4.16-.28 1.36-.59 2.75-.93 4.17l-3.83 15.72c-.28 1.19-.53 2.21-.76 3.06-.23.8-.34 1.42-.34 1.87 0 1.19.54 1.79 1.61 1.79 1.08 0 2.36-.54 3.83-1.62 1.53-1.07 3.06-2.57 4.59-4.5l2.04 1.61c-1.08 1.65-2.41 3.29-4 4.93-1.53 1.59-3.2 2.89-5.01 3.91-1.81 1.03-3.71 1.54-5.7 1.54-1.3 0-2.35-.34-3.14-1.02-.74-.69-1.11-1.56-1.11-2.64 0-.96.12-1.9.34-2.81.29-.96.63-2.32 1.02-4.08l3.66-14.96c.34-1.47.65-2.86.93-4.16.29-1.3.43-2.38.43-3.23 0-1.47-.26-2.49-.77-3.06s-1.24-.85-2.21-.85c-1.53 0-3.48.62-5.86 1.87s-5.13 3.14-8.25 5.69l-2.29 10.29c-.62 2.95-1.22 5.92-1.79 8.92-.51 2.95-1.04 5.93-1.61 8.93z" fill="#bd0611"/><path d="m2014.33 646.25c2.49 0 4.62.652 6.37 1.955 1.82 1.247 2.89 2.663 3.23 4.25-.56 1.927-1.67 2.89-3.31 2.89-1.25 0-2.35-.368-3.32-1.105-.9-.737-2.04-1.927-3.4-3.57l-1.36-1.615c-1.41.623-2.77 1.672-4.08 3.145-1.3 1.417-2.49 3.457-3.57 6.12-1.02 2.607-1.89 6.092-2.63 10.455-.06.17-.09.34-.09.51 0 .113-.02.255-.08.425h10.96l-.68 4.505-10.96-.34c-.91 5.383-1.81 10.908-2.72 16.575s-1.9 11.192-2.98 16.575c-.9 4.533-2.01 8.472-3.31 11.815-1.25 3.343-3.06 6.092-5.44 8.245-1.76 1.587-3.34 2.663-4.76 3.23-1.47.623-2.89.935-4.25.935-1.93 0-3.63-.482-5.1-1.445s-2.41-2.238-2.81-3.825c.17-.907.66-1.643 1.45-2.21.74-.567 1.56-.85 2.46-.85 1.25 0 2.38.34 3.4 1.02.97.68 1.9 1.502 2.81 2.465l1.02 1.02c.57-.453 1.13-.992 1.7-1.615.62-.567 1.22-1.247 1.78-2.04 1.08-1.587 2.02-3.683 2.81-6.29.79-2.55 1.59-6.035 2.38-10.455 1.02-5.723 1.95-11.277 2.8-16.66.91-5.383 1.82-10.937 2.72-16.66h-8.84l.68-3.23 8.84-.765.09-.765c.74-4.703 1.81-8.528 3.23-11.475 1.47-3.003 3.09-5.298 4.84-6.885 1.82-1.643 3.6-2.777 5.36-3.4 1.81-.623 3.4-.935 4.76-.935zm12.32 64.855c-2.61 0-4.99-.567-7.14-1.7s-3.88-2.805-5.19-5.015c-1.24-2.267-1.87-5.015-1.87-8.245 0-3.853.57-7.423 1.7-10.71 1.19-3.343 2.81-6.262 4.85-8.755 2.04-2.55 4.39-4.533 7.05-5.95 2.72-1.417 5.59-2.125 8.59-2.125 4.02 0 7.31 1.275 9.86 3.825 2.61 2.55 3.91 6.233 3.91 11.05 0 3.683-.57 7.197-1.7 10.54-1.13 3.287-2.72 6.233-4.76 8.84-1.98 2.55-4.28 4.562-6.89 6.035-2.6 1.473-5.41 2.21-8.41 2.21zm.93-3.4c2.1 0 4-.652 5.7-1.955s3.14-3.06 4.33-5.27c1.25-2.21 2.21-4.675 2.89-7.395s1.02-5.497 1.02-8.33c0-4.59-.73-7.848-2.21-9.775-1.41-1.983-3.28-2.975-5.61-2.975-2.66 0-5.1 1.048-7.31 3.145-2.15 2.097-3.85 4.902-5.1 8.415-1.24 3.457-1.87 7.31-1.87 11.56 0 4.477.77 7.707 2.3 9.69 1.53 1.927 3.48 2.89 5.86 2.89zm28.25 2.295 7.22-34.085-8.41-.51.34-2.465 14.02-4.335 1.11.85-1.87 11.39c1.24-2.153 2.55-4.137 3.91-5.95 1.41-1.87 2.89-3.372 4.42-4.505 1.53-1.19 3.03-1.785 4.5-1.785 1.19 0 2.3.198 3.32.595 1.02.34 1.81.992 2.38 1.955-.06 1.417-.48 2.578-1.28 3.485-.73.85-1.81 1.275-3.23 1.275-.73 0-1.56-.198-2.46-.595-.85-.453-1.7-.992-2.55-1.615-2.04 1.7-3.91 3.712-5.61 6.035s-3.32 4.987-4.85 7.99l-1.02 4.42c-.62 2.947-1.22 5.922-1.78 8.925-.51 2.947-1.05 5.922-1.62 8.925l-5.69.68zm46.23-15.895c2.66-.057 4.76-1.303 6.29-3.74 1.58-2.437 2.38-5.893 2.38-10.37 0-2.72-.66-4.845-1.96-6.375-1.25-1.587-2.78-2.352-4.59-2.295-2.95.057-5.16 1.36-6.63 3.91-1.47 2.493-2.21 5.723-2.21 9.69 0 6.233 2.24 9.293 6.72 9.18zm-13.26-8.755c0-3.117.7-5.922 2.12-8.415 1.47-2.55 3.43-4.562 5.87-6.035 2.43-1.53 5.12-2.295 8.07-2.295 2.72 0 5.02.708 6.89 2.125 1.87 1.36 3.08 3.315 3.65 5.865.79-3.343 1.9-5.667 3.32-6.97 1.47-1.303 3-1.955 4.59-1.955 1.13 0 1.98.17 2.55.51.51.623.76 1.218.76 1.785 0 1.7-.74 2.918-2.21 3.655-1.42.737-3.48 1.502-6.2 2.295-.29.737-.54 1.53-.77 2.38-.23.793-.45 1.672-.68 2.635-1.25 5.497-3.29 9.52-6.12 12.07-2.78 2.55-5.86 3.825-9.26 3.825-2.55 0-4.74-.425-6.55-1.275-.91 1.077-1.5 1.955-1.78 2.635-.23.68-.34 1.332-.34 1.955 0 .737.31 1.502.93 2.295s1.79 1.303 3.49 1.53l8.41 1.02c4.53.567 7.74 1.643 9.61 3.23 1.92 1.587 2.89 3.598 2.89 6.035 0 2.947-1.08 5.638-3.23 8.075-2.1 2.493-5.02 4.477-8.76 5.95-3.68 1.473-7.88 2.21-12.58 2.21-3.97 0-7.28-.737-9.94-2.21-2.61-1.473-3.91-3.74-3.91-6.8 0-2.55 1.04-4.987 3.14-7.31 2.1-2.267 4.62-4.108 7.57-5.525-1.48-.737-2.47-1.615-2.98-2.635-.51-1.077-.76-2.068-.76-2.975 0-1.587.56-3.06 1.7-4.42 1.13-1.417 2.69-2.833 4.67-4.25-2.78-1.983-4.16-4.987-4.16-9.01zm-2.55 33.32c0 2.437.96 4.335 2.89 5.695 1.92 1.417 4.61 2.125 8.07 2.125 4.53 0 8.16-.822 10.88-2.465s4.08-3.825 4.08-6.545c0-1.077-.31-2.068-.93-2.975-.57-.907-1.62-1.7-3.15-2.38s-3.77-1.19-6.71-1.53l-6.8-.765c-.23-.057-.49-.085-.77-.085-.23-.057-.45-.113-.68-.17-2.27 1.473-3.99 2.89-5.18 4.25-1.14 1.417-1.7 3.032-1.7 4.845zm44.48-11.9c0-.623.06-1.36.17-2.21.11-.907.37-2.238.76-3.995l5.1-24.65-8.41-.51.34-2.465 14.45-4.335 1.1.85-6.03 29.07c-.23 1.077-.43 2.04-.6 2.89-.11.85-.17 1.502-.17 1.955 0 .567.2 1.02.6 1.36s.82.51 1.27.51c2.04 0 4.76-2.04 8.16-6.12l2.13 1.615c-1.25 1.7-2.61 3.343-4.08 4.93-1.42 1.587-2.98 2.89-4.68 3.91-1.64 1.02-3.48 1.53-5.52 1.53-1.13 0-2.18-.368-3.15-1.105-.96-.737-1.44-1.813-1.44-3.23zm12.49-49.725c-1.36 0-2.46-.425-3.31-1.275-.85-.907-1.28-2.153-1.28-3.74 0-1.417.51-2.635 1.53-3.655 1.02-1.077 2.19-1.615 3.49-1.615 1.36 0 2.46.453 3.31 1.36.85.85 1.28 2.04 1.28 3.57 0 1.36-.51 2.607-1.53 3.74-1.02 1.077-2.18 1.615-3.49 1.615zm20.06 53.125c-.17-6.687-.43-12.523-.77-17.51s-.82-9.718-1.44-14.195c-.17-1.7-.46-2.777-.85-3.23-.4-.51-.91-.765-1.53-.765-.74 0-1.53.397-2.38 1.19-.8.737-1.93 2.21-3.4 4.42l-1.96-1.36c3.01-6.743 6.58-10.115 10.71-10.115 1.76 0 3.03.538 3.83 1.615.85 1.077 1.47 2.777 1.87 5.1.62 3.797 1.05 8.16 1.27 13.09.23 4.93.37 9.86.43 14.79 3-3.513 5.64-6.97 7.9-10.37 2.27-3.457 4.45-7.14 6.55-11.05.05-.113.08-.198.08-.255.06-.113.12-.198.17-.255l-.59-3.315c-.06-.567-.14-1.162-.26-1.785-.05-.623-.08-1.133-.08-1.53 0-2.153.39-3.683 1.19-4.59.85-.963 1.98-1.445 3.4-1.445.79 0 1.47.113 2.04.34.56.227.96.482 1.19.765.28.397.42 1.19.42 2.38 0 .567-.08 1.275-.25 2.125-.12.85-.48 2.012-1.11 3.485-.56 1.417-1.53 3.4-2.89 5.95-1.3 2.493-3.03 5.27-5.18 8.33-2.1 3.003-4.45 6.092-7.06 9.265-2.6 3.117-5.35 6.148-8.24 9.095l-2.47.255zm50.36-37.91c-1.3 0-2.75.51-4.33 1.53-1.53 1.02-3.03 2.437-4.51 4.25-1.47 1.813-2.72 3.91-3.74 6.29-.96 2.323-1.56 4.817-1.78 7.48 4.7-1.36 8.44-2.862 11.22-4.505 2.83-1.7 4.84-3.4 6.03-5.1 1.25-1.757 1.87-3.4 1.87-4.93 0-1.587-.45-2.805-1.36-3.655-.85-.907-1.98-1.36-3.4-1.36zm-7.48 38.845c-3.74 0-6.83-1.275-9.26-3.825-2.38-2.55-3.57-6.545-3.57-11.985 0-3.4.59-6.687 1.78-9.86 1.19-3.23 2.81-6.092 4.85-8.585 2.04-2.55 4.39-4.562 7.05-6.035 2.72-1.473 5.56-2.21 8.5-2.21 2.78 0 4.88.68 6.29 2.04 1.48 1.36 2.21 3.287 2.21 5.78 0 1.813-.71 3.825-2.12 6.035-1.42 2.153-3.94 4.335-7.57 6.545-3.57 2.21-8.58 4.25-15.04 6.12.17 3.627 1.02 6.233 2.55 7.82 1.53 1.53 3.6 2.295 6.2 2.295 2.67 0 4.96-.68 6.89-2.04 1.92-1.36 3.45-2.748 4.59-4.165l1.95 1.53c-1.75 2.89-3.96 5.383-6.63 7.48-2.66 2.04-5.55 3.06-8.67 3.06zm30.2-1.105-5.7.68-.85-.68 7.23-34.085-8.42-.51.34-2.465 14.45-4.335 1.11.85-1.79 8.755c2.84-2.663 5.84-4.93 9.01-6.8 3.23-1.87 6.15-2.805 8.76-2.805 3.62 0 5.44 1.955 5.44 5.865 0 1.36-.14 2.748-.43 4.165-.28 1.36-.59 2.748-.93 4.165l-3.83 15.725c-.28 1.19-.54 2.21-.76 3.06-.23.793-.34 1.417-.34 1.87 0 1.19.54 1.785 1.61 1.785 1.08 0 2.35-.538 3.83-1.615 1.53-1.077 3.06-2.578 4.59-4.505l2.04 1.615c-1.08 1.643-2.41 3.287-4 4.93-1.53 1.587-3.2 2.89-5.01 3.91-1.82 1.02-3.71 1.53-5.7 1.53-1.3 0-2.35-.34-3.14-1.02-.74-.68-1.11-1.558-1.11-2.635 0-.963.12-1.898.34-2.805.29-.963.63-2.323 1.02-4.08l3.66-14.96c.34-1.473.65-2.862.93-4.165.29-1.303.43-2.38.43-3.23 0-1.473-.26-2.493-.77-3.06s-1.24-.85-2.21-.85c-1.53 0-3.48.623-5.86 1.87s-5.13 3.145-8.25 5.695l-2.29 10.285c-.63 2.947-1.22 5.922-1.79 8.925-.51 2.947-1.05 5.922-1.61 8.925zm59.79-37.74c-1.3 0-2.75.51-4.33 1.53-1.53 1.02-3.03 2.437-4.51 4.25-1.47 1.813-2.72 3.91-3.74 6.29-.96 2.323-1.56 4.817-1.78 7.48 4.7-1.36 8.44-2.862 11.22-4.505 2.83-1.7 4.84-3.4 6.03-5.1 1.25-1.757 1.87-3.4 1.87-4.93 0-1.587-.45-2.805-1.36-3.655-.85-.907-1.98-1.36-3.4-1.36zm-7.48 38.845c-3.74 0-6.83-1.275-9.26-3.825-2.38-2.55-3.57-6.545-3.57-11.985 0-3.4.59-6.687 1.78-9.86 1.19-3.23 2.81-6.092 4.85-8.585 2.04-2.55 4.39-4.562 7.05-6.035 2.72-1.473 5.56-2.21 8.5-2.21 2.78 0 4.88.68 6.29 2.04 1.48 1.36 2.21 3.287 2.21 5.78 0 1.813-.71 3.825-2.12 6.035-1.42 2.153-3.94 4.335-7.57 6.545-3.57 2.21-8.58 4.25-15.04 6.12.17 3.627 1.02 6.233 2.55 7.82 1.53 1.53 3.6 2.295 6.2 2.295 2.67 0 4.96-.68 6.89-2.04 1.92-1.36 3.45-2.748 4.59-4.165l1.95 1.53c-1.75 2.89-3.96 5.383-6.63 7.48-2.66 2.04-5.55 3.06-8.67 3.06zm45.16-12.07c0 3.513-1.33 6.403-4 8.67-2.6 2.267-6.06 3.4-10.37 3.4-3.28 0-5.81-.765-7.56-2.295-1.7-1.53-2.69-3.57-2.98-6.12.23-.737.63-1.303 1.19-1.7.63-.453 1.28-.68 1.96-.68 1.24 0 2.15.34 2.72 1.02.62.623 1.07 1.53 1.36 2.72l.93 3.655c.17.057.34.085.51.085h.68c2.95 0 5.24-.652 6.89-1.955 1.64-1.303 2.46-3.06 2.46-5.27 0-1.36-.31-2.663-.93-3.91-.63-1.247-2.16-2.748-4.59-4.505-2.1-1.643-3.88-3.315-5.36-5.015-1.41-1.757-2.12-3.967-2.12-6.63 0-2.21.56-4.222 1.7-6.035 1.13-1.813 2.69-3.23 4.67-4.25 2.04-1.077 4.42-1.615 7.14-1.615 2.5 0 4.65.567 6.46 1.7 1.82 1.077 3.03 3.003 3.66 5.78-.51 1.587-1.59 2.38-3.23 2.38-1.99 0-3.43-1.332-4.34-3.995l-.76-2.465c-.17-.057-.37-.085-.6-.085-.17 0-.37 0-.59 0-2.95 0-5.05.68-6.29 2.04-1.19 1.36-1.79 3.003-1.79 4.93 0 1.757.43 3.23 1.28 4.42.9 1.133 2.58 2.607 5.01 4.42 2.55 1.927 4.34 3.683 5.36 5.27 1.02 1.53 1.53 3.542 1.53 6.035zm30.63 0c0 3.513-1.33 6.403-4 8.67-2.6 2.267-6.06 3.4-10.37 3.4-3.28 0-5.81-.765-7.56-2.295-1.7-1.53-2.69-3.57-2.98-6.12.23-.737.63-1.303 1.19-1.7.63-.453 1.28-.68 1.96-.68 1.24 0 2.15.34 2.72 1.02.62.623 1.07 1.53 1.36 2.72l.93 3.655c.17.057.34.085.51.085h.68c2.95 0 5.24-.652 6.89-1.955 1.64-1.303 2.46-3.06 2.46-5.27 0-1.36-.31-2.663-.93-3.91-.63-1.247-2.16-2.748-4.59-4.505-2.1-1.643-3.88-3.315-5.36-5.015-1.41-1.757-2.12-3.967-2.12-6.63 0-2.21.56-4.222 1.7-6.035 1.13-1.813 2.69-3.23 4.67-4.25 2.04-1.077 4.42-1.615 7.14-1.615 2.5 0 4.65.567 6.46 1.7 1.82 1.077 3.03 3.003 3.66 5.78-.51 1.587-1.59 2.38-3.23 2.38-1.99 0-3.43-1.332-4.34-3.995l-.76-2.465c-.17-.057-.37-.085-.6-.085-.17 0-.37 0-.59 0-2.95 0-5.05.68-6.29 2.04-1.19 1.36-1.79 3.003-1.79 4.93 0 1.757.43 3.23 1.28 4.42.9 1.133 2.58 2.607 5.01 4.42 2.55 1.927 4.34 3.683 5.36 5.27 1.02 1.53 1.53 3.542 1.53 6.035z" fill="#bd0611"/><path d="m1987.16 1172.26c-1.31 0-2.75.51-4.34 1.53-1.53 1.02-3.03 2.44-4.5 4.25-1.48 1.81-2.72 3.91-3.74 6.29-.97 2.32-1.56 4.82-1.79 7.48 4.7-1.36 8.44-2.86 11.22-4.51 2.83-1.7 4.85-3.4 6.04-5.1 1.24-1.75 1.87-3.4 1.87-4.93 0-1.58-.46-2.8-1.36-3.65-.85-.91-1.99-1.36-3.4-1.36zm-7.48 38.85c-3.74 0-6.83-1.28-9.27-3.83-2.38-2.55-3.57-6.55-3.57-11.99 0-3.4.6-6.68 1.79-9.86 1.19-3.23 2.8-6.09 4.84-8.58 2.04-2.55 4.39-4.56 7.06-6.04 2.72-1.47 5.55-2.21 8.5-2.21 2.77 0 4.87.68 6.29 2.04 1.47 1.36 2.21 3.29 2.21 5.78 0 1.82-.71 3.83-2.13 6.04-1.42 2.15-3.94 4.33-7.56 6.54-3.57 2.21-8.59 4.25-15.05 6.12.17 3.63 1.02 6.24 2.55 7.82 1.53 1.53 3.6 2.3 6.21 2.3 2.66 0 4.95-.68 6.88-2.04s3.46-2.75 4.59-4.17l1.96 1.53c-1.76 2.89-3.97 5.39-6.63 7.48-2.67 2.04-5.56 3.07-8.67 3.07zm16.76-6.04c.23-1.02.71-1.79 1.45-2.3.79-.51 1.53-.76 2.21-.76.9 0 1.67.2 2.29.59.62.34 1.3 1.17 2.04 2.47l.94 1.7c.51-.4 1.04-.91 1.61-1.53 2.04-2.21 3.94-4.48 5.7-6.8 1.75-2.32 3.51-4.79 5.27-7.4l-3.57-12.15c-.51-1.76-1-2.95-1.45-3.57-.4-.68-1.05-1.02-1.95-1.02-.57 0-1.42.34-2.55 1.02-1.08.68-2.36 2.27-3.83 4.76l-1.95-1.45c1.58-3.51 3.31-6.06 5.18-7.65 1.87-1.58 3.68-2.38 5.44-2.38 1.64 0 2.95.54 3.91 1.62 1.02 1.08 1.9 2.97 2.64 5.69l2.63 9.44c1.81-2.89 3.51-5.44 5.1-7.65 1.64-2.21 3-3.97 4.08-5.27 1.25-1.47 2.38-2.47 3.4-2.98 1.02-.56 2.21-.85 3.57-.85 1.13 0 2.27.37 3.4 1.11 1.19.74 1.96 1.87 2.3 3.4 0 1.19-.34 2.18-1.02 2.97-.68.74-1.51 1.11-2.47 1.11-.85 0-1.64-.17-2.38-.51-.74-.4-1.5-1.19-2.29-2.38l-.51-.68c-.23.17-.43.37-.6.59-.17.23-.37.46-.59.68-1.99 2.21-3.89 4.48-5.7 6.8-1.81 2.33-3.57 4.71-5.27 7.14l2.98 10.8c.62 2.32 1.27 3.85 1.95 4.59.74.68 1.7 1.02 2.89 1.02 1.13 0 2.38-.54 3.74-1.62 1.42-1.07 2.89-2.57 4.42-4.5l2.13 1.61c-2.04 3.01-4.25 5.5-6.63 7.48-2.38 1.93-4.71 2.9-6.97 2.9-1.25 0-2.36-.4-3.32-1.2-.96-.85-1.81-2.49-2.55-4.93l-3.14-10.54c-1.76 2.84-3.43 5.42-5.02 7.74-1.59 2.27-3.12 4.28-4.59 6.03-.91 1.08-1.84 1.82-2.8 2.22-.97.45-2.02.68-3.15.68-1.7 0-3.26-.49-4.67-1.45-1.36-1.02-2.13-2.55-2.3-4.59zm39.57 25.42.6-2.89 7.31-1.19 10.71-50.5-8.42-.51.34-2.46 14.45-4.34 1.11.85-2.04 9.52c2.66-3.23 5.52-5.75 8.58-7.56 3.06-1.87 5.81-2.81 8.25-2.81 2.09 0 3.91.8 5.44 2.38 1.53 1.53 2.29 4.23 2.29 8.08 0 2.89-.51 5.84-1.53 8.84s-2.41 5.89-4.16 8.67c-1.76 2.72-3.77 5.18-6.04 7.39-2.26 2.21-4.64 3.97-7.14 5.27-2.49 1.25-4.96 1.88-7.39 1.88-1.76 0-3.37-.43-4.85-1.28-.73 3.63-1.36 6.74-1.87 9.35s-.93 4.99-1.27 7.14l7.82 1.28-.68 2.89zm36.89-56.19c-1.75 0-3.82.76-6.2 2.29-2.33 1.53-4.82 3.72-7.48 6.55l-4.25 19.8c1.13.85 2.24 1.48 3.31 1.87 1.14.34 2.18.51 3.15.51 2.15 0 4.16-.59 6.03-1.78 1.93-1.19 3.63-2.75 5.1-4.68 1.7-2.26 3.03-4.81 4-7.65 1.02-2.89 1.53-5.8 1.53-8.75 0-5.44-1.73-8.16-5.19-8.16zm22.59 36.81c-1.3 0-2.44-.4-3.4-1.2-.91-.85-1.36-2.09-1.36-3.74 0-.62.06-1.36.17-2.21.17-.85.37-2.01.59-3.48l6.12-31.03c.51-2.49 1-4.98 1.45-7.47.45-2.56.88-5.11 1.27-7.66l-7.99-.51.34-2.46 14.62-4.25.94.68-10.2 50.57c-.51 2.27-.77 3.91-.77 4.93 0 .63.2 1.11.6 1.45.45.34.96.51 1.53.51.91 0 2.04-.54 3.4-1.62 1.42-1.07 2.97-2.57 4.67-4.5l1.96 1.61c-1.19 1.65-2.49 3.29-3.91 4.93-1.36 1.59-2.86 2.89-4.51 3.91-1.64 1.03-3.48 1.54-5.52 1.54zm23.14-13.52c0 2.61.46 4.53 1.36 5.78.97 1.25 2.21 1.87 3.74 1.87 1.48 0 3.18-.6 5.1-1.79 1.93-1.19 4.28-3.31 7.06-6.37l4.59-21.25c-.79-.45-1.64-.82-2.55-1.11-.85-.34-1.73-.51-2.64-.51-1.36 0-2.89.43-4.59 1.28-1.64.85-3.23 2.07-4.76 3.65-2.04 2.1-3.76 4.76-5.18 7.99s-2.13 6.72-2.13 10.46zm20.4 13.52c-1.13 0-2.15-.4-3.06-1.2-.9-.79-1.36-2.04-1.36-3.74 0-1.64.12-3.14.34-4.5-2.43 2.78-4.95 5.04-7.56 6.8-2.55 1.76-4.99 2.64-7.31 2.64-2.04 0-3.91-.8-5.61-2.39-1.64-1.58-2.47-4.13-2.47-7.65 0-2.94.54-5.95 1.62-9.01 1.13-3.06 2.61-5.97 4.42-8.75 1.87-2.83 3.94-5.36 6.2-7.57 2.33-2.21 4.68-3.93 7.06-5.18 2.44-1.3 4.76-1.96 6.97-1.96.96 0 1.84.2 2.63.6.8.4 1.53.96 2.21 1.7l3.91-3.15 1.53.77-6.8 30c-.51 2.1-.76 3.72-.76 4.85 0 .57.2 1.02.59 1.36.4.34.88.51 1.45.51 1.08 0 2.35-.57 3.82-1.7 1.53-1.13 3.04-2.61 4.51-4.42l2.04 1.61c-1.08 1.65-2.38 3.26-3.91 4.85s-3.17 2.92-4.93 3.99c-1.76 1.03-3.6 1.54-5.53 1.54zm26.56-1.11-5.69.68-.85-.68 7.22-34.09-8.41-.51.34-2.46 14.45-4.34 1.1.85-1.78 8.76c2.83-2.66 5.83-4.93 9.01-6.8 3.23-1.87 6.15-2.81 8.75-2.81 3.63 0 5.44 1.96 5.44 5.87 0 1.36-.14 2.75-.42 4.16-.29 1.36-.6 2.75-.94 4.17l-3.82 15.72c-.29 1.19-.54 2.21-.77 3.06-.22.8-.34 1.42-.34 1.87 0 1.19.54 1.79 1.62 1.79 1.07 0 2.35-.54 3.82-1.62 1.53-1.07 3.06-2.57 4.59-4.5l2.04 1.61c-1.07 1.65-2.41 3.29-3.99 4.93-1.53 1.59-3.2 2.89-5.02 3.91-1.81 1.03-3.71 1.54-5.69 1.54-1.31 0-2.35-.34-3.15-1.02-.73-.69-1.1-1.56-1.1-2.64 0-.96.11-1.9.34-2.81.28-.96.62-2.32 1.02-4.08l3.65-14.96c.34-1.47.65-2.86.94-4.16.28-1.3.42-2.38.42-3.23 0-1.47-.25-2.49-.76-3.06s-1.25-.85-2.21-.85c-1.53 0-3.49.62-5.87 1.87s-5.13 3.14-8.24 5.69l-2.3 10.29c-.62 2.95-1.22 5.92-1.78 8.92-.51 2.95-1.05 5.93-1.62 8.93zm45.35-12.41c0 2.61.45 4.53 1.36 5.78.96 1.25 2.21 1.87 3.74 1.87 1.47 0 3.17-.6 5.1-1.79s4.28-3.31 7.05-6.37l4.59-21.25c-.79-.45-1.64-.82-2.55-1.11-.85-.34-1.72-.51-2.63-.51-1.36 0-2.89.43-4.59 1.28-1.64.85-3.23 2.07-4.76 3.65-2.04 2.1-3.77 4.76-5.19 7.99-1.41 3.23-2.12 6.72-2.12 10.46zm20.4 13.52c-1.13 0-2.15-.4-3.06-1.2-.91-.79-1.36-2.04-1.36-3.74 0-1.64.11-3.14.34-4.5-2.44 2.78-4.96 5.04-7.57 6.8-2.55 1.76-4.98 2.64-7.31 2.64-2.04 0-3.91-.8-5.61-2.39-1.64-1.58-2.46-4.13-2.46-7.65 0-2.94.54-5.95 1.61-9.01 1.14-3.06 2.61-5.97 4.42-8.75 1.87-2.83 3.94-5.36 6.21-7.57 2.32-2.21 4.67-3.93 7.05-5.18 2.44-1.3 4.76-1.96 6.97-1.96.97 0 1.85.2 2.64.6s1.53.96 2.21 1.7l3.91-3.15 1.53.77-6.8 30c-.51 2.1-.77 3.72-.77 4.85 0 .57.2 1.02.6 1.36s.88.51 1.44.51c1.08 0 2.36-.57 3.83-1.7 1.53-1.13 3.03-2.61 4.5-4.42l2.04 1.61c-1.07 1.65-2.38 3.26-3.91 4.85s-3.17 2.92-4.93 3.99c-1.75 1.03-3.59 1.54-5.52 1.54zm21.64-10.55 5.69-26.69h-8.67l.6-3.4 9.18-.85 3.99-11.39h4.34l-2.47 11.48h10.8l-.68 4.59-10.97-.34-5.18 24.39c-.51 2.27-.77 3.91-.77 4.93 0 .63.2 1.11.6 1.45.45.34.93.51 1.44.51 2.16 0 4.93-2.04 8.33-6.12l2.13 1.61c-1.19 1.7-2.55 3.35-4.08 4.93-1.53 1.59-3.18 2.89-4.93 3.91-1.76 1.03-3.6 1.54-5.53 1.54-1.24 0-2.35-.37-3.31-1.11-.91-.74-1.36-1.81-1.36-3.23 0-.62.05-1.36.17-2.21.11-.91.34-2.24.68-4zm27.12 6.21c0-.62.06-1.36.17-2.21.11-.91.37-2.24.77-4l5.1-24.65-8.42-.51.34-2.46 14.45-4.34 1.11.85-6.04 29.07c-.23 1.08-.42 2.04-.59 2.89-.12.85-.17 1.51-.17 1.96 0 .57.19 1.02.59 1.36s.82.51 1.28.51c2.04 0 4.76-2.04 8.16-6.12l2.12 1.61c-1.25 1.7-2.61 3.35-4.08 4.93-1.42 1.59-2.97 2.89-4.67 3.91-1.65 1.03-3.49 1.54-5.53 1.54-1.13 0-2.18-.37-3.14-1.11-.97-.74-1.45-1.81-1.45-3.23zm12.5-49.73c-1.36 0-2.47-.42-3.32-1.27-.85-.91-1.27-2.15-1.27-3.74 0-1.42.51-2.64 1.53-3.66 1.02-1.07 2.18-1.61 3.48-1.61 1.36 0 2.47.45 3.32 1.36.85.85 1.27 2.04 1.27 3.57 0 1.36-.51 2.61-1.53 3.74-1.02 1.08-2.18 1.61-3.48 1.61zm24.53 54.07c-2.6 0-4.98-.57-7.14-1.71-2.15-1.13-3.88-2.8-5.18-5.01-1.25-2.27-1.87-5.02-1.87-8.25 0-3.85.57-7.42 1.7-10.71 1.19-3.34 2.8-6.26 4.84-8.75 2.04-2.55 4.4-4.53 7.06-5.95 2.72-1.42 5.58-2.13 8.58-2.13 4.03 0 7.31 1.28 9.86 3.83 2.61 2.55 3.91 6.23 3.91 11.05 0 3.68-.56 7.2-1.7 10.54-1.13 3.29-2.72 6.23-4.76 8.84-1.98 2.55-4.27 4.56-6.88 6.03-2.61 1.48-5.41 2.22-8.42 2.22zm.94-3.41c2.1 0 3.99-.65 5.69-1.95s3.15-3.06 4.34-5.27c1.25-2.21 2.21-4.68 2.89-7.4s1.02-5.49 1.02-8.33c0-4.59-.74-7.84-2.21-9.77-1.42-1.98-3.29-2.98-5.61-2.98-2.66 0-5.1 1.05-7.31 3.15-2.15 2.1-3.85 4.9-5.1 8.41-1.25 3.46-1.87 7.31-1.87 11.56 0 4.48.76 7.71 2.29 9.69 1.53 1.93 3.49 2.89 5.87 2.89zm34.79 2.3-5.7.68-.85-.68 7.23-34.09-8.42-.51.34-2.46 14.45-4.34 1.11.85-1.79 8.76c2.84-2.66 5.84-4.93 9.01-6.8 3.23-1.87 6.15-2.81 8.76-2.81 3.63 0 5.44 1.96 5.44 5.87 0 1.36-.14 2.75-.43 4.16-.28 1.36-.59 2.75-.93 4.17l-3.83 15.72c-.28 1.19-.53 2.21-.76 3.06-.23.8-.34 1.42-.34 1.87 0 1.19.54 1.79 1.61 1.79 1.08 0 2.36-.54 3.83-1.62 1.53-1.07 3.06-2.57 4.59-4.5l2.04 1.61c-1.08 1.65-2.41 3.29-4 4.93-1.53 1.59-3.2 2.89-5.01 3.91-1.81 1.03-3.71 1.54-5.7 1.54-1.3 0-2.35-.34-3.14-1.02-.74-.69-1.11-1.56-1.11-2.64 0-.96.12-1.9.34-2.81.29-.96.63-2.32 1.02-4.08l3.66-14.96c.34-1.47.65-2.86.93-4.16.29-1.3.43-2.38.43-3.23 0-1.47-.26-2.49-.77-3.06s-1.24-.85-2.21-.85c-1.53 0-3.48.62-5.86 1.87s-5.13 3.14-8.25 5.69l-2.29 10.29c-.62 2.95-1.22 5.92-1.79 8.92-.51 2.95-1.04 5.93-1.61 8.93z" fill="#bd0611"/><path d="m1038.64 309.85c0 3.06 1.42 4.59 4.25 4.59 3.46 0 6.8-1.53 10.03-4.59 2.33-2.21 4.17-5.015 5.53-8.415 1.41-3.4 2.12-6.828 2.12-10.285 0-2.72-.48-4.76-1.44-6.12-.91-1.36-2.16-2.04-3.74-2.04-1.82 0-3.88.794-6.21 2.38-2.32 1.587-4.84 3.854-7.56 6.8l-1.28 5.865c-.45 2.154-.82 3.91-1.1 5.27-.23 1.304-.4 2.465-.51 3.485-.06.964-.09 1.984-.09 3.06zm.51 9.945c-1.92 0-3.6-.623-5.01-1.87-1.36-1.246-2.04-2.975-2.04-5.185 0-1.813.17-3.768.51-5.865.39-2.153.88-4.646 1.44-7.48l7.23-36.295-8.42-.595.43-2.465 14.7-4.25.94.68-6.55 31.705c2.61-3.4 5.44-6.063 8.5-7.99 3.06-1.926 5.84-2.89 8.33-2.89 2.1 0 3.91.794 5.44 2.38 1.53 1.53 2.3 4.222 2.3 8.075 0 2.89-.51 5.837-1.53 8.84-1.02 3.004-2.44 5.894-4.25 8.67-1.82 2.72-3.91 5.185-6.29 7.395s-4.9 3.967-7.57 5.27c-2.66 1.247-5.38 1.87-8.16 1.87zm53.37-38.845c-1.3 0-2.74.51-4.33 1.53-1.53 1.02-3.03 2.437-4.51 4.25-1.47 1.814-2.72 3.91-3.74 6.29-.96 2.324-1.55 4.817-1.78 7.48 4.7-1.36 8.44-2.861 11.22-4.505 2.83-1.7 4.84-3.4 6.03-5.1 1.25-1.756 1.87-3.4 1.87-4.93 0-1.586-.45-2.805-1.36-3.655-.85-.906-1.98-1.36-3.4-1.36zm-7.48 38.845c-3.74 0-6.82-1.275-9.26-3.825-2.38-2.55-3.57-6.545-3.57-11.985 0-3.4.59-6.686 1.78-9.86 1.19-3.23 2.81-6.091 4.85-8.585 2.04-2.55 4.39-4.561 7.05-6.035 2.72-1.473 5.56-2.21 8.5-2.21 2.78 0 4.88.68 6.29 2.04 1.48 1.36 2.21 3.287 2.21 5.78 0 1.814-.7 3.825-2.12 6.035-1.42 2.154-3.94 4.335-7.57 6.545-3.57 2.21-8.58 4.25-15.04 6.12.17 3.627 1.02 6.234 2.55 7.82 1.53 1.53 3.6 2.295 6.2 2.295 2.67 0 4.96-.68 6.89-2.04s3.46-2.748 4.59-4.165l1.95 1.53c-1.75 2.89-3.96 5.384-6.63 7.48-2.66 2.04-5.55 3.06-8.67 3.06zm48.64-64.855c2.5 0 4.62.652 6.38 1.955 1.81 1.247 2.89 2.664 3.23 4.25-.57 1.927-1.67 2.89-3.32 2.89-1.24 0-2.35-.368-3.31-1.105-.91-.736-2.04-1.926-3.4-3.57l-1.36-1.615c-1.42.624-2.78 1.672-4.08 3.145-1.3 1.417-2.49 3.457-3.57 6.12-1.02 2.607-1.9 6.092-2.64 10.455-.05.17-.08.34-.08.51 0 .114-.03.255-.09.425h10.97l-.68 4.505-10.97-.34c-.9 5.384-1.81 10.909-2.72 16.575-.9 5.667-1.89 11.192-2.97 16.575-.91 4.534-2.01 8.472-3.32 11.815-1.24 3.344-3.06 6.092-5.44 8.245-1.75 1.587-3.34 2.664-4.76 3.23-1.47.624-2.89.935-4.25.935-1.92 0-3.62-.481-5.1-1.445-1.47-.963-2.4-2.238-2.8-3.825.17-.906.65-1.643 1.44-2.21.74-.566 1.56-.85 2.47-.85 1.25 0 2.38.34 3.4 1.02.96.68 1.9 1.502 2.8 2.465l1.02 1.02c.57-.453 1.14-.991 1.7-1.615.63-.566 1.22-1.246 1.79-2.04 1.08-1.586 2.01-3.683 2.8-6.29.8-2.55 1.59-6.035 2.38-10.455 1.02-5.723 1.96-11.276 2.81-16.66.91-5.383 1.81-10.936 2.72-16.66h-8.84l.68-3.23 8.84-.765.08-.765c.74-4.703 1.82-8.528 3.23-11.475 1.48-3.003 3.09-5.298 4.85-6.885 1.81-1.643 3.6-2.776 5.35-3.4 1.82-.623 3.4-.935 4.76-.935zm12.32 64.855c-2.6 0-4.98-.566-7.14-1.7-2.15-1.133-3.88-2.805-5.18-5.015-1.25-2.266-1.87-5.015-1.87-8.245 0-3.853.57-7.423 1.7-10.71 1.19-3.343 2.8-6.261 4.84-8.755 2.04-2.55 4.4-4.533 7.06-5.95 2.72-1.416 5.58-2.125 8.58-2.125 4.03 0 7.31 1.275 9.86 3.825 2.61 2.55 3.91 6.234 3.91 11.05 0 3.684-.56 7.197-1.7 10.54-1.13 3.287-2.72 6.234-4.76 8.84-1.98 2.55-4.27 4.562-6.88 6.035-2.61 1.474-5.41 2.21-8.42 2.21zm.94-3.4c2.1 0 3.99-.651 5.69-1.955 1.7-1.303 3.15-3.06 4.34-5.27 1.25-2.21 2.21-4.675 2.89-7.395s1.02-5.496 1.02-8.33c0-4.59-.74-7.848-2.21-9.775-1.42-1.983-3.29-2.975-5.61-2.975-2.66 0-5.1 1.049-7.31 3.145-2.15 2.097-3.85 4.902-5.1 8.415-1.25 3.457-1.87 7.31-1.87 11.56 0 4.477.76 7.707 2.29 9.69 1.53 1.927 3.49 2.89 5.87 2.89zm28.24 2.295 7.23-34.085-8.42-.51.34-2.465 14.03-4.335 1.1.85-1.87 11.39c1.25-2.153 2.55-4.136 3.91-5.95 1.42-1.87 2.89-3.371 4.42-4.505 1.53-1.19 3.03-1.785 4.51-1.785 1.19 0 2.29.199 3.31.595 1.02.34 1.82.992 2.38 1.955-.05 1.417-.48 2.579-1.27 3.485-.74.85-1.82 1.275-3.23 1.275-.74 0-1.56-.198-2.47-.595-.85-.453-1.7-.991-2.55-1.615-2.04 1.7-3.91 3.712-5.61 6.035-1.7 2.324-3.31 4.987-4.84 7.99l-1.02 4.42c-.63 2.947-1.22 5.922-1.79 8.925-.51 2.947-1.05 5.922-1.61 8.925l-5.7.68zm50.32-37.74c-1.3 0-2.75.51-4.33 1.53-1.53 1.02-3.03 2.437-4.51 4.25-1.47 1.814-2.72 3.91-3.74 6.29-.96 2.324-1.56 4.817-1.78 7.48 4.7-1.36 8.44-2.861 11.22-4.505 2.83-1.7 4.84-3.4 6.03-5.1 1.25-1.756 1.87-3.4 1.87-4.93 0-1.586-.45-2.805-1.36-3.655-.85-.906-1.98-1.36-3.4-1.36zm-7.48 38.845c-3.74 0-6.83-1.275-9.26-3.825-2.38-2.55-3.57-6.545-3.57-11.985 0-3.4.59-6.686 1.78-9.86 1.19-3.23 2.81-6.091 4.85-8.585 2.04-2.55 4.39-4.561 7.05-6.035 2.72-1.473 5.56-2.21 8.5-2.21 2.78 0 4.88.68 6.29 2.04 1.48 1.36 2.21 3.287 2.21 5.78 0 1.814-.71 3.825-2.12 6.035-1.42 2.154-3.94 4.335-7.57 6.545-3.57 2.21-8.58 4.25-15.04 6.12.17 3.627 1.02 6.234 2.55 7.82 1.53 1.53 3.6 2.295 6.2 2.295 2.67 0 4.96-.68 6.89-2.04 1.92-1.36 3.45-2.748 4.59-4.165l1.95 1.53c-1.75 2.89-3.96 5.384-6.63 7.48-2.66 2.04-5.55 3.06-8.67 3.06z" fill="#000"/><path d="m2104.15 306.28c0 2.607.45 4.534 1.36 5.78.96 1.247 2.21 1.87 3.74 1.87 1.47 0 3.17-.595 5.1-1.785s4.28-3.315 7.05-6.375l4.59-21.25c-.79-.453-1.64-.821-2.55-1.105-.85-.34-1.72-.51-2.63-.51-1.36 0-2.89.425-4.59 1.275-1.64.85-3.23 2.069-4.76 3.655-2.04 2.097-3.77 4.76-5.19 7.99-1.41 3.23-2.12 6.715-2.12 10.455zm20.4 13.515c-1.13 0-2.15-.396-3.06-1.19-.91-.793-1.36-2.04-1.36-3.74 0-1.643.11-3.145.34-4.505-2.44 2.777-4.96 5.044-7.57 6.8-2.55 1.757-4.98 2.635-7.31 2.635-2.04 0-3.91-.793-5.61-2.38-1.64-1.586-2.46-4.136-2.46-7.65 0-2.946.54-5.95 1.61-9.01 1.14-3.06 2.61-5.978 4.42-8.755 1.87-2.833 3.94-5.355 6.21-7.565 2.32-2.21 4.67-3.938 7.05-5.185 2.44-1.303 4.76-1.955 6.97-1.955.97 0 1.85.199 2.64.595.79.397 1.53.964 2.21 1.7l3.91-3.145 1.53.765-6.8 30.005c-.51 2.097-.77 3.712-.77 4.845 0 .567.2 1.02.6 1.36s.88.51 1.44.51c1.08 0 2.36-.566 3.83-1.7 1.53-1.133 3.03-2.606 4.5-4.42l2.04 1.615c-1.07 1.644-2.38 3.259-3.91 4.845-1.53 1.587-3.17 2.919-4.93 3.995-1.75 1.02-3.59 1.53-5.52 1.53zm46.36-64.855c2.38 0 4.42.624 6.12 1.87 1.76 1.247 2.81 2.635 3.15 4.165-.29.964-.71 1.672-1.28 2.125-.56.397-1.19.595-1.87.595-1.24 0-2.32-.34-3.23-1.02-.9-.736-2.01-1.898-3.31-3.485l-1.19-1.53c-1.53.68-3.06 1.757-4.59 3.23-1.53 1.474-2.92 3.542-4.17 6.205-1.24 2.607-2.26 6.064-3.06 10.37-.05.17-.08.34-.08.51 0 .114-.03.255-.09.425h17.17l.51-.085 4-11.39h4.33l-2.46 11.475h10.79l-.68 4.59-10.96-.34-5.19 24.395c-.51 2.267-.76 3.91-.76 4.93 0 .624.2 1.105.59 1.445.46.34.94.51 1.45.51 2.15 0 4.93-2.04 8.33-6.12l2.12 1.615c-1.19 1.7-2.55 3.344-4.08 4.93-1.53 1.587-3.17 2.89-4.93 3.91-1.75 1.02-3.6 1.53-5.52 1.53-1.25 0-2.35-.368-3.32-1.105-.9-.736-1.36-1.813-1.36-3.23 0-.623.06-1.36.17-2.21.12-.906.34-2.238.68-3.995l5.7-26.69h-8.67v-.17h-8.59c-.9 5.44-1.81 11.022-2.72 16.745-.9 5.667-1.9 11.192-2.97 16.575-.91 4.534-2.01 8.472-3.32 11.815-1.24 3.344-3.06 6.092-5.44 8.245-1.75 1.587-3.34 2.664-4.76 3.23-1.47.624-2.89.935-4.25.935-1.92 0-3.62-.481-5.1-1.445-1.47-.963-2.41-2.238-2.8-3.825.17-.906.65-1.643 1.44-2.21.74-.566 1.56-.85 2.47-.85 1.24 0 2.38.34 3.4 1.02.96.68 1.9 1.502 2.8 2.465l1.02 1.02c.57-.453 1.14-.991 1.7-1.615.63-.566 1.22-1.246 1.79-2.04 1.07-1.586 2.01-3.683 2.8-6.29.8-2.55 1.59-6.035 2.38-10.455 1.02-5.723 1.93-11.276 2.72-16.66.85-5.383 1.76-10.936 2.72-16.66h-8.75l.68-3.23 8.75-.765c.06-.113.09-.226.09-.34 0-.17.03-.311.08-.425 1.31-7.366 3.74-12.976 7.31-16.83 3.57-3.91 7.65-5.865 12.24-5.865zm41.65 26.01c-1.3 0-2.74.51-4.33 1.53-1.53 1.02-3.03 2.437-4.51 4.25-1.47 1.814-2.72 3.91-3.74 6.29-.96 2.324-1.55 4.817-1.78 7.48 4.7-1.36 8.44-2.861 11.22-4.505 2.83-1.7 4.84-3.4 6.03-5.1 1.25-1.756 1.87-3.4 1.87-4.93 0-1.586-.45-2.805-1.36-3.655-.85-.906-1.98-1.36-3.4-1.36zm-7.48 38.845c-3.74 0-6.82-1.275-9.26-3.825-2.38-2.55-3.57-6.545-3.57-11.985 0-3.4.59-6.686 1.78-9.86 1.19-3.23 2.81-6.091 4.85-8.585 2.04-2.55 4.39-4.561 7.05-6.035 2.72-1.473 5.56-2.21 8.5-2.21 2.78 0 4.88.68 6.29 2.04 1.48 1.36 2.21 3.287 2.21 5.78 0 1.814-.7 3.825-2.12 6.035-1.42 2.154-3.94 4.335-7.57 6.545-3.57 2.21-8.58 4.25-15.04 6.12.17 3.627 1.02 6.234 2.55 7.82 1.53 1.53 3.6 2.295 6.2 2.295 2.67 0 4.96-.68 6.89-2.04s3.46-2.748 4.59-4.165l1.95 1.53c-1.75 2.89-3.96 5.384-6.63 7.48-2.66 2.04-5.55 3.06-8.67 3.06zm23.65-1.105 7.23-34.085-8.42-.51.34-2.465 14.03-4.335 1.1.85-1.87 11.39c1.25-2.153 2.55-4.136 3.91-5.95 1.42-1.87 2.89-3.371 4.42-4.505 1.53-1.19 3.03-1.785 4.51-1.785 1.19 0 2.29.199 3.31.595 1.02.34 1.82.992 2.38 1.955-.05 1.417-.48 2.579-1.27 3.485-.74.85-1.82 1.275-3.23 1.275-.74 0-1.56-.198-2.47-.595-.85-.453-1.7-.991-2.55-1.615-2.04 1.7-3.91 3.712-5.61 6.035-1.7 2.324-3.31 4.987-4.84 7.99l-1.02 4.42c-.63 2.947-1.22 5.922-1.79 8.925-.51 2.947-1.05 5.922-1.61 8.925l-5.7.68z" fill="#000"/><path d="m332.084 697.59c0 2.607.453 4.533 1.36 5.78.963 1.247 2.21 1.87 3.74 1.87 1.473 0 3.173-.595 5.1-1.785 1.926-1.19 4.278-3.315 7.055-6.375l4.59-21.25c-.794-.453-1.644-.822-2.55-1.105-.85-.34-1.729-.51-2.635-.51-1.36 0-2.89.425-4.59 1.275-1.644.85-3.23 2.068-4.76 3.655-2.04 2.097-3.769 4.76-5.185 7.99-1.417 3.23-2.125 6.715-2.125 10.455zm20.4 13.515c-1.134 0-2.154-.397-3.06-1.19-.907-.793-1.36-2.04-1.36-3.74 0-1.643.113-3.145.34-4.505-2.437 2.777-4.959 5.043-7.565 6.8-2.55 1.757-4.987 2.635-7.31 2.635-2.04 0-3.91-.793-5.61-2.38-1.644-1.587-2.465-4.137-2.465-7.65 0-2.947.538-5.95 1.615-9.01 1.133-3.06 2.606-5.978 4.42-8.755 1.87-2.833 3.938-5.355 6.205-7.565 2.323-2.21 4.675-3.938 7.055-5.185 2.436-1.303 4.76-1.955 6.97-1.955.963 0 1.841.198 2.635.595.793.397 1.53.963 2.21 1.7l3.91-3.145 1.53.765-6.8 30.005c-.51 2.097-.765 3.712-.765 4.845 0 .567.198 1.02.595 1.36.396.34.878.51 1.445.51 1.076 0 2.351-.567 3.825-1.7 1.53-1.133 3.031-2.607 4.505-4.42l2.04 1.615c-1.077 1.643-2.38 3.258-3.91 4.845s-3.174 2.918-4.93 3.995c-1.757 1.02-3.599 1.53-5.525 1.53zm41.104-12.07c0 3.513-1.332 6.403-3.995 8.67-2.607 2.267-6.064 3.4-10.37 3.4-3.287 0-5.809-.765-7.565-2.295-1.7-1.53-2.692-3.57-2.975-6.12.226-.737.623-1.303 1.19-1.7.623-.453 1.275-.68 1.955-.68 1.246 0 2.153.34 2.72 1.02.623.623 1.076 1.53 1.36 2.72l.935 3.655c.17.057.34.085.51.085h.68c2.946 0 5.241-.652 6.885-1.955 1.643-1.303 2.465-3.06 2.465-5.27 0-1.36-.312-2.663-.935-3.91-.624-1.247-2.154-2.748-4.59-4.505-2.097-1.643-3.882-3.315-5.355-5.015-1.417-1.757-2.125-3.967-2.125-6.63 0-2.21.566-4.222 1.7-6.035 1.133-1.813 2.691-3.23 4.675-4.25 2.04-1.077 4.42-1.615 7.14-1.615 2.493 0 4.646.567 6.46 1.7 1.813 1.077 3.031 3.003 3.655 5.78-.51 1.587-1.587 2.38-3.23 2.38-1.984 0-3.429-1.332-4.335-3.995l-.765-2.465c-.17-.057-.369-.085-.595-.085-.17 0-.369 0-.595 0-2.947 0-5.044.68-6.29 2.04-1.19 1.36-1.785 3.003-1.785 4.93 0 1.757.425 3.23 1.275 4.42.906 1.133 2.578 2.607 5.015 4.42 2.55 1.927 4.335 3.683 5.355 5.27 1.02 1.53 1.53 3.542 1.53 6.035zm7.105 10.965 8.16-40.545c.51-2.493.991-4.987 1.445-7.48.51-2.55.963-5.1 1.36-7.65l-8.075-.51.34-2.465 14.705-4.25.51.68-7.65 38.845 22.61-17.595c.906.057 1.643.425 2.21 1.105.623.68.935 1.473.935 2.38 0 .737-.34 1.445-1.02 2.125s-1.814 1.445-3.4 2.295l-20.655 11.39 1.955.425c2.493.453 4.448 1.388 5.865 2.805 1.473 1.36 2.691 3.117 3.655 5.27l2.465 5.355c.963 2.04 1.841 3.343 2.635 3.91.793.567 1.841.907 3.145 1.02l4.335.34-.425 2.55c-1.247.397-2.324.68-3.23.85-.907.17-1.842.255-2.805.255-1.984 0-3.712-.397-5.185-1.19-1.474-.793-2.834-2.663-4.08-5.61l-2.72-6.63c-1.02-2.38-1.955-4.052-2.805-5.015-.85-1.02-2.012-1.728-3.485-2.125l-.765-.255-.34 1.87c-.567 2.947-1.134 5.922-1.7 8.925-.51 2.947-1.02 5.922-1.53 8.925l-5.695.68z" fill="#000"/><path d="m327.453 1200.56 5.695-26.69h-8.67l.595-3.4 9.18-.85 3.995-11.39h4.335l-2.465 11.48h10.795l-.68 4.59-10.965-.34-5.185 24.39c-.51 2.27-.765 3.91-.765 4.93 0 .63.198 1.11.595 1.45.453.34.935.51 1.445.51 2.153 0 4.93-2.04 8.33-6.12l2.125 1.61c-1.19 1.7-2.55 3.35-4.08 4.93-1.53 1.59-3.174 2.89-4.93 3.91-1.757 1.03-3.599 1.54-5.525 1.54-1.247 0-2.352-.37-3.315-1.11-.907-.74-1.36-1.81-1.36-3.23 0-.62.056-1.36.17-2.21.113-.91.34-2.24.68-4zm44.378-28.3c-1.303 0-2.748.51-4.335 1.53-1.53 1.02-3.031 2.44-4.505 4.25-1.473 1.81-2.72 3.91-3.74 6.29-.963 2.32-1.558 4.82-1.785 7.48 4.704-1.36 8.444-2.86 11.22-4.51 2.834-1.7 4.845-3.4 6.035-5.1 1.247-1.75 1.87-3.4 1.87-4.93 0-1.58-.453-2.8-1.36-3.65-.85-.91-1.983-1.36-3.4-1.36zm-7.48 38.85c-3.74 0-6.828-1.28-9.265-3.83-2.38-2.55-3.57-6.55-3.57-11.99 0-3.4.595-6.68 1.785-9.86 1.19-3.23 2.805-6.09 4.845-8.58 2.04-2.55 4.392-4.56 7.055-6.04 2.72-1.47 5.554-2.21 8.5-2.21 2.777 0 4.874.68 6.29 2.04 1.474 1.36 2.21 3.29 2.21 5.78 0 1.82-.708 3.83-2.125 6.04-1.416 2.15-3.938 4.33-7.565 6.54-3.57 2.21-8.585 4.25-15.045 6.12.17 3.63 1.02 6.24 2.55 7.82 1.53 1.53 3.599 2.3 6.205 2.3 2.664 0 4.959-.68 6.885-2.04 1.927-1.36 3.457-2.75 4.59-4.17l1.955 1.53c-1.756 2.89-3.966 5.39-6.63 7.48-2.663 2.04-5.553 3.07-8.67 3.07zm27.41 0c-1.304 0-2.437-.4-3.4-1.2-.907-.85-1.36-2.09-1.36-3.74 0-.62.056-1.36.17-2.21.17-.85.368-2.01.595-3.48l6.12-31.03c.51-2.49.991-4.98 1.445-7.47.453-2.56.878-5.11 1.275-7.66l-7.99-.51.34-2.46 14.62-4.25.935.68-10.2 50.57c-.51 2.27-.765 3.91-.765 4.93 0 .63.198 1.11.595 1.45.453.34.963.51 1.53.51.906 0 2.04-.54 3.4-1.62 1.416-1.07 2.975-2.57 4.675-4.5l1.955 1.61c-1.19 1.65-2.494 3.29-3.91 4.93-1.36 1.59-2.862 2.89-4.505 3.91-1.644 1.03-3.485 1.54-5.525 1.54zm23.74 0c-1.303 0-2.437-.4-3.4-1.2-.907-.85-1.36-2.09-1.36-3.74 0-.62.057-1.36.17-2.21.17-.85.368-2.01.595-3.48l6.12-31.03c.51-2.49.992-4.98 1.445-7.47.453-2.56.878-5.11 1.275-7.66l-7.99-.51.34-2.46 14.62-4.25.935.68-10.2 50.57c-.51 2.27-.765 3.91-.765 4.93 0 .63.198 1.11.595 1.45.453.34.963.51 1.53.51.907 0 2.04-.54 3.4-1.62 1.417-1.07 2.975-2.57 4.675-4.5l1.955 1.61c-1.19 1.65-2.493 3.29-3.91 4.93-1.36 1.59-2.862 2.89-4.505 3.91-1.643 1.03-3.485 1.54-5.525 1.54z" fill="#000"/><rect height="344" rx="15" stroke="#bd0611" stroke-width="6" width="884" x="683" y="1013"/></svg>