<svg fill="none" height="1118" viewBox="0 0 1007 1118" width="1007" xmlns="http://www.w3.org/2000/svg"><path d="m497.5 26.3301c4.641-2.6795 10.359-2.6795 15 0l223.66 129.1299c4.641 2.68 7.5 7.632 7.5 12.991v258.26c0 5.359-2.859 10.311-7.5 12.991l-223.66 129.13c-4.641 2.68-10.359 2.68-15 0l-223.66-129.13c-4.641-2.68-7.5-7.632-7.5-12.991v-258.26c0-5.359 2.859-10.311 7.5-12.991z" fill="#021740" fill-opacity=".1"/><path d="m497.5 435.168c4.641-2.68 10.359-2.68 15 0l223.66 129.13c4.641 2.68 7.5 7.632 7.5 12.991v258.26c0 5.359-2.859 10.311-7.5 12.991l-223.66 129.13c-4.641 2.679-10.359 2.679-15 0l-223.66-129.13c-4.641-2.68-7.5-7.632-7.5-12.991v-258.26c0-5.359 2.859-10.311 7.5-12.991z" fill="#021740" fill-opacity=".1"/><path d="m980.67 494.5c2.679 4.641 2.679 10.359 0 15l-129.13 223.66c-2.68 4.641-7.632 7.5-12.991 7.5h-258.26c-5.359 0-10.311-2.859-12.991-7.5l-129.13-223.66c-2.68-4.641-2.68-10.359 0-15l129.13-223.66c2.68-4.641 7.632-7.5 12.991-7.5h258.26c5.359 0 10.311 2.859 12.991 7.5z" fill="#021740" fill-opacity=".1"/><path d="m571.832 494.5c2.68 4.641 2.68 10.359 0 15l-129.13 223.66c-2.68 4.641-7.632 7.5-12.991 7.5h-258.26c-5.359 0-10.311-2.859-12.991-7.5l-129.1299-223.66c-2.6795-4.641-2.6795-10.359 0-15l129.1299-223.66c2.68-4.641 7.632-7.5 12.991-7.5h258.26c5.359 0 10.311 2.859 12.991 7.5z" fill="#021740" fill-opacity=".1"/><path d="m479.317 834.518c-.429 0-.803-.131-1.12-.392-.299-.28-.448-.691-.448-1.232 0-.206.019-.448.056-.728.056-.28.121-.663.196-1.148l2.016-10.22c.168-.822.327-1.643.476-2.464.149-.84.289-1.68.42-2.52l-2.632-.168.112-.812 4.816-1.4.308.224-3.36 16.66c-.168.746-.252 1.288-.252 1.624 0 .205.065.364.196.476.149.112.317.168.504.168.299 0 .672-.178 1.12-.532.467-.355.98-.85 1.54-1.484l.644.532c-.392.541-.821 1.082-1.288 1.624-.448.522-.943.952-1.484 1.288s-1.148.504-1.82.504zm7.624-4.452c0 .858.15 1.493.448 1.904.318.41.728.616 1.232.616.486 0 1.046-.196 1.68-.588.635-.392 1.41-1.092 2.324-2.1l1.512-7c-.261-.15-.541-.271-.84-.364-.28-.112-.569-.168-.868-.168-.448 0-.952.14-1.512.42-.541.28-1.064.681-1.568 1.204-.672.69-1.241 1.568-1.708 2.632-.466 1.064-.7 2.212-.7 3.444zm6.72 4.452c-.373 0-.709-.131-1.008-.392-.298-.262-.448-.672-.448-1.232 0-.542.038-1.036.112-1.484-.802.914-1.633 1.661-2.492 2.24-.84.578-1.642.868-2.408.868-.672 0-1.288-.262-1.848-.784-.541-.523-.812-1.363-.812-2.52 0-.971.178-1.96.532-2.968.374-1.008.859-1.97 1.456-2.884.616-.934 1.298-1.764 2.044-2.492.766-.728 1.54-1.298 2.324-1.708.803-.43 1.568-.644 2.296-.644.318 0 .607.065.868.196.262.13.504.317.728.56l1.288-1.036.504.252-2.24 9.884c-.168.69-.252 1.222-.252 1.596 0 .186.066.336.196.448.131.112.29.168.476.168.355 0 .775-.187 1.26-.56.504-.374.999-.859 1.484-1.456l.672.532c-.354.541-.784 1.073-1.288 1.596-.504.522-1.045.961-1.624 1.316-.578.336-1.185.504-1.82.504zm6.593-.364 2.38-11.228-2.772-.168.112-.812 4.62-1.428.364.28-.616 3.752c.411-.71.84-1.363 1.288-1.96.467-.616.952-1.111 1.456-1.484.504-.392.999-.588 1.484-.588.392 0 .756.065 1.092.196.336.112.598.326.784.644-.018.466-.158.849-.42 1.148-.242.28-.597.42-1.064.42-.242 0-.513-.066-.812-.196-.28-.15-.56-.327-.84-.532-.672.56-1.288 1.222-1.848 1.988-.56.765-1.092 1.642-1.596 2.632l-.336 1.456c-.205.97-.401 1.95-.588 2.94-.168.97-.345 1.95-.532 2.94l-1.876.224zm15.228-5.236c.878-.019 1.568-.43 2.072-1.232.523-.803.784-1.942.784-3.416 0-.896-.214-1.596-.644-2.1-.41-.523-.914-.775-1.512-.756-.97.018-1.698.448-2.184 1.288-.485.821-.728 1.885-.728 3.192 0 2.053.738 3.061 2.212 3.024zm-4.368-2.884c0-1.027.234-1.951.7-2.772.486-.84 1.13-1.503 1.932-1.988.803-.504 1.69-.756 2.66-.756.896 0 1.652.233 2.268.7.616.448 1.018 1.092 1.204 1.932.262-1.102.626-1.867 1.092-2.296.486-.43.99-.644 1.512-.644.374 0 .654.056.84.168.168.205.252.401.252.588 0 .56-.242.961-.728 1.204-.466.242-1.148.494-2.044.756-.093.242-.177.504-.252.784-.074.261-.149.55-.224.868-.41 1.81-1.082 3.136-2.016 3.976-.914.84-1.932 1.26-3.052 1.26-.84 0-1.558-.14-2.156-.42-.298.354-.494.644-.588.868-.074.224-.112.438-.112.644 0 .242.103.494.308.756.206.261.588.429 1.148.504l2.772.336c1.494.186 2.548.541 3.164 1.064.635.522.952 1.185.952 1.988 0 .97-.354 1.857-1.064 2.66-.69.821-1.652 1.474-2.884 1.96-1.213.485-2.594.728-4.144.728-1.306 0-2.398-.243-3.276-.728-.858-.486-1.288-1.232-1.288-2.24 0-.84.346-1.643 1.036-2.408.691-.747 1.522-1.354 2.492-1.82-.485-.243-.812-.532-.98-.868-.168-.355-.252-.682-.252-.98 0-.523.187-1.008.56-1.456.374-.467.887-.934 1.54-1.4-.914-.654-1.372-1.643-1.372-2.968zm-.84 10.976c0 .802.318 1.428.952 1.876.635.466 1.522.7 2.66.7 1.494 0 2.688-.271 3.584-.812.896-.542 1.344-1.26 1.344-2.156 0-.355-.102-.682-.308-.98-.186-.299-.532-.56-1.036-.784s-1.241-.392-2.212-.504l-2.24-.252c-.074-.019-.158-.028-.252-.028-.074-.019-.149-.038-.224-.056-.746.485-1.316.952-1.708 1.4-.373.466-.56.998-.56 1.596zm19.927-15.288c-.429 0-.905.168-1.428.504-.504.336-.998.802-1.484 1.4-.485.597-.896 1.288-1.232 2.072-.317.765-.513 1.586-.588 2.464 1.55-.448 2.782-.943 3.696-1.484.934-.56 1.596-1.12 1.988-1.68.411-.579.616-1.12.616-1.624 0-.523-.149-.924-.448-1.204-.28-.299-.653-.448-1.12-.448zm-2.464 12.796c-1.232 0-2.249-.42-3.052-1.26-.784-.84-1.176-2.156-1.176-3.948 0-1.12.196-2.203.588-3.248.392-1.064.924-2.007 1.596-2.828.672-.84 1.447-1.503 2.324-1.988.896-.486 1.83-.728 2.8-.728.915 0 1.606.224 2.072.672.486.448.728 1.082.728 1.904 0 .597-.233 1.26-.7 1.988-.466.709-1.297 1.428-2.492 2.156-1.176.728-2.828 1.4-4.956 2.016.056 1.194.336 2.053.84 2.576.504.504 1.186.756 2.044.756.878 0 1.634-.224 2.268-.672.635-.448 1.139-.906 1.512-1.372l.644.504c-.578.952-1.306 1.773-2.184 2.464-.877.672-1.829 1.008-2.856 1.008z" fill="#000"/><path d="m482.876 185.388c0 1.157-.439 2.109-1.316 2.856-.859.747-1.998 1.12-3.416 1.12-1.083 0-1.914-.252-2.492-.756-.56-.504-.887-1.176-.98-2.016.074-.243.205-.429.392-.56.205-.149.42-.224.644-.224.41 0 .709.112.896.336.205.205.354.504.448.896l.308 1.204c.056.019.112.028.168.028h.224c.97 0 1.726-.215 2.268-.644.541-.429.812-1.008.812-1.736 0-.448-.103-.877-.308-1.288-.206-.411-.71-.905-1.512-1.484-.691-.541-1.279-1.092-1.764-1.652-.467-.579-.7-1.307-.7-2.184 0-.728.186-1.391.56-1.988.373-.597.886-1.064 1.54-1.4.672-.355 1.456-.532 2.352-.532.821 0 1.53.187 2.128.56.597.355.998.989 1.204 1.904-.168.523-.523.784-1.064.784-.654 0-1.13-.439-1.428-1.316l-.252-.812c-.056-.019-.122-.028-.196-.028-.056 0-.122 0-.196 0-.971 0-1.662.224-2.072.672-.392.448-.588.989-.588 1.624 0 .579.14 1.064.42 1.456.298.373.849.859 1.652 1.456.84.635 1.428 1.213 1.764 1.736.336.504.504 1.167.504 1.988zm19.133 3.976c-.448 0-.802-.112-1.064-.336-.242-.224-.364-.513-.364-.868 0-.317.038-.625.112-.924.094-.317.206-.765.336-1.344l1.204-4.928c.112-.485.215-.943.308-1.372.094-.429.14-.784.14-1.064 0-.485-.084-.821-.252-1.008s-.41-.28-.728-.28c-.914 0-2.361.821-4.34 2.464l-.728 3.416c-.224.971-.429 1.951-.616 2.94-.186.971-.373 1.951-.56 2.94l-1.82.224-.28-.224 1.932-9.128c.038-.243.084-.485.14-.728s.084-.476.084-.7c0-.448-.084-.756-.252-.924-.168-.187-.41-.28-.728-.28-.504 0-1.148.205-1.932.616-.765.411-1.661 1.036-2.688 1.876l-.756 3.388c-.205.971-.401 1.951-.588 2.94-.168.971-.345 1.951-.532 2.94l-1.876.224-.28-.224 2.38-11.228-2.772-.168.112-.812 4.76-1.428.364.28-.588 2.884c.915-.877 1.904-1.624 2.968-2.24s2.026-.924 2.884-.924c1.176 0 1.764.644 1.764 1.932 0 .187-.018.383-.056.588-.018.187-.046.383-.084.588.878-.859 1.811-1.587 2.8-2.184 1.008-.616 1.932-.924 2.772-.924 1.176 0 1.764.644 1.764 1.932 0 .448-.056.905-.168 1.372-.093.448-.196.905-.308 1.372l-1.26 5.18c-.093.392-.177.728-.252 1.008-.074.261-.112.467-.112.616 0 .187.056.336.168.448.112.093.243.14.392.14.71 0 1.624-.672 2.744-2.016l.672.532c-.392.56-.84 1.101-1.344 1.624-.485.523-1.017.952-1.596 1.288-.578.336-1.204.504-1.876.504zm8.102-4.452c0 .859.15 1.493.448 1.904.318.411.728.616 1.232.616.486 0 1.046-.196 1.68-.588.635-.392 1.41-1.092 2.324-2.1l1.512-7c-.261-.149-.541-.271-.84-.364-.28-.112-.569-.168-.868-.168-.448 0-.952.14-1.512.42-.541.28-1.064.681-1.568 1.204-.672.691-1.241 1.568-1.708 2.632-.466 1.064-.7 2.212-.7 3.444zm6.72 4.452c-.373 0-.709-.131-1.008-.392-.298-.261-.448-.672-.448-1.232 0-.541.038-1.036.112-1.484-.802.915-1.633 1.661-2.492 2.24-.84.579-1.642.868-2.408.868-.672 0-1.288-.261-1.848-.784-.541-.523-.812-1.363-.812-2.52 0-.971.178-1.96.532-2.968.374-1.008.859-1.969 1.456-2.884.616-.933 1.298-1.764 2.044-2.492.766-.728 1.54-1.297 2.324-1.708.803-.429 1.568-.644 2.296-.644.318 0 .607.065.868.196.262.131.504.317.728.56l1.288-1.036.504.252-2.24 9.884c-.168.691-.252 1.223-.252 1.596 0 .187.066.336.196.448.131.112.29.168.476.168.355 0 .775-.187 1.26-.56.504-.373.999-.859 1.484-1.456l.672.532c-.354.541-.784 1.073-1.288 1.596s-1.045.961-1.624 1.316c-.578.336-1.185.504-1.82.504zm8.105 0c-.429 0-.802-.131-1.12-.392-.298-.28-.448-.691-.448-1.232 0-.205.019-.448.056-.728.056-.28.122-.663.196-1.148l2.016-10.22c.168-.821.327-1.643.476-2.464.15-.84.29-1.68.42-2.52l-2.632-.168.112-.812 4.816-1.4.308.224-3.36 16.66c-.168.747-.252 1.288-.252 1.624 0 .205.066.364.196.476.15.112.318.168.504.168.299 0 .672-.177 1.12-.532.467-.355.98-.849 1.54-1.484l.644.532c-.392.541-.821 1.083-1.288 1.624-.448.523-.942.952-1.484 1.288-.541.336-1.148.504-1.82.504zm7.821 0c-.43 0-.803-.131-1.12-.392-.299-.28-.448-.691-.448-1.232 0-.205.018-.448.056-.728.056-.28.121-.663.196-1.148l2.016-10.22c.168-.821.326-1.643.476-2.464.149-.84.289-1.68.42-2.52l-2.632-.168.112-.812 4.816-1.4.308.224-3.36 16.66c-.168.747-.252 1.288-.252 1.624 0 .205.065.364.196.476.149.112.317.168.504.168.298 0 .672-.177 1.12-.532.466-.355.98-.849 1.54-1.484l.644.532c-.392.541-.822 1.083-1.288 1.624-.448.523-.943.952-1.484 1.288-.542.336-1.148.504-1.82.504z" fill="#000"/><g fill="#bd0611"><path d="m343.721 353.538 2.38-11.228-2.772-.168.112-.812 4.62-1.428.364.28-.616 3.752c.411-.709.84-1.362 1.288-1.96.467-.616.952-1.11 1.456-1.484.504-.392.999-.588 1.484-.588.392 0 .756.066 1.092.196.336.112.597.327.784.644-.019.467-.159.85-.42 1.148-.243.28-.597.42-1.064.42-.243 0-.513-.065-.812-.196-.28-.149-.56-.326-.84-.532-.672.56-1.288 1.223-1.848 1.988-.56.766-1.092 1.643-1.596 2.632l-.336 1.456c-.205.971-.401 1.951-.588 2.94-.168.971-.345 1.951-.532 2.94l-1.876.224zm11.603-1.064c0-.205.018-.448.056-.728.037-.298.121-.737.252-1.316l1.68-8.12-2.772-.168.112-.812 4.76-1.428.364.28-1.988 9.576c-.075.355-.14.672-.196.952-.038.28-.056.495-.056.644 0 .187.065.336.196.448.13.112.27.168.42.168.672 0 1.568-.672 2.688-2.016l.7.532c-.411.56-.859 1.102-1.344 1.624-.467.523-.98.952-1.54 1.288-.542.336-1.148.504-1.82.504-.374 0-.719-.121-1.036-.364-.318-.242-.476-.597-.476-1.064zm4.116-16.38c-.448 0-.812-.14-1.092-.42-.28-.298-.42-.709-.42-1.232 0-.466.168-.868.504-1.204.336-.354.718-.532 1.148-.532.448 0 .812.15 1.092.448.28.28.42.672.42 1.176 0 .448-.168.859-.504 1.232-.336.355-.719.532-1.148.532zm4.695 14.336 1.876-8.792h-2.856l.196-1.12 3.024-.28 1.316-3.752h1.428l-.812 3.78h3.556l-.224 1.512-3.612-.112-1.708 8.036c-.168.747-.252 1.288-.252 1.624 0 .206.065.364.196.476.149.112.308.168.476.168.709 0 1.624-.672 2.744-2.016l.7.532c-.392.56-.84 1.102-1.344 1.624-.504.523-1.045.952-1.624 1.288s-1.185.504-1.82.504c-.411 0-.775-.121-1.092-.364-.299-.242-.448-.597-.448-1.064 0-.205.019-.448.056-.728.037-.298.112-.737.224-1.316zm17.951 3.472c-.373 0-.719-.121-1.036-.364-.299-.242-.448-.606-.448-1.092 0-.186.009-.401.028-.644.037-.261.103-.625.196-1.092-1.083.99-2.072 1.774-2.968 2.352-.896.56-1.773.84-2.632.84-.523 0-.98-.149-1.372-.448-.373-.298-.56-.83-.56-1.596 0-.522.065-1.101.196-1.736.149-.653.28-1.25.392-1.792l1.288-6.048-2.772-.14.112-.84 4.872-1.4.364.28-1.764 7.924c-.131.579-.233 1.092-.308 1.54-.075.43-.112.803-.112 1.12 0 .803.355 1.204 1.064 1.204.597 0 1.223-.186 1.876-.56.653-.392 1.512-1.008 2.576-1.848l.756-3.724c.187-.896.364-1.792.532-2.688.187-.896.345-1.792.476-2.688l1.82-.56.364.28-1.988 9.576c-.075.355-.14.672-.196.952-.037.28-.056.495-.056.644 0 .187.065.336.196.448s.28.168.448.168c.373 0 .784-.168 1.232-.504s.961-.84 1.54-1.512l.672.532c-.429.56-.887 1.102-1.372 1.624-.485.523-1.008.952-1.568 1.288s-1.176.504-1.848.504zm7.931-4.452c0 .859.15 1.494.448 1.904.318.411.728.616 1.232.616.486 0 1.046-.196 1.68-.588.635-.392 1.41-1.092 2.324-2.1l1.512-7c-.261-.149-.541-.27-.84-.364-.28-.112-.569-.168-.868-.168-.448 0-.952.14-1.512.42-.541.28-1.064.682-1.568 1.204-.672.691-1.241 1.568-1.708 2.632-.466 1.064-.7 2.212-.7 3.444zm6.72 4.452c-.373 0-.709-.13-1.008-.392-.298-.261-.448-.672-.448-1.232 0-.541.038-1.036.112-1.484-.802.915-1.633 1.662-2.492 2.24-.84.579-1.642.868-2.408.868-.672 0-1.288-.261-1.848-.784-.541-.522-.812-1.362-.812-2.52 0-.97.178-1.96.532-2.968.374-1.008.859-1.969 1.456-2.884.616-.933 1.298-1.764 2.044-2.492.766-.728 1.54-1.297 2.324-1.708.803-.429 1.568-.644 2.296-.644.318 0 .607.066.868.196.262.131.504.318.728.56l1.288-1.036.504.252-2.24 9.884c-.168.691-.252 1.223-.252 1.596 0 .187.066.336.196.448.131.112.29.168.476.168.355 0 .775-.186 1.26-.56.504-.373.999-.858 1.484-1.456l.672.532c-.354.542-.784 1.074-1.288 1.596-.504.523-1.045.962-1.624 1.316-.578.336-1.185.504-1.82.504zm8.105 0c-.429 0-.802-.13-1.12-.392-.298-.28-.448-.69-.448-1.232 0-.205.019-.448.056-.728.056-.28.122-.662.196-1.148l2.016-10.22c.168-.821.327-1.642.476-2.464.15-.84.29-1.68.42-2.52l-2.632-.168.112-.812 4.816-1.4.308.224-3.36 16.66c-.168.747-.252 1.288-.252 1.624 0 .206.066.364.196.476.15.112.318.168.504.168.299 0 .672-.177 1.12-.532.467-.354.98-.849 1.54-1.484l.644.532c-.392.542-.821 1.083-1.288 1.624-.448.523-.942.952-1.484 1.288-.541.336-1.148.504-1.82.504zm-64.297 38c-1.4 0-2.641-.233-3.724-.7-1.064-.466-1.895-1.148-2.492-2.044s-.896-1.978-.896-3.248c0-.877.168-1.736.504-2.576.355-.84.868-1.577 1.54-2.212.691-.653 1.531-1.11 2.52-1.372-.429-.69-.644-1.446-.644-2.268 0-.896.233-1.736.7-2.52s1.129-1.409 1.988-1.876c.877-.485 1.923-.728 3.136-.728.877 0 1.671.196 2.38.588.728.374 1.185.971 1.372 1.792-.075.243-.187.448-.336.616s-.392.252-.728.252c-.653 0-1.167-.401-1.54-1.204l-.448-1.036c-.112-.018-.224-.028-.336-.028s-.233 0-.364 0c-1.288 0-2.296.355-3.024 1.064-.728.71-1.092 1.699-1.092 2.968 0 .784.187 1.503.56 2.156h.168c.821 0 1.475.112 1.96.336s.728.551.728.98c0 .336-.103.598-.308.784-.205.168-.467.252-.784.252-.523 0-1.017-.112-1.484-.336s-.877-.522-1.232-.896c-1.139.43-1.951 1.092-2.436 1.988-.467.878-.7 1.802-.7 2.772 0 1.008.243 1.858.728 2.548.504.691 1.157 1.214 1.96 1.568.821.355 1.689.532 2.604.532 1.456 0 2.632-.28 3.528-.84.896-.578 1.344-1.325 1.344-2.24 0-.765-.243-1.353-.728-1.764-.485-.41-1.279-.653-2.38-.728l.196-1.344c1.325-.018 2.436-.224 3.332-.616s1.643-.98 2.24-1.764c.616-.784 1.148-1.764 1.596-2.94l1.876.84c-.691 1.606-1.577 2.8-2.66 3.584-1.064.784-2.399 1.288-4.004 1.512.672.299 1.139.747 1.4 1.344.28.579.42 1.167.42 1.764 0 1.008-.271 1.895-.812 2.66-.523.747-1.269 1.335-2.24 1.764-.952.411-2.081.616-3.388.616zm19.06-.14-.28-.224 2.716-13.356c.168-.821.327-1.642.476-2.464.168-.84.317-1.68.448-2.52l-2.66-.168.112-.812 4.844-1.4.28.224-2.016 9.968c.896-.877 1.867-1.614 2.912-2.212 1.064-.597 2.016-.896 2.856-.896 1.213 0 1.82.644 1.82 1.932 0 .448-.056.906-.168 1.372-.093.448-.196.906-.308 1.372l-1.26 5.18c-.093.392-.177.728-.252 1.008-.075.262-.112.467-.112.616 0 .392.187.588.56.588.336 0 .747-.177 1.232-.532.504-.354 1.008-.849 1.512-1.484l.672.532c-.355.542-.793 1.083-1.316 1.624-.504.523-1.055.952-1.652 1.288s-1.213.504-1.848.504c-.448 0-.803-.112-1.064-.336-.243-.224-.364-.513-.364-.868 0-.317.037-.625.112-.924.093-.317.205-.765.336-1.344l1.204-4.928c.112-.485.215-.942.308-1.372.093-.429.14-.784.14-1.064 0-.485-.084-.821-.252-1.008-.168-.186-.411-.28-.728-.28-.504 0-1.139.206-1.904.616-.765.392-1.661.999-2.688 1.82l-.728 3.444c-.187.971-.373 1.951-.56 2.94-.187.971-.355 1.951-.504 2.94zm16.658-4.312c0 .859.15 1.494.448 1.904.318.411.728.616 1.232.616.486 0 1.046-.196 1.68-.588.635-.392 1.41-1.092 2.324-2.1l1.512-7c-.261-.149-.541-.27-.84-.364-.28-.112-.569-.168-.868-.168-.448 0-.952.14-1.512.42-.541.28-1.064.682-1.568 1.204-.672.691-1.241 1.568-1.708 2.632-.466 1.064-.7 2.212-.7 3.444zm6.72 4.452c-.373 0-.709-.13-1.008-.392-.298-.261-.448-.672-.448-1.232 0-.541.038-1.036.112-1.484-.802.915-1.633 1.662-2.492 2.24-.84.579-1.642.868-2.408.868-.672 0-1.288-.261-1.848-.784-.541-.522-.812-1.362-.812-2.52 0-.97.178-1.96.532-2.968.374-1.008.859-1.969 1.456-2.884.616-.933 1.298-1.764 2.044-2.492.766-.728 1.54-1.297 2.324-1.708.803-.429 1.568-.644 2.296-.644.318 0 .607.066.868.196.262.131.504.318.728.56l1.288-1.036.504.252-2.24 9.884c-.168.691-.252 1.223-.252 1.596 0 .187.066.336.196.448.131.112.29.168.476.168.355 0 .775-.186 1.26-.56.504-.373.999-.858 1.484-1.456l.672.532c-.354.542-.784 1.074-1.288 1.596-.504.523-1.045.962-1.624 1.316-.578.336-1.185.504-1.82.504zm9.029-3.276c0 1.008.467 1.512 1.4 1.512 1.139 0 2.24-.504 3.304-1.512.766-.728 1.372-1.652 1.82-2.772.467-1.12.7-2.249.7-3.388 0-.896-.158-1.568-.476-2.016-.298-.448-.709-.672-1.232-.672-.597 0-1.278.262-2.044.784-.765.523-1.596 1.27-2.492 2.24l-.42 1.932c-.149.71-.27 1.288-.364 1.736-.074.43-.13.812-.168 1.148-.018.318-.028.654-.028 1.008zm.168 3.276c-.634 0-1.185-.205-1.652-.616-.448-.41-.672-.98-.672-1.708 0-.597.056-1.241.168-1.932.131-.709.29-1.53.476-2.464l2.38-11.956-2.772-.196.14-.812 4.844-1.4.308.224-2.156 10.444c.859-1.12 1.792-1.997 2.8-2.632 1.008-.634 1.923-.952 2.744-.952.691 0 1.288.262 1.792.784.504.504.756 1.391.756 2.66 0 .952-.168 1.923-.504 2.912-.336.99-.802 1.942-1.4 2.856-.597.896-1.288 1.708-2.072 2.436s-1.614 1.307-2.492 1.736c-.877.411-1.773.616-2.688.616zm11.624-1.428c0-.205.019-.448.056-.728.038-.298.122-.737.252-1.316l1.68-8.12-2.772-.168.112-.812 4.76-1.428.364.28-1.988 9.576c-.074.355-.14.672-.196.952-.037.28-.056.495-.056.644 0 .187.066.336.196.448.131.112.271.168.42.168.672 0 1.568-.672 2.688-2.016l.7.532c-.41.56-.858 1.102-1.344 1.624-.466.523-.98.952-1.54 1.288-.541.336-1.148.504-1.82.504-.373 0-.718-.121-1.036-.364-.317-.242-.476-.597-.476-1.064zm4.116-16.38c-.448 0-.812-.14-1.092-.42-.28-.298-.42-.709-.42-1.232 0-.466.168-.868.504-1.204.336-.354.719-.532 1.148-.532.448 0 .812.15 1.092.448.28.28.42.672.42 1.176 0 .448-.168.859-.504 1.232-.336.355-.718.532-1.148.532zm4.696 14.336 1.876-8.792h-2.856l.196-1.12 3.024-.28 1.316-3.752h1.428l-.812 3.78h3.556l-.224 1.512-3.612-.112-1.708 8.036c-.168.747-.252 1.288-.252 1.624 0 .206.065.364.196.476.149.112.308.168.476.168.709 0 1.624-.672 2.744-2.016l.7.532c-.392.56-.84 1.102-1.344 1.624-.504.523-1.046.952-1.624 1.288-.579.336-1.186.504-1.82.504-.411 0-.775-.121-1.092-.364-.299-.242-.448-.597-.448-1.064 0-.205.018-.448.056-.728.037-.298.112-.737.224-1.316z"/><path d="m330.193 631.748.196-.952 2.408-.392 3.528-16.632-2.772-.168.112-.812 4.76-1.428.364.28-.672 3.136c.878-1.064 1.82-1.895 2.828-2.492 1.008-.616 1.914-.924 2.716-.924.691 0 1.288.261 1.792.784.504.504.756 1.391.756 2.66 0 .952-.168 1.923-.504 2.912s-.793 1.941-1.372 2.856c-.578.896-1.241 1.708-1.988 2.436-.746.728-1.53 1.307-2.352 1.736-.821.411-1.633.616-2.436.616-.578 0-1.11-.14-1.596-.42-.242 1.195-.448 2.221-.616 3.08s-.308 1.643-.42 2.352l2.576.42-.224.952zm12.152-18.508c-.578 0-1.26.252-2.044.756-.765.504-1.586 1.223-2.464 2.156l-1.4 6.524c.374.28.738.485 1.092.616.374.112.719.168 1.036.168.71 0 1.372-.196 1.988-.588.635-.392 1.195-.905 1.68-1.54.56-.747.999-1.587 1.316-2.52.336-.952.504-1.913.504-2.884 0-1.792-.569-2.688-1.708-2.688zm7.245 7.672c0 .859.149 1.493.448 1.904.317.411.728.616 1.232.616.485 0 1.045-.196 1.68-.588.634-.392 1.409-1.092 2.324-2.1l1.512-7c-.262-.149-.542-.271-.84-.364-.28-.112-.57-.168-.868-.168-.448 0-.952.14-1.512.42-.542.28-1.064.681-1.568 1.204-.672.691-1.242 1.568-1.708 2.632-.467 1.064-.7 2.212-.7 3.444zm6.72 4.452c-.374 0-.71-.131-1.008-.392-.299-.261-.448-.672-.448-1.232 0-.541.037-1.036.112-1.484-.803.915-1.634 1.661-2.492 2.24-.84.579-1.643.868-2.408.868-.672 0-1.288-.261-1.848-.784-.542-.523-.812-1.363-.812-2.52 0-.971.177-1.96.532-2.968.373-1.008.858-1.969 1.456-2.884.616-.933 1.297-1.764 2.044-2.492.765-.728 1.54-1.297 2.324-1.708.802-.429 1.568-.644 2.296-.644.317 0 .606.065.868.196.261.131.504.317.728.56l1.288-1.036.504.252-2.24 9.884c-.168.691-.252 1.223-.252 1.596 0 .187.065.336.196.448.13.112.289.168.476.168.354 0 .774-.187 1.26-.56.504-.373.998-.859 1.484-1.456l.672.532c-.355.541-.784 1.073-1.288 1.596s-1.046.961-1.624 1.316c-.579.336-1.186.504-1.82.504zm13.54-3.976c0 1.157-.439 2.109-1.316 2.856-.859.747-1.998 1.12-3.416 1.12-1.083 0-1.914-.252-2.492-.756-.56-.504-.887-1.176-.98-2.016.074-.243.205-.429.392-.56.205-.149.42-.224.644-.224.41 0 .709.112.896.336.205.205.354.504.448.896l.308 1.204c.056.019.112.028.168.028h.224c.97 0 1.726-.215 2.268-.644.541-.429.812-1.008.812-1.736 0-.448-.103-.877-.308-1.288-.206-.411-.71-.905-1.512-1.484-.691-.541-1.279-1.092-1.764-1.652-.467-.579-.7-1.307-.7-2.184 0-.728.186-1.391.56-1.988.373-.597.886-1.064 1.54-1.4.672-.355 1.456-.532 2.352-.532.821 0 1.53.187 2.128.56.597.355.998.989 1.204 1.904-.168.523-.523.784-1.064.784-.654 0-1.13-.439-1.428-1.316l-.252-.812c-.056-.019-.122-.028-.196-.028-.056 0-.122 0-.196 0-.971 0-1.662.224-2.072.672-.392.448-.588.989-.588 1.624 0 .579.14 1.064.42 1.456.298.373.849.859 1.652 1.456.84.635 1.428 1.213 1.764 1.736.336.504.504 1.167.504 1.988zm10.09 0c0 1.157-.439 2.109-1.316 2.856-.859.747-1.998 1.12-3.416 1.12-1.083 0-1.914-.252-2.492-.756-.56-.504-.887-1.176-.98-2.016.074-.243.205-.429.392-.56.205-.149.42-.224.644-.224.41 0 .709.112.896.336.205.205.354.504.448.896l.308 1.204c.056.019.112.028.168.028h.224c.97 0 1.726-.215 2.268-.644.541-.429.812-1.008.812-1.736 0-.448-.103-.877-.308-1.288-.206-.411-.71-.905-1.512-1.484-.691-.541-1.279-1.092-1.764-1.652-.467-.579-.7-1.307-.7-2.184 0-.728.186-1.391.56-1.988.373-.597.886-1.064 1.54-1.4.672-.355 1.456-.532 2.352-.532.821 0 1.53.187 2.128.56.597.355.998.989 1.204 1.904-.168.523-.523.784-1.064.784-.654 0-1.13-.439-1.428-1.316l-.252-.812c-.056-.019-.122-.028-.196-.028-.056 0-.122 0-.196 0-.971 0-1.662.224-2.072.672-.392.448-.588.989-.588 1.624 0 .579.14 1.064.42 1.456.298.373.849.859 1.652 1.456.84.635 1.428 1.213 1.764 1.736.336.504.504 1.167.504 1.988zm3.397 2.548c0-.205.019-.448.056-.728.038-.299.122-.737.252-1.316l1.68-8.12-2.772-.168.112-.812 4.76-1.428.364.28-1.988 9.576c-.074.355-.14.672-.196.952-.037.28-.056.495-.056.644 0 .187.066.336.196.448.131.112.271.168.42.168.672 0 1.568-.672 2.688-2.016l.7.532c-.41.56-.858 1.101-1.344 1.624-.466.523-.98.952-1.54 1.288-.541.336-1.148.504-1.82.504-.373 0-.718-.121-1.036-.364-.317-.243-.476-.597-.476-1.064zm4.116-16.38c-.448 0-.812-.14-1.092-.42-.28-.299-.42-.709-.42-1.232 0-.467.168-.868.504-1.204.336-.355.719-.532 1.148-.532.448 0 .812.149 1.092.448.28.28.42.672.42 1.176 0 .448-.168.859-.504 1.232-.336.355-.718.532-1.148.532zm8.084 17.808c-.859 0-1.643-.187-2.352-.56-.71-.373-1.279-.924-1.708-1.652-.411-.747-.616-1.652-.616-2.716 0-1.269.186-2.445.56-3.528.392-1.101.924-2.063 1.596-2.884.672-.84 1.446-1.493 2.324-1.96.896-.467 1.838-.7 2.828-.7 1.325 0 2.408.42 3.248 1.26.858.84 1.288 2.053 1.288 3.64 0 1.213-.187 2.371-.56 3.472-.374 1.083-.896 2.053-1.568 2.912-.654.84-1.41 1.503-2.268 1.988-.859.485-1.783.728-2.772.728zm.308-1.12c.69 0 1.316-.215 1.876-.644s1.036-1.008 1.428-1.736c.41-.728.728-1.54.952-2.436s.336-1.811.336-2.744c0-1.512-.243-2.585-.728-3.22-.467-.653-1.083-.98-1.848-.98-.878 0-1.68.345-2.408 1.036-.71.691-1.27 1.615-1.68 2.772-.411 1.139-.616 2.408-.616 3.808 0 1.475.252 2.539.756 3.192.504.635 1.148.952 1.932.952zm11.46.756-1.876.224-.28-.224 2.38-11.228-2.772-.168.112-.812 4.76-1.428.364.28-.588 2.884c.933-.877 1.922-1.624 2.968-2.24 1.064-.616 2.025-.924 2.884-.924 1.194 0 1.792.644 1.792 1.932 0 .448-.047.905-.14 1.372-.094.448-.196.905-.308 1.372l-1.26 5.18c-.094.392-.178.728-.252 1.008-.075.261-.112.467-.112.616 0 .392.177.588.532.588.354 0 .774-.177 1.26-.532.504-.355 1.008-.849 1.512-1.484l.672.532c-.355.541-.794 1.083-1.316 1.624-.504.523-1.055.952-1.652 1.288-.598.336-1.223.504-1.876.504-.43 0-.775-.112-1.036-.336-.243-.224-.364-.513-.364-.868 0-.317.037-.625.112-.924.093-.317.205-.765.336-1.344l1.204-4.928c.112-.485.214-.943.308-1.372.093-.429.14-.784.14-1.064 0-.485-.084-.821-.252-1.008s-.411-.28-.728-.28c-.504 0-1.148.205-1.932.616s-1.69 1.036-2.716 1.876l-.756 3.388c-.206.971-.402 1.951-.588 2.94-.168.971-.346 1.951-.532 2.94zm-70.779 38.364c-1.4 0-2.642-.233-3.724-.7-1.064-.467-1.895-1.148-2.492-2.044-.598-.896-.896-1.979-.896-3.248 0-.877.168-1.736.504-2.576.354-.84.868-1.577 1.54-2.212.69-.653 1.53-1.111 2.52-1.372-.43-.691-.644-1.447-.644-2.268 0-.896.233-1.736.7-2.52.466-.784 1.129-1.409 1.988-1.876.877-.485 1.922-.728 3.136-.728.877 0 1.67.196 2.38.588.728.373 1.185.971 1.372 1.792-.075.243-.187.448-.336.616-.15.168-.392.252-.728.252-.654 0-1.167-.401-1.54-1.204l-.448-1.036c-.112-.019-.224-.028-.336-.028s-.234 0-.364 0c-1.288 0-2.296.355-3.024 1.064s-1.092 1.699-1.092 2.968c0 .784.186 1.503.56 2.156h.168c.821 0 1.474.112 1.96.336.485.224.728.551.728.98 0 .336-.103.597-.308.784-.206.168-.467.252-.784.252-.523 0-1.018-.112-1.484-.336-.467-.224-.878-.523-1.232-.896-1.139.429-1.951 1.092-2.436 1.988-.467.877-.7 1.801-.7 2.772 0 1.008.242 1.857.728 2.548.504.691 1.157 1.213 1.96 1.568.821.355 1.689.532 2.604.532 1.456 0 2.632-.28 3.528-.84.896-.579 1.344-1.325 1.344-2.24 0-.765-.243-1.353-.728-1.764-.486-.411-1.279-.653-2.38-.728l.196-1.344c1.325-.019 2.436-.224 3.332-.616s1.642-.98 2.24-1.764c.616-.784 1.148-1.764 1.596-2.94l1.876.84c-.691 1.605-1.578 2.8-2.66 3.584-1.064.784-2.399 1.288-4.004 1.512.672.299 1.138.747 1.4 1.344.28.579.42 1.167.42 1.764 0 1.008-.271 1.895-.812 2.66-.523.747-1.27 1.335-2.24 1.764-.952.411-2.082.616-3.388.616zm19.059-.14-.28-.224 2.716-13.356c.168-.821.327-1.643.476-2.464.168-.84.318-1.68.448-2.52l-2.66-.168.112-.812 4.844-1.4.28.224-2.016 9.968c.896-.877 1.867-1.615 2.912-2.212 1.064-.597 2.016-.896 2.856-.896 1.214 0 1.82.644 1.82 1.932 0 .448-.056.905-.168 1.372-.093.448-.196.905-.308 1.372l-1.26 5.18c-.093.392-.177.728-.252 1.008-.074.261-.112.467-.112.616 0 .392.187.588.56.588.336 0 .747-.177 1.232-.532.504-.355 1.008-.849 1.512-1.484l.672.532c-.354.541-.793 1.083-1.316 1.624-.504.523-1.054.952-1.652 1.288-.597.336-1.213.504-1.848.504-.448 0-.802-.112-1.064-.336-.242-.224-.364-.513-.364-.868 0-.317.038-.625.112-.924.094-.317.206-.765.336-1.344l1.204-4.928c.112-.485.215-.943.308-1.372.094-.429.14-.784.14-1.064 0-.485-.084-.821-.252-1.008s-.41-.28-.728-.28c-.504 0-1.138.205-1.904.616-.765.392-1.661.999-2.688 1.82l-.728 3.444c-.186.971-.373 1.951-.56 2.94-.186.971-.354 1.951-.504 2.94zm19.403.14c-.859 0-1.643-.187-2.352-.56s-1.279-.924-1.708-1.652c-.411-.747-.616-1.652-.616-2.716 0-1.269.187-2.445.56-3.528.392-1.101.924-2.063 1.596-2.884.672-.84 1.447-1.493 2.324-1.96.896-.467 1.839-.7 2.828-.7 1.325 0 2.408.42 3.248 1.26.859.84 1.288 2.053 1.288 3.64 0 1.213-.187 2.371-.56 3.472-.373 1.083-.896 2.053-1.568 2.912-.653.84-1.409 1.503-2.268 1.988s-1.783.728-2.772.728zm.308-1.12c.691 0 1.316-.215 1.876-.644s1.036-1.008 1.428-1.736c.411-.728.728-1.54.952-2.436s.336-1.811.336-2.744c0-1.512-.243-2.585-.728-3.22-.467-.653-1.083-.98-1.848-.98-.877 0-1.68.345-2.408 1.036-.709.691-1.269 1.615-1.68 2.772-.411 1.139-.616 2.408-.616 3.808 0 1.475.252 2.539.756 3.192.504.635 1.148.952 1.932.952zm11.33-2.156c0 1.008.466 1.512 1.4 1.512 1.138 0 2.24-.504 3.304-1.512.765-.728 1.372-1.652 1.82-2.772.466-1.12.7-2.249.7-3.388 0-.896-.159-1.568-.476-2.016-.299-.448-.71-.672-1.232-.672-.598 0-1.279.261-2.044.784-.766.523-1.596 1.269-2.492 2.24l-.42 1.932c-.15.709-.271 1.288-.364 1.736-.075.429-.131.812-.168 1.148-.019.317-.028.653-.028 1.008zm.168 3.276c-.635 0-1.186-.205-1.652-.616-.448-.411-.672-.98-.672-1.708 0-.597.056-1.241.168-1.932.13-.709.289-1.531.476-2.464l2.38-11.956-2.772-.196.14-.812 4.844-1.4.308.224-2.156 10.444c.858-1.12 1.792-1.997 2.8-2.632s1.922-.952 2.744-.952c.69 0 1.288.261 1.792.784.504.504.756 1.391.756 2.66 0 .952-.168 1.923-.504 2.912s-.803 1.941-1.4 2.856c-.598.896-1.288 1.708-2.072 2.436s-1.615 1.307-2.492 1.736c-.878.411-1.774.616-2.688.616zm13.668-3.276c0 1.008.466 1.512 1.4 1.512 1.138 0 2.24-.504 3.304-1.512.765-.728 1.372-1.652 1.82-2.772.466-1.12.7-2.249.7-3.388 0-.896-.159-1.568-.476-2.016-.299-.448-.71-.672-1.232-.672-.598 0-1.279.261-2.044.784-.766.523-1.596 1.269-2.492 2.24l-.42 1.932c-.15.709-.271 1.288-.364 1.736-.075.429-.131.812-.168 1.148-.019.317-.028.653-.028 1.008zm.168 3.276c-.635 0-1.186-.205-1.652-.616-.448-.411-.672-.98-.672-1.708 0-.597.056-1.241.168-1.932.13-.709.289-1.531.476-2.464l2.38-11.956-2.772-.196.14-.812 4.844-1.4.308.224-2.156 10.444c.858-1.12 1.792-1.997 2.8-2.632s1.922-.952 2.744-.952c.69 0 1.288.261 1.792.784.504.504.756 1.391.756 2.66 0 .952-.168 1.923-.504 2.912s-.803 1.941-1.4 2.856c-.598.896-1.288 1.708-2.072 2.436s-1.615 1.307-2.492 1.736c-.878.411-1.774.616-2.688.616zm6.807 4.732c.075-.411.252-.728.532-.952.262-.205.588-.308.98-.308.411 0 .784.084 1.12.252.355.187.738.429 1.148.728l.084.056c.915-.579 1.755-1.26 2.52-2.044.262-.261.514-.532.756-.812.243-.28.486-.569.728-.868-.074-1.101-.168-2.081-.28-2.94-.093-.877-.205-1.783-.336-2.716-.112-.933-.252-2.016-.42-3.248-.13-1.195-.252-2.063-.364-2.604-.093-.56-.196-.924-.308-1.092s-.252-.252-.42-.252c-.242 0-.494.121-.756.364-.242.224-.616.719-1.12 1.484l-.644-.448c.56-1.195 1.148-2.044 1.764-2.548.616-.523 1.214-.784 1.792-.784.355 0 .654.093.896.28.262.187.476.551.644 1.092.187.523.336 1.307.448 2.352.168 1.624.299 3.155.392 4.592.112 1.437.196 2.809.252 4.116.654-1.195 1.204-2.249 1.652-3.164.467-.915.868-1.811 1.204-2.688.355-.896.682-1.876.98-2.94.318-1.083.579-1.895.784-2.436.224-.541.439-.905.644-1.092.206-.187.439-.28.7-.28.318 0 .57.093.756.28.187.168.28.392.28.672 0 .355-.046.681-.14.98-.093.299-.28.728-.56 1.288-.298.597-.616 1.223-.952 1.876-.317.635-.746 1.428-1.288 2.38-.522.915-1.092 1.913-1.708 2.996-.597 1.064-1.278 2.175-2.044 3.332-.354.541-.737 1.101-1.148 1.68-.41.597-.905 1.213-1.484 1.848-.914.989-1.792 1.764-2.632 2.324-.821.579-1.642.868-2.464.868-.616 0-1.092-.159-1.428-.476-.336-.299-.522-.681-.56-1.148z"/><path d="m573.658 353.902c-1.232 0-2.24-.429-3.024-1.288-.784-.877-1.176-2.193-1.176-3.948 0-1.176.205-2.286.616-3.332.411-1.064.961-1.997 1.652-2.8.691-.821 1.465-1.465 2.324-1.932.859-.466 1.727-.7 2.604-.7.859 0 1.54.196 2.044.588.504.374.831.859.98 1.456-.056.355-.205.607-.448.756-.224.15-.467.224-.728.224-.299 0-.588-.093-.868-.28-.261-.205-.523-.448-.784-.728l-.84-.952c-.803.28-1.54.784-2.212 1.512s-1.213 1.606-1.624 2.632c-.411 1.008-.616 2.091-.616 3.248 0 1.214.289 2.119.868 2.716.579.598 1.325.896 2.24.896.747 0 1.4-.224 1.96-.672.579-.448 1.064-.905 1.456-1.372l.644.504c-.56.971-1.307 1.792-2.24 2.464s-1.876 1.008-2.828 1.008zm11.605 0c-.859 0-1.643-.186-2.352-.56-.709-.373-1.279-.924-1.708-1.652-.411-.746-.616-1.652-.616-2.716 0-1.269.187-2.445.56-3.528.392-1.101.924-2.062 1.596-2.884.672-.84 1.447-1.493 2.324-1.96.896-.466 1.839-.7 2.828-.7 1.325 0 2.408.42 3.248 1.26.859.84 1.288 2.054 1.288 3.64 0 1.214-.187 2.371-.56 3.472-.373 1.083-.896 2.054-1.568 2.912-.653.84-1.409 1.503-2.268 1.988-.859.486-1.783.728-2.772.728zm.308-1.12c.691 0 1.316-.214 1.876-.644.56-.429 1.036-1.008 1.428-1.736.411-.728.728-1.54.952-2.436s.336-1.81.336-2.744c0-1.512-.243-2.585-.728-3.22-.467-.653-1.083-.98-1.848-.98-.877 0-1.68.346-2.408 1.036-.709.691-1.269 1.615-1.68 2.772-.411 1.139-.616 2.408-.616 3.808 0 1.475.252 2.539.756 3.192.504.635 1.148.952 1.932.952zm25.432 1.12c-.448 0-.803-.112-1.064-.336-.243-.224-.364-.513-.364-.868 0-.317.037-.625.112-.924.093-.317.205-.765.336-1.344l1.204-4.928c.112-.485.215-.942.308-1.372.093-.429.14-.784.14-1.064 0-.485-.084-.821-.252-1.008-.168-.186-.411-.28-.728-.28-.915 0-2.361.822-4.34 2.464l-.728 3.416c-.224.971-.429 1.951-.616 2.94-.187.971-.373 1.951-.56 2.94l-1.82.224-.28-.224 1.932-9.128c.037-.242.084-.485.14-.728.056-.242.084-.476.084-.7 0-.448-.084-.756-.252-.924-.168-.186-.411-.28-.728-.28-.504 0-1.148.206-1.932.616-.765.411-1.661 1.036-2.688 1.876l-.756 3.388c-.205.971-.401 1.951-.588 2.94-.168.971-.345 1.951-.532 2.94l-1.876.224-.28-.224 2.38-11.228-2.772-.168.112-.812 4.76-1.428.364.28-.588 2.884c.915-.877 1.904-1.624 2.968-2.24s2.025-.924 2.884-.924c1.176 0 1.764.644 1.764 1.932 0 .187-.019.383-.056.588-.019.187-.047.383-.084.588.877-.858 1.811-1.586 2.8-2.184 1.008-.616 1.932-.924 2.772-.924 1.176 0 1.764.644 1.764 1.932 0 .448-.056.906-.168 1.372-.093.448-.196.906-.308 1.372l-1.26 5.18c-.093.392-.177.728-.252 1.008-.075.262-.112.467-.112.616 0 .187.056.336.168.448.112.094.243.14.392.14.709 0 1.624-.672 2.744-2.016l.672.532c-.392.56-.84 1.102-1.344 1.624-.485.523-1.017.952-1.596 1.288s-1.204.504-1.876.504zm22.914 0c-.448 0-.803-.112-1.064-.336-.243-.224-.364-.513-.364-.868 0-.317.037-.625.112-.924.093-.317.205-.765.336-1.344l1.204-4.928c.112-.485.215-.942.308-1.372.093-.429.14-.784.14-1.064 0-.485-.084-.821-.252-1.008-.168-.186-.411-.28-.728-.28-.915 0-2.361.822-4.34 2.464l-.728 3.416c-.224.971-.429 1.951-.616 2.94-.187.971-.373 1.951-.56 2.94l-1.82.224-.28-.224 1.932-9.128c.037-.242.084-.485.14-.728.056-.242.084-.476.084-.7 0-.448-.084-.756-.252-.924-.168-.186-.411-.28-.728-.28-.504 0-1.148.206-1.932.616-.765.411-1.661 1.036-2.688 1.876l-.756 3.388c-.205.971-.401 1.951-.588 2.94-.168.971-.345 1.951-.532 2.94l-1.876.224-.28-.224 2.38-11.228-2.772-.168.112-.812 4.76-1.428.364.28-.588 2.884c.915-.877 1.904-1.624 2.968-2.24s2.025-.924 2.884-.924c1.176 0 1.764.644 1.764 1.932 0 .187-.019.383-.056.588-.019.187-.047.383-.084.588.877-.858 1.811-1.586 2.8-2.184 1.008-.616 1.932-.924 2.772-.924 1.176 0 1.764.644 1.764 1.932 0 .448-.056.906-.168 1.372-.093.448-.196.906-.308 1.372l-1.26 5.18c-.093.392-.177.728-.252 1.008-.075.262-.112.467-.112.616 0 .187.056.336.168.448.112.094.243.14.392.14.709 0 1.624-.672 2.744-2.016l.672.532c-.392.56-.84 1.102-1.344 1.624-.485.523-1.017.952-1.596 1.288s-1.204.504-1.876.504zm16.194 0c-.373 0-.719-.121-1.036-.364-.299-.242-.448-.606-.448-1.092 0-.186.009-.401.028-.644.037-.261.103-.625.196-1.092-1.083.99-2.072 1.774-2.968 2.352-.896.56-1.773.84-2.632.84-.523 0-.98-.149-1.372-.448-.373-.298-.56-.83-.56-1.596 0-.522.065-1.101.196-1.736.149-.653.28-1.25.392-1.792l1.288-6.048-2.772-.14.112-.84 4.872-1.4.364.28-1.764 7.924c-.131.579-.233 1.092-.308 1.54-.075.43-.112.803-.112 1.12 0 .803.355 1.204 1.064 1.204.597 0 1.223-.186 1.876-.56.653-.392 1.512-1.008 2.576-1.848l.756-3.724c.187-.896.364-1.792.532-2.688.187-.896.345-1.792.476-2.688l1.82-.56.364.28-1.988 9.576c-.075.355-.14.672-.196.952-.037.28-.056.495-.056.644 0 .187.065.336.196.448s.28.168.448.168c.373 0 .784-.168 1.232-.504s.961-.84 1.54-1.512l.672.532c-.429.56-.887 1.102-1.372 1.624-.485.523-1.008.952-1.568 1.288s-1.176.504-1.848.504zm8.771-.364-1.876.224-.28-.224 2.38-11.228-2.772-.168.112-.812 4.76-1.428.364.28-.588 2.884c.934-.877 1.923-1.624 2.968-2.24 1.064-.616 2.026-.924 2.884-.924 1.195 0 1.792.644 1.792 1.932 0 .448-.046.906-.14 1.372-.093.448-.196.906-.308 1.372l-1.26 5.18c-.093.392-.177.728-.252 1.008-.074.262-.112.467-.112.616 0 .392.178.588.532.588.355 0 .775-.177 1.26-.532.504-.354 1.008-.849 1.512-1.484l.672.532c-.354.542-.793 1.083-1.316 1.624-.504.523-1.054.952-1.652 1.288-.597.336-1.222.504-1.876.504-.429 0-.774-.112-1.036-.336-.242-.224-.364-.513-.364-.868 0-.317.038-.625.112-.924.094-.317.206-.765.336-1.344l1.204-4.928c.112-.485.215-.942.308-1.372.094-.429.14-.784.14-1.064 0-.485-.084-.821-.252-1.008-.168-.186-.41-.28-.728-.28-.504 0-1.148.206-1.932.616-.784.411-1.689 1.036-2.716 1.876l-.756 3.388c-.205.971-.401 1.951-.588 2.94-.168.971-.345 1.951-.532 2.94zm14.014-1.064c0-.205.018-.448.056-.728.037-.298.121-.737.252-1.316l1.68-8.12-2.772-.168.112-.812 4.76-1.428.364.28-1.988 9.576c-.075.355-.14.672-.196.952-.038.28-.056.495-.056.644 0 .187.065.336.196.448.13.112.27.168.42.168.672 0 1.568-.672 2.688-2.016l.7.532c-.411.56-.859 1.102-1.344 1.624-.467.523-.98.952-1.54 1.288-.542.336-1.148.504-1.82.504-.374 0-.719-.121-1.036-.364-.318-.242-.476-.597-.476-1.064zm4.116-16.38c-.448 0-.812-.14-1.092-.42-.28-.298-.42-.709-.42-1.232 0-.466.168-.868.504-1.204.336-.354.718-.532 1.148-.532.448 0 .812.15 1.092.448.28.28.42.672.42 1.176 0 .448-.168.859-.504 1.232-.336.355-.719.532-1.148.532zm4.695 14.336 1.876-8.792h-2.856l.196-1.12 3.024-.28 1.316-3.752h1.428l-.812 3.78h3.556l-.224 1.512-3.612-.112-1.708 8.036c-.168.747-.252 1.288-.252 1.624 0 .206.065.364.196.476.149.112.308.168.476.168.709 0 1.624-.672 2.744-2.016l.7.532c-.392.56-.84 1.102-1.344 1.624-.504.523-1.045.952-1.624 1.288s-1.185.504-1.82.504c-.411 0-.775-.121-1.092-.364-.299-.242-.448-.597-.448-1.064 0-.205.019-.448.056-.728.037-.298.112-.737.224-1.316zm4.119 8.204c.075-.41.252-.728.532-.952.261-.205.588-.308.98-.308.411 0 .784.084 1.12.252.355.187.737.43 1.148.728l.084.056c.915-.578 1.755-1.26 2.52-2.044.261-.261.513-.532.756-.812s.485-.569.728-.868c-.075-1.101-.168-2.081-.28-2.94-.093-.877-.205-1.782-.336-2.716-.112-.933-.252-2.016-.42-3.248-.131-1.194-.252-2.062-.364-2.604-.093-.56-.196-.924-.308-1.092s-.252-.252-.42-.252c-.243 0-.495.122-.756.364-.243.224-.616.719-1.12 1.484l-.644-.448c.56-1.194 1.148-2.044 1.764-2.548.616-.522 1.213-.784 1.792-.784.355 0 .653.094.896.28.261.187.476.551.644 1.092.187.523.336 1.307.448 2.352.168 1.624.299 3.155.392 4.592.112 1.438.196 2.81.252 4.116.653-1.194 1.204-2.249 1.652-3.164.467-.914.868-1.81 1.204-2.688.355-.896.681-1.876.98-2.94.317-1.082.579-1.894.784-2.436.224-.541.439-.905.644-1.092.205-.186.439-.28.7-.28.317 0 .569.094.756.28.187.168.28.392.28.672 0 .355-.047.682-.14.98-.093.299-.28.728-.56 1.288-.299.598-.616 1.223-.952 1.876-.317.635-.747 1.428-1.288 2.38-.523.915-1.092 1.914-1.708 2.996-.597 1.064-1.279 2.175-2.044 3.332-.355.542-.737 1.102-1.148 1.68-.411.598-.905 1.214-1.484 1.848-.915.99-1.792 1.764-2.632 2.324-.821.579-1.643.868-2.464.868-.616 0-1.092-.158-1.428-.476-.336-.298-.523-.681-.56-1.148zm-95.959 33.268c-1.4 0-2.641-.233-3.724-.7-1.064-.466-1.895-1.148-2.492-2.044s-.896-1.978-.896-3.248c0-.877.168-1.736.504-2.576.355-.84.868-1.577 1.54-2.212.691-.653 1.531-1.11 2.52-1.372-.429-.69-.644-1.446-.644-2.268 0-.896.233-1.736.7-2.52s1.129-1.409 1.988-1.876c.877-.485 1.923-.728 3.136-.728.877 0 1.671.196 2.38.588.728.374 1.185.971 1.372 1.792-.075.243-.187.448-.336.616s-.392.252-.728.252c-.653 0-1.167-.401-1.54-1.204l-.448-1.036c-.112-.018-.224-.028-.336-.028s-.233 0-.364 0c-1.288 0-2.296.355-3.024 1.064-.728.71-1.092 1.699-1.092 2.968 0 .784.187 1.503.56 2.156h.168c.821 0 1.475.112 1.96.336s.728.551.728.98c0 .336-.103.598-.308.784-.205.168-.467.252-.784.252-.523 0-1.017-.112-1.484-.336s-.877-.522-1.232-.896c-1.139.43-1.951 1.092-2.436 1.988-.467.878-.7 1.802-.7 2.772 0 1.008.243 1.858.728 2.548.504.691 1.157 1.214 1.96 1.568.821.355 1.689.532 2.604.532 1.456 0 2.632-.28 3.528-.84.896-.578 1.344-1.325 1.344-2.24 0-.765-.243-1.353-.728-1.764-.485-.41-1.279-.653-2.38-.728l.196-1.344c1.325-.018 2.436-.224 3.332-.616s1.643-.98 2.24-1.764c.616-.784 1.148-1.764 1.596-2.94l1.876.84c-.691 1.606-1.577 2.8-2.66 3.584-1.064.784-2.399 1.288-4.004 1.512.672.299 1.139.747 1.4 1.344.28.579.42 1.167.42 1.764 0 1.008-.271 1.895-.812 2.66-.523.747-1.269 1.335-2.24 1.764-.952.411-2.081.616-3.388.616zm22.756 0c-1.232 0-2.24-.429-3.024-1.288-.784-.877-1.176-2.193-1.176-3.948 0-1.176.205-2.286.616-3.332.411-1.064.961-1.997 1.652-2.8.691-.821 1.465-1.465 2.324-1.932.859-.466 1.727-.7 2.604-.7.859 0 1.54.196 2.044.588.504.374.831.859.98 1.456-.056.355-.205.607-.448.756-.224.15-.467.224-.728.224-.299 0-.588-.093-.868-.28-.261-.205-.523-.448-.784-.728l-.84-.952c-.803.28-1.54.784-2.212 1.512s-1.213 1.606-1.624 2.632c-.411 1.008-.616 2.091-.616 3.248 0 1.214.289 2.119.868 2.716.579.598 1.325.896 2.24.896.747 0 1.4-.224 1.96-.672.579-.448 1.064-.905 1.456-1.372l.644.504c-.56.971-1.307 1.792-2.24 2.464s-1.876 1.008-2.828 1.008zm17.226 0c-.373 0-.718-.121-1.036-.364-.298-.242-.448-.606-.448-1.092 0-.186.01-.401.028-.644.038-.261.103-.625.196-1.092-1.082.99-2.072 1.774-2.968 2.352-.896.56-1.773.84-2.632.84-.522 0-.98-.149-1.372-.448-.373-.298-.56-.83-.56-1.596 0-.522.066-1.101.196-1.736.15-.653.28-1.25.392-1.792l1.288-6.048-2.772-.14.112-.84 4.872-1.4.364.28-1.764 7.924c-.13.579-.233 1.092-.308 1.54-.074.43-.112.803-.112 1.12 0 .803.355 1.204 1.064 1.204.598 0 1.223-.186 1.876-.56.654-.392 1.512-1.008 2.576-1.848l.756-3.724c.187-.896.364-1.792.532-2.688.187-.896.346-1.792.476-2.688l1.82-.56.364.28-1.988 9.576c-.074.355-.14.672-.196.952-.037.28-.056.495-.056.644 0 .187.066.336.196.448.131.112.28.168.448.168.374 0 .784-.168 1.232-.504s.962-.84 1.54-1.512l.672.532c-.429.56-.886 1.102-1.372 1.624-.485.523-1.008.952-1.568 1.288s-1.176.504-1.848.504zm7.581 0c-.429 0-.803-.13-1.12-.392-.299-.28-.448-.69-.448-1.232 0-.205.019-.448.056-.728.056-.28.121-.662.196-1.148l2.016-10.22c.168-.821.327-1.642.476-2.464.149-.84.289-1.68.42-2.52l-2.632-.168.112-.812 4.816-1.4.308.224-3.36 16.66c-.168.747-.252 1.288-.252 1.624 0 .206.065.364.196.476.149.112.317.168.504.168.299 0 .672-.177 1.12-.532.467-.354.98-.849 1.54-1.484l.644.532c-.392.542-.821 1.083-1.288 1.624-.448.523-.943.952-1.484 1.288s-1.148.504-1.82.504zm6.707-3.472 1.876-8.792h-2.856l.196-1.12 3.024-.28 1.316-3.752h1.428l-.812 3.78h3.556l-.224 1.512-3.612-.112-1.708 8.036c-.168.747-.252 1.288-.252 1.624 0 .206.065.364.196.476.149.112.308.168.476.168.709 0 1.624-.672 2.744-2.016l.7.532c-.392.56-.84 1.102-1.344 1.624-.504.523-1.046.952-1.624 1.288-.579.336-1.186.504-1.82.504-.411 0-.775-.121-1.092-.364-.299-.242-.448-.597-.448-1.064 0-.205.018-.448.056-.728.037-.298.112-.737.224-1.316zm17.951 3.472c-.374 0-.719-.121-1.036-.364-.299-.242-.448-.606-.448-1.092 0-.186.009-.401.028-.644.037-.261.102-.625.196-1.092-1.083.99-2.072 1.774-2.968 2.352-.896.56-1.774.84-2.632.84-.523 0-.98-.149-1.372-.448-.374-.298-.56-.83-.56-1.596 0-.522.065-1.101.196-1.736.149-.653.28-1.25.392-1.792l1.288-6.048-2.772-.14.112-.84 4.872-1.4.364.28-1.764 7.924c-.131.579-.234 1.092-.308 1.54-.075.43-.112.803-.112 1.12 0 .803.354 1.204 1.064 1.204.597 0 1.222-.186 1.876-.56.653-.392 1.512-1.008 2.576-1.848l.756-3.724c.186-.896.364-1.792.532-2.688.186-.896.345-1.792.476-2.688l1.82-.56.364.28-1.988 9.576c-.075.355-.14.672-.196.952-.038.28-.056.495-.056.644 0 .187.065.336.196.448.13.112.28.168.448.168.373 0 .784-.168 1.232-.504s.961-.84 1.54-1.512l.672.532c-.43.56-.887 1.102-1.372 1.624-.486.523-1.008.952-1.568 1.288s-1.176.504-1.848.504zm6.615-.364 2.38-11.228-2.772-.168.112-.812 4.62-1.428.364.28-.616 3.752c.411-.709.84-1.362 1.288-1.96.467-.616.952-1.11 1.456-1.484.504-.392.999-.588 1.484-.588.392 0 .756.066 1.092.196.336.112.597.327.784.644-.019.467-.159.85-.42 1.148-.243.28-.597.42-1.064.42-.243 0-.513-.065-.812-.196-.28-.149-.56-.326-.84-.532-.672.56-1.288 1.223-1.848 1.988-.56.766-1.092 1.643-1.596 2.632l-.336 1.456c-.205.971-.401 1.951-.588 2.94-.168.971-.345 1.951-.532 2.94l-1.876.224zm16.576-12.432c-.429 0-.905.168-1.428.504-.504.336-.999.803-1.484 1.4-.485.598-.896 1.288-1.232 2.072-.317.766-.513 1.587-.588 2.464 1.549-.448 2.781-.942 3.696-1.484.933-.56 1.596-1.12 1.988-1.68.411-.578.616-1.12.616-1.624 0-.522-.149-.924-.448-1.204-.28-.298-.653-.448-1.12-.448zm-2.464 12.796c-1.232 0-2.249-.42-3.052-1.26-.784-.84-1.176-2.156-1.176-3.948 0-1.12.196-2.202.588-3.248.392-1.064.924-2.006 1.596-2.828.672-.84 1.447-1.502 2.324-1.988.896-.485 1.829-.728 2.8-.728.915 0 1.605.224 2.072.672.485.448.728 1.083.728 1.904 0 .598-.233 1.26-.7 1.988-.467.71-1.297 1.428-2.492 2.156-1.176.728-2.828 1.4-4.956 2.016.056 1.195.336 2.054.84 2.576.504.504 1.185.756 2.044.756.877 0 1.633-.224 2.268-.672s1.139-.905 1.512-1.372l.644.504c-.579.952-1.307 1.774-2.184 2.464-.877.672-1.829 1.008-2.856 1.008z"/><path d="m574.922 631.748.196-.952 2.408-.392 3.528-16.632-2.772-.168.112-.812 4.76-1.428.364.28-.672 3.136c.877-1.064 1.82-1.895 2.828-2.492 1.008-.616 1.913-.924 2.716-.924.69 0 1.288.261 1.792.784.504.504.756 1.391.756 2.66 0 .952-.168 1.923-.504 2.912s-.794 1.941-1.372 2.856c-.579.896-1.242 1.708-1.988 2.436-.747.728-1.531 1.307-2.352 1.736-.822.411-1.634.616-2.436.616-.579 0-1.111-.14-1.596-.42-.243 1.195-.448 2.221-.616 3.08s-.308 1.643-.42 2.352l2.576.42-.224.952zm12.152-18.508c-.579 0-1.26.252-2.044.756-.766.504-1.587 1.223-2.464 2.156l-1.4 6.524c.373.28.737.485 1.092.616.373.112.718.168 1.036.168.709 0 1.372-.196 1.988-.588.634-.392 1.194-.905 1.68-1.54.56-.747.998-1.587 1.316-2.52.336-.952.504-1.913.504-2.884 0-1.792-.57-2.688-1.708-2.688zm5.928 11.76 2.38-11.228-2.772-.168.112-.812 4.62-1.428.364.28-.616 3.752c.411-.709.84-1.363 1.288-1.96.467-.616.952-1.111 1.456-1.484.504-.392.999-.588 1.484-.588.392 0 .756.065 1.092.196.336.112.597.327.784.644-.019.467-.159.849-.42 1.148-.243.28-.597.42-1.064.42-.243 0-.513-.065-.812-.196-.28-.149-.56-.327-.84-.532-.672.56-1.288 1.223-1.848 1.988s-1.092 1.643-1.596 2.632l-.336 1.456c-.205.971-.401 1.951-.588 2.94-.168.971-.345 1.951-.532 2.94l-1.876.224zm14.56.364c-.859 0-1.643-.187-2.352-.56s-1.279-.924-1.708-1.652c-.411-.747-.616-1.652-.616-2.716 0-1.269.187-2.445.56-3.528.392-1.101.924-2.063 1.596-2.884.672-.84 1.447-1.493 2.324-1.96.896-.467 1.839-.7 2.828-.7 1.325 0 2.408.42 3.248 1.26.859.84 1.288 2.053 1.288 3.64 0 1.213-.187 2.371-.56 3.472-.373 1.083-.896 2.053-1.568 2.912-.653.84-1.409 1.503-2.268 1.988s-1.783.728-2.772.728zm.308-1.12c.691 0 1.316-.215 1.876-.644s1.036-1.008 1.428-1.736c.411-.728.728-1.54.952-2.436s.336-1.811.336-2.744c0-1.512-.243-2.585-.728-3.22-.467-.653-1.083-.98-1.848-.98-.877 0-1.68.345-2.408 1.036-.709.691-1.269 1.615-1.68 2.772-.411 1.139-.616 2.408-.616 3.808 0 1.475.252 2.539.756 3.192.504.635 1.148.952 1.932.952zm17.536-20.244c.821 0 1.521.215 2.1.644.597.411.952.877 1.064 1.4-.187.635-.551.952-1.092.952-.411 0-.775-.121-1.092-.364-.299-.243-.672-.635-1.12-1.176l-.448-.532c-.467.205-.915.551-1.344 1.036-.43.467-.822 1.139-1.176 2.016-.336.859-.626 2.007-.868 3.444-.019.056-.028.112-.028.168 0 .037-.01.084-.028.14h3.612l-.224 1.484-3.612-.112c-.299 1.773-.598 3.593-.896 5.46-.299 1.867-.626 3.687-.98 5.46-.299 1.493-.663 2.791-1.092 3.892-.411 1.101-1.008 2.007-1.792 2.716-.579.523-1.102.877-1.568 1.064-.486.205-.952.308-1.4.308-.635 0-1.195-.159-1.68-.476-.486-.317-.794-.737-.924-1.26.056-.299.214-.541.476-.728.242-.187.513-.28.812-.28.41 0 .784.112 1.12.336.317.224.625.495.924.812l.336.336c.186-.149.373-.327.56-.532.205-.187.401-.411.588-.672.354-.523.662-1.213.924-2.072.261-.84.522-1.988.784-3.444.336-1.885.644-3.715.924-5.488.298-1.773.597-3.603.896-5.488h-2.912l.224-1.064 2.912-.252.028-.252c.242-1.549.597-2.809 1.064-3.78.485-.989 1.017-1.745 1.596-2.268.597-.541 1.185-.915 1.764-1.12.597-.205 1.12-.308 1.568-.308zm6.074 8.568c-.429 0-.905.168-1.428.504-.504.336-.998.803-1.484 1.4-.485.597-.896 1.288-1.232 2.072-.317.765-.513 1.587-.588 2.464 1.55-.448 2.782-.943 3.696-1.484.934-.56 1.596-1.12 1.988-1.68.411-.579.616-1.12.616-1.624 0-.523-.149-.924-.448-1.204-.28-.299-.653-.448-1.12-.448zm-2.464 12.796c-1.232 0-2.249-.42-3.052-1.26-.784-.84-1.176-2.156-1.176-3.948 0-1.12.196-2.203.588-3.248.392-1.064.924-2.007 1.596-2.828.672-.84 1.447-1.503 2.324-1.988.896-.485 1.83-.728 2.8-.728.915 0 1.606.224 2.072.672.486.448.728 1.083.728 1.904 0 .597-.233 1.26-.7 1.988-.466.709-1.297 1.428-2.492 2.156-1.176.728-2.828 1.4-4.956 2.016.056 1.195.336 2.053.84 2.576.504.504 1.186.756 2.044.756.878 0 1.634-.224 2.268-.672.635-.448 1.139-.905 1.512-1.372l.644.504c-.578.952-1.306 1.773-2.184 2.464-.877.672-1.829 1.008-2.856 1.008zm14.875-3.976c0 1.157-.439 2.109-1.316 2.856-.859.747-1.998 1.12-3.416 1.12-1.083 0-1.914-.252-2.492-.756-.56-.504-.887-1.176-.98-2.016.074-.243.205-.429.392-.56.205-.149.42-.224.644-.224.41 0 .709.112.896.336.205.205.354.504.448.896l.308 1.204c.056.019.112.028.168.028h.224c.97 0 1.726-.215 2.268-.644.541-.429.812-1.008.812-1.736 0-.448-.103-.877-.308-1.288-.206-.411-.71-.905-1.512-1.484-.691-.541-1.279-1.092-1.764-1.652-.467-.579-.7-1.307-.7-2.184 0-.728.186-1.391.56-1.988.373-.597.886-1.064 1.54-1.4.672-.355 1.456-.532 2.352-.532.821 0 1.53.187 2.128.56.597.355.998.989 1.204 1.904-.168.523-.523.784-1.064.784-.654 0-1.13-.439-1.428-1.316l-.252-.812c-.056-.019-.122-.028-.196-.028-.056 0-.122 0-.196 0-.971 0-1.662.224-2.072.672-.392.448-.588.989-.588 1.624 0 .579.14 1.064.42 1.456.298.373.849.859 1.652 1.456.84.635 1.428 1.213 1.764 1.736.336.504.504 1.167.504 1.988zm10.089 0c0 1.157-.438 2.109-1.316 2.856-.858.747-1.997 1.12-3.416 1.12-1.082 0-1.913-.252-2.492-.756-.56-.504-.886-1.176-.98-2.016.075-.243.206-.429.392-.56.206-.149.42-.224.644-.224.411 0 .71.112.896.336.206.205.355.504.448.896l.308 1.204c.056.019.112.028.168.028h.224c.971 0 1.727-.215 2.268-.644.542-.429.812-1.008.812-1.736 0-.448-.102-.877-.308-1.288-.205-.411-.709-.905-1.512-1.484-.69-.541-1.278-1.092-1.764-1.652-.466-.579-.7-1.307-.7-2.184 0-.728.187-1.391.56-1.988.374-.597.887-1.064 1.54-1.4.672-.355 1.456-.532 2.352-.532.822 0 1.531.187 2.128.56.598.355.999.989 1.204 1.904-.168.523-.522.784-1.064.784-.653 0-1.129-.439-1.428-1.316l-.252-.812c-.056-.019-.121-.028-.196-.028-.056 0-.121 0-.196 0-.97 0-1.661.224-2.072.672-.392.448-.588.989-.588 1.624 0 .579.14 1.064.42 1.456.299.373.85.859 1.652 1.456.84.635 1.428 1.213 1.764 1.736.336.504.504 1.167.504 1.988zm3.398 2.548c0-.205.019-.448.056-.728.038-.299.122-.737.252-1.316l1.68-8.12-2.772-.168.112-.812 4.76-1.428.364.28-1.988 9.576c-.074.355-.14.672-.196.952-.037.28-.056.495-.056.644 0 .187.066.336.196.448.131.112.271.168.42.168.672 0 1.568-.672 2.688-2.016l.7.532c-.41.56-.858 1.101-1.344 1.624-.466.523-.98.952-1.54 1.288-.541.336-1.148.504-1.82.504-.373 0-.718-.121-1.036-.364-.317-.243-.476-.597-.476-1.064zm4.116-16.38c-.448 0-.812-.14-1.092-.42-.28-.299-.42-.709-.42-1.232 0-.467.168-.868.504-1.204.336-.355.719-.532 1.148-.532.448 0 .812.149 1.092.448.28.28.42.672.42 1.176 0 .448-.168.859-.504 1.232-.336.355-.718.532-1.148.532zm8.083 17.808c-.858 0-1.642-.187-2.352-.56-.709-.373-1.278-.924-1.708-1.652-.41-.747-.616-1.652-.616-2.716 0-1.269.187-2.445.56-3.528.392-1.101.924-2.063 1.596-2.884.672-.84 1.447-1.493 2.324-1.96.896-.467 1.839-.7 2.828-.7 1.326 0 2.408.42 3.248 1.26.859.84 1.288 2.053 1.288 3.64 0 1.213-.186 2.371-.56 3.472-.373 1.083-.896 2.053-1.568 2.912-.653.84-1.409 1.503-2.268 1.988-.858.485-1.782.728-2.772.728zm.308-1.12c.691 0 1.316-.215 1.876-.644s1.036-1.008 1.428-1.736c.411-.728.728-1.54.952-2.436s.336-1.811.336-2.744c0-1.512-.242-2.585-.728-3.22-.466-.653-1.082-.98-1.848-.98-.877 0-1.68.345-2.408 1.036-.709.691-1.269 1.615-1.68 2.772-.41 1.139-.616 2.408-.616 3.808 0 1.475.252 2.539.756 3.192.504.635 1.148.952 1.932.952zm11.46.756-1.876.224-.28-.224 2.38-11.228-2.772-.168.112-.812 4.76-1.428.364.28-.588 2.884c.934-.877 1.923-1.624 2.968-2.24 1.064-.616 2.026-.924 2.884-.924 1.195 0 1.792.644 1.792 1.932 0 .448-.046.905-.14 1.372-.093.448-.196.905-.308 1.372l-1.26 5.18c-.093.392-.177.728-.252 1.008-.074.261-.112.467-.112.616 0 .392.178.588.532.588.355 0 .775-.177 1.26-.532.504-.355 1.008-.849 1.512-1.484l.672.532c-.354.541-.793 1.083-1.316 1.624-.504.523-1.054.952-1.652 1.288-.597.336-1.222.504-1.876.504-.429 0-.774-.112-1.036-.336-.242-.224-.364-.513-.364-.868 0-.317.038-.625.112-.924.094-.317.206-.765.336-1.344l1.204-4.928c.112-.485.215-.943.308-1.372.094-.429.14-.784.14-1.064 0-.485-.084-.821-.252-1.008s-.41-.28-.728-.28c-.504 0-1.148.205-1.932.616s-1.689 1.036-2.716 1.876l-.756 3.388c-.205.971-.401 1.951-.588 2.94-.168.971-.345 1.951-.532 2.94zm-95.497 38.364c-1.4 0-2.642-.233-3.724-.7-1.064-.467-1.895-1.148-2.492-2.044-.598-.896-.896-1.979-.896-3.248 0-.877.168-1.736.504-2.576.354-.84.868-1.577 1.54-2.212.69-.653 1.53-1.111 2.52-1.372-.43-.691-.644-1.447-.644-2.268 0-.896.233-1.736.7-2.52.466-.784 1.129-1.409 1.988-1.876.877-.485 1.922-.728 3.136-.728.877 0 1.67.196 2.38.588.728.373 1.185.971 1.372 1.792-.075.243-.187.448-.336.616-.15.168-.392.252-.728.252-.654 0-1.167-.401-1.54-1.204l-.448-1.036c-.112-.019-.224-.028-.336-.028s-.234 0-.364 0c-1.288 0-2.296.355-3.024 1.064s-1.092 1.699-1.092 2.968c0 .784.186 1.503.56 2.156h.168c.821 0 1.474.112 1.96.336.485.224.728.551.728.98 0 .336-.103.597-.308.784-.206.168-.467.252-.784.252-.523 0-1.018-.112-1.484-.336-.467-.224-.878-.523-1.232-.896-1.139.429-1.951 1.092-2.436 1.988-.467.877-.7 1.801-.7 2.772 0 1.008.242 1.857.728 2.548.504.691 1.157 1.213 1.96 1.568.821.355 1.689.532 2.604.532 1.456 0 2.632-.28 3.528-.84.896-.579 1.344-1.325 1.344-2.24 0-.765-.243-1.353-.728-1.764-.486-.411-1.279-.653-2.38-.728l.196-1.344c1.325-.019 2.436-.224 3.332-.616s1.642-.98 2.24-1.764c.616-.784 1.148-1.764 1.596-2.94l1.876.84c-.691 1.605-1.578 2.8-2.66 3.584-1.064.784-2.399 1.288-4.004 1.512.672.299 1.138.747 1.4 1.344.28.579.42 1.167.42 1.764 0 1.008-.271 1.895-.812 2.66-.523.747-1.27 1.335-2.24 1.764-.952.411-2.082.616-3.388.616zm35.299 0c-.448 0-.802-.112-1.064-.336-.242-.224-.364-.513-.364-.868 0-.317.038-.625.112-.924.094-.317.206-.765.336-1.344l1.204-4.928c.112-.485.215-.943.308-1.372.094-.429.14-.784.14-1.064 0-.485-.084-.821-.252-1.008s-.41-.28-.728-.28c-.914 0-2.361.821-4.34 2.464l-.728 3.416c-.224.971-.429 1.951-.616 2.94-.186.971-.373 1.951-.56 2.94l-1.82.224-.28-.224 1.932-9.128c.038-.243.084-.485.14-.728s.084-.476.084-.7c0-.448-.084-.756-.252-.924-.168-.187-.41-.28-.728-.28-.504 0-1.148.205-1.932.616-.765.411-1.661 1.036-2.688 1.876l-.756 3.388c-.205.971-.401 1.951-.588 2.94-.168.971-.345 1.951-.532 2.94l-1.876.224-.28-.224 2.38-11.228-2.772-.168.112-.812 4.76-1.428.364.28-.588 2.884c.915-.877 1.904-1.624 2.968-2.24s2.026-.924 2.884-.924c1.176 0 1.764.644 1.764 1.932 0 .187-.018.383-.056.588-.018.187-.046.383-.084.588.878-.859 1.811-1.587 2.8-2.184 1.008-.616 1.932-.924 2.772-.924 1.176 0 1.764.644 1.764 1.932 0 .448-.056.905-.168 1.372-.093.448-.196.905-.308 1.372l-1.26 5.18c-.093.392-.177.728-.252 1.008-.074.261-.112.467-.112.616 0 .187.056.336.168.448.112.093.243.14.392.14.71 0 1.624-.672 2.744-2.016l.672.532c-.392.56-.84 1.101-1.344 1.624-.485.523-1.017.952-1.596 1.288-.578.336-1.204.504-1.876.504zm7.179-1.428c0-.205.018-.448.056-.728.037-.299.121-.737.252-1.316l1.68-8.12-2.772-.168.112-.812 4.76-1.428.364.28-1.988 9.576c-.075.355-.14.672-.196.952-.038.28-.056.495-.056.644 0 .187.065.336.196.448.13.112.27.168.42.168.672 0 1.568-.672 2.688-2.016l.7.532c-.411.56-.859 1.101-1.344 1.624-.467.523-.98.952-1.54 1.288-.542.336-1.148.504-1.82.504-.374 0-.719-.121-1.036-.364-.318-.243-.476-.597-.476-1.064zm4.116-16.38c-.448 0-.812-.14-1.092-.42-.28-.299-.42-.709-.42-1.232 0-.467.168-.868.504-1.204.336-.355.718-.532 1.148-.532.448 0 .812.149 1.092.448.28.28.42.672.42 1.176 0 .448-.168.859-.504 1.232-.336.355-.719.532-1.148.532zm11.107 13.832c0 1.157-.439 2.109-1.316 2.856-.859.747-1.998 1.12-3.416 1.12-1.083 0-1.914-.252-2.492-.756-.56-.504-.887-1.176-.98-2.016.074-.243.205-.429.392-.56.205-.149.42-.224.644-.224.41 0 .709.112.896.336.205.205.354.504.448.896l.308 1.204c.056.019.112.028.168.028h.224c.97 0 1.726-.215 2.268-.644.541-.429.812-1.008.812-1.736 0-.448-.103-.877-.308-1.288-.206-.411-.71-.905-1.512-1.484-.691-.541-1.279-1.092-1.764-1.652-.467-.579-.7-1.307-.7-2.184 0-.728.186-1.391.56-1.988.373-.597.886-1.064 1.54-1.4.672-.355 1.456-.532 2.352-.532.821 0 1.53.187 2.128.56.597.355.998.989 1.204 1.904-.168.523-.523.784-1.064.784-.654 0-1.13-.439-1.428-1.316l-.252-.812c-.056-.019-.122-.028-.196-.028-.056 0-.122 0-.196 0-.971 0-1.662.224-2.072.672-.392.448-.588.989-.588 1.624 0 .579.14 1.064.42 1.456.298.373.849.859 1.652 1.456.84.635 1.428 1.213 1.764 1.736.336.504.504 1.167.504 1.988zm10.09 0c0 1.157-.439 2.109-1.316 2.856-.859.747-1.998 1.12-3.416 1.12-1.083 0-1.914-.252-2.492-.756-.56-.504-.887-1.176-.98-2.016.074-.243.205-.429.392-.56.205-.149.42-.224.644-.224.41 0 .709.112.896.336.205.205.354.504.448.896l.308 1.204c.056.019.112.028.168.028h.224c.97 0 1.726-.215 2.268-.644.541-.429.812-1.008.812-1.736 0-.448-.103-.877-.308-1.288-.206-.411-.71-.905-1.512-1.484-.691-.541-1.279-1.092-1.764-1.652-.467-.579-.7-1.307-.7-2.184 0-.728.186-1.391.56-1.988.373-.597.886-1.064 1.54-1.4.672-.355 1.456-.532 2.352-.532.821 0 1.53.187 2.128.56.597.355.998.989 1.204 1.904-.168.523-.523.784-1.064.784-.654 0-1.13-.439-1.428-1.316l-.252-.812c-.056-.019-.122-.028-.196-.028-.056 0-.122 0-.196 0-.971 0-1.662.224-2.072.672-.392.448-.588.989-.588 1.624 0 .579.14 1.064.42 1.456.298.373.849.859 1.652 1.456.84.635 1.428 1.213 1.764 1.736.336.504.504 1.167.504 1.988zm3.397 2.548c0-.205.019-.448.056-.728.038-.299.122-.737.252-1.316l1.68-8.12-2.772-.168.112-.812 4.76-1.428.364.28-1.988 9.576c-.074.355-.14.672-.196.952-.037.28-.056.495-.056.644 0 .187.066.336.196.448.131.112.271.168.42.168.672 0 1.568-.672 2.688-2.016l.7.532c-.41.56-.858 1.101-1.344 1.624-.466.523-.98.952-1.54 1.288-.541.336-1.148.504-1.82.504-.373 0-.718-.121-1.036-.364-.317-.243-.476-.597-.476-1.064zm4.116-16.38c-.448 0-.812-.14-1.092-.42-.28-.299-.42-.709-.42-1.232 0-.467.168-.868.504-1.204.336-.355.719-.532 1.148-.532.448 0 .812.149 1.092.448.28.28.42.672.42 1.176 0 .448-.168.859-.504 1.232-.336.355-.718.532-1.148.532zm8.084 17.808c-.859 0-1.643-.187-2.352-.56-.71-.373-1.279-.924-1.708-1.652-.411-.747-.616-1.652-.616-2.716 0-1.269.186-2.445.56-3.528.392-1.101.924-2.063 1.596-2.884.672-.84 1.446-1.493 2.324-1.96.896-.467 1.838-.7 2.828-.7 1.325 0 2.408.42 3.248 1.26.858.84 1.288 2.053 1.288 3.64 0 1.213-.187 2.371-.56 3.472-.374 1.083-.896 2.053-1.568 2.912-.654.84-1.41 1.503-2.268 1.988-.859.485-1.783.728-2.772.728zm.308-1.12c.69 0 1.316-.215 1.876-.644s1.036-1.008 1.428-1.736c.41-.728.728-1.54.952-2.436s.336-1.811.336-2.744c0-1.512-.243-2.585-.728-3.22-.467-.653-1.083-.98-1.848-.98-.878 0-1.68.345-2.408 1.036-.71.691-1.27 1.615-1.68 2.772-.411 1.139-.616 2.408-.616 3.808 0 1.475.252 2.539.756 3.192.504.635 1.148.952 1.932.952zm11.46.756-1.876.224-.28-.224 2.38-11.228-2.772-.168.112-.812 4.76-1.428.364.28-.588 2.884c.933-.877 1.922-1.624 2.968-2.24 1.064-.616 2.025-.924 2.884-.924 1.194 0 1.792.644 1.792 1.932 0 .448-.047.905-.14 1.372-.094.448-.196.905-.308 1.372l-1.26 5.18c-.094.392-.178.728-.252 1.008-.075.261-.112.467-.112.616 0 .392.177.588.532.588.354 0 .774-.177 1.26-.532.504-.355 1.008-.849 1.512-1.484l.672.532c-.355.541-.794 1.083-1.316 1.624-.504.523-1.055.952-1.652 1.288-.598.336-1.223.504-1.876.504-.43 0-.775-.112-1.036-.336-.243-.224-.364-.513-.364-.868 0-.317.037-.625.112-.924.093-.317.205-.765.336-1.344l1.204-4.928c.112-.485.214-.943.308-1.372.093-.429.14-.784.14-1.064 0-.485-.084-.821-.252-1.008s-.411-.28-.728-.28c-.504 0-1.148.205-1.932.616s-1.69 1.036-2.716 1.876l-.756 3.388c-.206.971-.402 1.951-.588 2.94-.168.971-.346 1.951-.532 2.94z"/><path d="m452.952 1046.81.384-1.97h12.72l-.384 1.97-4.128.48-2.784 14.83c-.384 2.05-.752 4.11-1.104 6.19s-.704 4.16-1.056 6.24l4.368.53-.384 1.92h-12.72l.384-1.92 4.08-.48 2.832-14.88c.768-4.13 1.488-8.26 2.16-12.38zm14.323 30.19 4.608-22.9c.288-1.4.56-2.81.816-4.22.288-1.44.544-2.88.768-4.32l-4.56-.29.192-1.39 8.304-2.4.288.38-4.32 21.94 12.768-9.94c.512.04.928.24 1.248.63.352.38.528.83.528 1.34 0 .42-.192.82-.576 1.2-.384.39-1.024.82-1.92 1.3l-11.664 6.43 1.104.24c1.408.26 2.512.78 3.312 1.58.832.77 1.52 1.76 2.064 2.98l1.392 3.02c.544 1.16 1.04 1.89 1.488 2.21s1.04.51 1.776.58l2.448.19-.24 1.44c-.704.22-1.312.38-1.824.48s-1.04.14-1.584.14c-1.12 0-2.096-.22-2.928-.67s-1.6-1.5-2.304-3.17l-1.536-3.74c-.576-1.34-1.104-2.29-1.584-2.83-.48-.58-1.136-.98-1.968-1.2l-.432-.15-.192 1.06c-.32 1.66-.64 3.34-.96 5.04-.288 1.66-.576 3.34-.864 5.04l-3.216.38zm23.984-1.82c0-.36.032-.77.096-1.25.064-.51.208-1.27.432-2.26l2.88-13.92-4.752-.29.192-1.39 8.16-2.45.624.48-3.408 16.42c-.128.61-.24 1.15-.336 1.63-.064.48-.096.85-.096 1.11 0 .32.112.57.336.76.224.2.464.29.72.29 1.152 0 2.688-1.15 4.608-3.45l1.2.91c-.704.96-1.472 1.89-2.304 2.78-.8.9-1.68 1.63-2.64 2.21-.928.58-1.968.86-3.12.86-.64 0-1.232-.2-1.776-.62s-.816-1.02-.816-1.82zm7.056-28.08c-.768 0-1.392-.24-1.872-.72-.48-.52-.72-1.22-.72-2.12 0-.8.288-1.48.864-2.06.576-.61 1.232-.91 1.968-.91.768 0 1.392.25 1.872.77.48.48.72 1.15.72 2.01 0 .77-.288 1.47-.864 2.11-.576.61-1.232.92-1.968.92zm14.721 20.92c1.504-.03 2.688-.73 3.552-2.11.896-1.37 1.344-3.33 1.344-5.85 0-1.54-.368-2.74-1.104-3.6-.704-.9-1.568-1.33-2.592-1.3-1.664.03-2.912.77-3.744 2.21-.832 1.41-1.248 3.23-1.248 5.47 0 3.52 1.264 5.25 3.792 5.18zm-7.488-4.94c0-1.76.4-3.34 1.2-4.75.832-1.44 1.936-2.58 3.312-3.41 1.376-.86 2.896-1.3 4.56-1.3 1.536 0 2.832.4 3.888 1.2 1.056.77 1.744 1.88 2.064 3.32.448-1.89 1.072-3.2 1.872-3.94.832-.74 1.696-1.1 2.592-1.1.64 0 1.12.09 1.44.28.288.36.432.69.432 1.01 0 .96-.416 1.65-1.248 2.07-.8.41-1.968.84-3.504 1.29-.16.42-.304.87-.432 1.35-.128.44-.256.94-.384 1.48-.704 3.11-1.856 5.38-3.456 6.82-1.568 1.44-3.312 2.16-5.232 2.16-1.44 0-2.672-.24-3.696-.72-.512.61-.848 1.1-1.008 1.49-.128.38-.192.75-.192 1.1 0 .42.176.85.528 1.3s1.008.73 1.968.86l4.752.58c2.56.32 4.368.93 5.424 1.82 1.088.9 1.632 2.03 1.632 3.41 0 1.66-.608 3.18-1.824 4.56-1.184 1.41-2.832 2.53-4.944 3.36-2.08.83-4.448 1.25-7.104 1.25-2.24 0-4.112-.42-5.616-1.25-1.472-.83-2.208-2.11-2.208-3.84 0-1.44.592-2.82 1.776-4.13 1.184-1.28 2.608-2.32 4.272-3.12-.832-.41-1.392-.91-1.68-1.49-.288-.6-.432-1.16-.432-1.68 0-.89.32-1.72.96-2.49.64-.8 1.52-1.6 2.64-2.4-1.568-1.12-2.352-2.82-2.352-5.09zm-1.44 18.82c0 1.37.544 2.44 1.632 3.21 1.088.8 2.608 1.2 4.56 1.2 2.56 0 4.608-.46 6.144-1.39s2.304-2.16 2.304-3.7c0-.6-.176-1.16-.528-1.68-.32-.51-.912-.96-1.776-1.34s-2.128-.67-3.792-.86l-3.84-.44c-.128-.03-.272-.04-.432-.04-.128-.04-.256-.07-.384-.1-1.28.83-2.256 1.63-2.928 2.4-.64.8-.96 1.71-.96 2.74zm25.767-11.91c0 1.47.256 2.56.768 3.27.544.7 1.248 1.05 2.112 1.05.832 0 1.792-.33 2.88-1.01 1.088-.67 2.416-1.87 3.984-3.6l2.592-12c-.448-.25-.928-.46-1.44-.62-.48-.19-.976-.29-1.488-.29-.768 0-1.632.24-2.592.72-.928.48-1.824 1.17-2.688 2.07-1.152 1.18-2.128 2.68-2.928 4.51-.8 1.82-1.2 3.79-1.2 5.9zm11.52 7.63c-.64 0-1.216-.22-1.728-.67s-.768-1.15-.768-2.11c0-.93.064-1.78.192-2.54-1.376 1.56-2.8 2.84-4.272 3.84-1.44.99-2.816 1.48-4.128 1.48-1.152 0-2.208-.44-3.168-1.34-.928-.9-1.392-2.34-1.392-4.32 0-1.66.304-3.36.912-5.09.64-1.73 1.472-3.37 2.496-4.94 1.056-1.6 2.224-3.03 3.504-4.27 1.312-1.25 2.64-2.23 3.984-2.93 1.376-.74 2.688-1.11 3.936-1.11.544 0 1.04.12 1.488.34s.864.54 1.248.96l2.208-1.78.864.44-3.84 16.94c-.288 1.18-.432 2.1-.432 2.74 0 .32.112.57.336.76.224.2.496.29.816.29.608 0 1.328-.32 2.16-.96.864-.64 1.712-1.47 2.544-2.49l1.152.91c-.608.93-1.344 1.84-2.208 2.73-.864.9-1.792 1.65-2.784 2.26-.992.58-2.032.86-3.12.86zm11.974-2.44c0-.36.032-.77.096-1.25.064-.51.208-1.27.432-2.26l2.88-13.92-4.752-.29.192-1.39 8.16-2.45.624.48-3.408 16.42c-.128.61-.24 1.15-.336 1.63-.064.48-.096.85-.096 1.11 0 .32.112.57.336.76.224.2.464.29.72.29 1.152 0 2.688-1.15 4.608-3.45l1.2.91c-.704.96-1.472 1.89-2.304 2.78-.8.9-1.68 1.63-2.64 2.21-.928.58-1.968.86-3.12.86-.64 0-1.232-.2-1.776-.62s-.816-1.02-.816-1.82zm7.056-28.08c-.768 0-1.392-.24-1.872-.72-.48-.52-.72-1.22-.72-2.12 0-.8.288-1.48.864-2.06.576-.61 1.232-.91 1.968-.91.768 0 1.392.25 1.872.77.48.48.72 1.15.72 2.01 0 .77-.288 1.47-.864 2.11-.576.61-1.232.92-1.968.92z"/></g><path d="m786.849 513.517.196-.952 2.408-.392 3.528-16.632-2.772-.168.112-.812 4.76-1.428.364.28-.672 3.136c.877-1.064 1.82-1.894 2.828-2.492 1.008-.616 1.913-.924 2.716-.924.69 0 1.288.262 1.792.784.504.504.756 1.391.756 2.66 0 .952-.168 1.923-.504 2.912-.336.99-.794 1.942-1.372 2.856-.579.896-1.242 1.708-1.988 2.436-.747.728-1.531 1.307-2.352 1.736-.822.411-1.634.616-2.436.616-.579 0-1.111-.14-1.596-.42-.243 1.195-.448 2.222-.616 3.08-.168.859-.308 1.643-.42 2.352l2.576.42-.224.952zm12.152-18.508c-.579 0-1.26.252-2.044.756-.766.504-1.587 1.223-2.464 2.156l-1.4 6.524c.373.28.737.486 1.092.616.373.112.718.168 1.036.168.709 0 1.372-.196 1.988-.588.634-.392 1.194-.905 1.68-1.54.56-.746.998-1.586 1.316-2.52.336-.952.504-1.913.504-2.884 0-1.792-.57-2.688-1.708-2.688zm15.336 12.124c-.374 0-.719-.121-1.036-.364-.299-.242-.448-.606-.448-1.092 0-.186.009-.401.028-.644.037-.261.102-.625.196-1.092-1.083.99-2.072 1.774-2.968 2.352-.896.56-1.774.84-2.632.84-.523 0-.98-.149-1.372-.448-.374-.298-.56-.83-.56-1.596 0-.522.065-1.101.196-1.736.149-.653.28-1.25.392-1.792l1.288-6.048-2.772-.14.112-.84 4.872-1.4.364.28-1.764 7.924c-.131.579-.234 1.092-.308 1.54-.075.43-.112.803-.112 1.12 0 .803.354 1.204 1.064 1.204.597 0 1.222-.186 1.876-.56.653-.392 1.512-1.008 2.576-1.848l.756-3.724c.186-.896.364-1.792.532-2.688.186-.896.345-1.792.476-2.688l1.82-.56.364.28-1.988 9.576c-.075.355-.14.672-.196.952-.038.28-.056.495-.056.644 0 .187.065.336.196.448.13.112.28.168.448.168.373 0 .784-.168 1.232-.504s.961-.84 1.54-1.512l.672.532c-.43.56-.887 1.102-1.372 1.624-.486.523-1.008.952-1.568 1.288s-1.176.504-1.848.504zm8.504-3.276c0 1.008.467 1.512 1.4 1.512 1.139 0 2.24-.504 3.304-1.512.766-.728 1.372-1.652 1.82-2.772.467-1.12.7-2.249.7-3.388 0-.896-.158-1.568-.476-2.016-.298-.448-.709-.672-1.232-.672-.597 0-1.278.262-2.044.784-.765.523-1.596 1.27-2.492 2.24l-.42 1.932c-.149.71-.27 1.288-.364 1.736-.074.43-.13.812-.168 1.148-.018.318-.028.654-.028 1.008zm.168 3.276c-.634 0-1.185-.205-1.652-.616-.448-.41-.672-.98-.672-1.708 0-.597.056-1.241.168-1.932.131-.709.29-1.53.476-2.464l2.38-11.956-2.772-.196.14-.812 4.844-1.4.308.224-2.156 10.444c.859-1.12 1.792-1.997 2.8-2.632 1.008-.634 1.923-.952 2.744-.952.691 0 1.288.262 1.792.784.504.504.756 1.391.756 2.66 0 .952-.168 1.923-.504 2.912-.336.99-.802 1.942-1.4 2.856-.597.896-1.288 1.708-2.072 2.436s-1.614 1.307-2.492 1.736c-.877.411-1.773.616-2.688.616zm12.744 0c-.429 0-.802-.13-1.12-.392-.298-.28-.448-.69-.448-1.232 0-.205.019-.448.056-.728.056-.28.122-.662.196-1.148l2.016-10.22c.168-.821.327-1.642.476-2.464.15-.84.29-1.68.42-2.52l-2.632-.168.112-.812 4.816-1.4.308.224-3.36 16.66c-.168.747-.252 1.288-.252 1.624 0 .206.066.364.196.476.15.112.318.168.504.168.299 0 .672-.177 1.12-.532.467-.354.98-.849 1.54-1.484l.644.532c-.392.542-.821 1.083-1.288 1.624-.448.523-.942.952-1.484 1.288-.541.336-1.148.504-1.82.504zm6.701-1.428c0-.205.018-.448.056-.728.037-.298.121-.737.252-1.316l1.68-8.12-2.772-.168.112-.812 4.76-1.428.364.28-1.988 9.576c-.075.355-.14.672-.196.952-.038.28-.056.495-.056.644 0 .187.065.336.196.448.13.112.27.168.42.168.672 0 1.568-.672 2.688-2.016l.7.532c-.411.56-.859 1.102-1.344 1.624-.467.523-.98.952-1.54 1.288-.542.336-1.148.504-1.82.504-.374 0-.719-.121-1.036-.364-.318-.242-.476-.597-.476-1.064zm4.116-16.38c-.448 0-.812-.14-1.092-.42-.28-.298-.42-.709-.42-1.232 0-.466.168-.868.504-1.204.336-.354.718-.532 1.148-.532.448 0 .812.15 1.092.448.28.28.42.672.42 1.176 0 .448-.168.859-.504 1.232-.336.355-.719.532-1.148.532zm7.607 17.808c-1.232 0-2.24-.429-3.024-1.288-.784-.877-1.176-2.193-1.176-3.948 0-1.176.205-2.286.616-3.332.41-1.064.961-1.997 1.652-2.8.69-.821 1.465-1.465 2.324-1.932.858-.466 1.726-.7 2.604-.7.858 0 1.54.196 2.044.588.504.374.83.859.98 1.456-.056.355-.206.607-.448.756-.224.15-.467.224-.728.224-.299 0-.588-.093-.868-.28-.262-.205-.523-.448-.784-.728l-.84-.952c-.803.28-1.54.784-2.212 1.512s-1.214 1.606-1.624 2.632c-.411 1.008-.616 2.091-.616 3.248 0 1.214.289 2.119.868 2.716.578.598 1.325.896 2.24.896.746 0 1.4-.224 1.96-.672.578-.448 1.064-.905 1.456-1.372l.644.504c-.56.971-1.307 1.792-2.24 2.464-.934.672-1.876 1.008-2.828 1.008z" fill="#000"/><path d="m135.584 513.517.196-.952 2.408-.392 3.528-16.632-2.772-.168.112-.812 4.76-1.428.364.28-.672 3.136c.877-1.064 1.82-1.894 2.828-2.492 1.008-.616 1.913-.924 2.716-.924.69 0 1.288.262 1.792.784.504.504.756 1.391.756 2.66 0 .952-.168 1.923-.504 2.912-.336.99-.794 1.942-1.372 2.856-.579.896-1.242 1.708-1.988 2.436-.747.728-1.531 1.307-2.352 1.736-.822.411-1.634.616-2.436.616-.579 0-1.111-.14-1.596-.42-.243 1.195-.448 2.222-.616 3.08-.168.859-.308 1.643-.42 2.352l2.576.42-.224.952zm12.152-18.508c-.579 0-1.26.252-2.044.756-.766.504-1.587 1.223-2.464 2.156l-1.4 6.524c.373.28.737.486 1.092.616.373.112.718.168 1.036.168.709 0 1.372-.196 1.988-.588.634-.392 1.194-.905 1.68-1.54.56-.746.998-1.586 1.316-2.52.336-.952.504-1.913.504-2.884 0-1.792-.57-2.688-1.708-2.688zm5.928 11.76 2.38-11.228-2.772-.168.112-.812 4.62-1.428.364.28-.616 3.752c.41-.709.84-1.362 1.288-1.96.466-.616.952-1.11 1.456-1.484.504-.392.998-.588 1.484-.588.392 0 .756.066 1.092.196.336.112.597.327.784.644-.019.467-.159.85-.42 1.148-.243.28-.598.42-1.064.42-.243 0-.514-.065-.812-.196-.28-.149-.56-.326-.84-.532-.672.56-1.288 1.223-1.848 1.988-.56.766-1.092 1.643-1.596 2.632l-.336 1.456c-.206.971-.402 1.951-.588 2.94-.168.971-.346 1.951-.532 2.94l-1.876.224zm11.603-1.064c0-.205.018-.448.056-.728.037-.298.121-.737.252-1.316l1.68-8.12-2.772-.168.112-.812 4.76-1.428.364.28-1.988 9.576c-.075.355-.14.672-.196.952-.038.28-.056.495-.056.644 0 .187.065.336.196.448.13.112.27.168.42.168.672 0 1.568-.672 2.688-2.016l.7.532c-.411.56-.859 1.102-1.344 1.624-.467.523-.98.952-1.54 1.288-.542.336-1.148.504-1.82.504-.374 0-.719-.121-1.036-.364-.318-.242-.476-.597-.476-1.064zm4.116-16.38c-.448 0-.812-.14-1.092-.42-.28-.298-.42-.709-.42-1.232 0-.466.168-.868.504-1.204.336-.354.718-.532 1.148-.532.448 0 .812.15 1.092.448.28.28.42.672.42 1.176 0 .448-.168.859-.504 1.232-.336.355-.719.532-1.148.532zm6.606 17.5c-.056-2.202-.14-4.125-.252-5.768-.112-1.642-.271-3.201-.476-4.676-.056-.56-.15-.914-.28-1.064-.131-.168-.299-.252-.504-.252-.243 0-.504.131-.784.392-.262.243-.635.728-1.12 1.456l-.644-.448c.989-2.221 2.165-3.332 3.528-3.332.578 0 .998.178 1.26.532.28.355.485.915.616 1.68.205 1.251.345 2.688.42 4.312.074 1.624.121 3.248.14 4.872.989-1.157 1.857-2.296 2.604-3.416.746-1.138 1.465-2.352 2.156-3.64.018-.037.028-.065.028-.084.018-.037.037-.065.056-.084l-.196-1.092c-.019-.186-.047-.382-.084-.588-.019-.205-.028-.373-.028-.504 0-.709.13-1.213.392-1.512.28-.317.653-.476 1.12-.476.261 0 .485.038.672.112.186.075.317.159.392.252.093.131.14.392.14.784 0 .187-.028.42-.084.7-.038.28-.159.663-.364 1.148-.187.467-.504 1.12-.952 1.96-.43.822-.999 1.736-1.708 2.744-.691.99-1.466 2.007-2.324 3.052-.859 1.027-1.764 2.026-2.716 2.996l-.812.084zm11.667-4.144c0 .859.149 1.494.448 1.904.317.411.728.616 1.232.616.485 0 1.045-.196 1.68-.588.634-.392 1.409-1.092 2.324-2.1l1.512-7c-.262-.149-.542-.27-.84-.364-.28-.112-.57-.168-.868-.168-.448 0-.952.14-1.512.42-.542.28-1.064.682-1.568 1.204-.672.691-1.242 1.568-1.708 2.632-.467 1.064-.7 2.212-.7 3.444zm6.72 4.452c-.374 0-.71-.13-1.008-.392-.299-.261-.448-.672-.448-1.232 0-.541.037-1.036.112-1.484-.803.915-1.634 1.662-2.492 2.24-.84.579-1.643.868-2.408.868-.672 0-1.288-.261-1.848-.784-.542-.522-.812-1.362-.812-2.52 0-.97.177-1.96.532-2.968.373-1.008.858-1.969 1.456-2.884.616-.933 1.297-1.764 2.044-2.492.765-.728 1.54-1.297 2.324-1.708.802-.429 1.568-.644 2.296-.644.317 0 .606.066.868.196.261.131.504.318.728.56l1.288-1.036.504.252-2.24 9.884c-.168.691-.252 1.223-.252 1.596 0 .187.065.336.196.448.13.112.289.168.476.168.354 0 .774-.186 1.26-.56.504-.373.998-.858 1.484-1.456l.672.532c-.355.542-.784 1.074-1.288 1.596-.504.523-1.046.962-1.624 1.316-.579.336-1.186.504-1.82.504zm7.128-3.472 1.876-8.792h-2.856l.196-1.12 3.024-.28 1.316-3.752h1.428l-.812 3.78h3.556l-.224 1.512-3.612-.112-1.708 8.036c-.168.747-.252 1.288-.252 1.624 0 .206.065.364.196.476.149.112.308.168.476.168.709 0 1.624-.672 2.744-2.016l.7.532c-.392.56-.84 1.102-1.344 1.624-.504.523-1.046.952-1.624 1.288-.579.336-1.186.504-1.82.504-.411 0-.775-.121-1.092-.364-.299-.242-.448-.597-.448-1.064 0-.205.018-.448.056-.728.037-.298.112-.737.224-1.316zm14.619-9.324c-.43 0-.906.168-1.428.504-.504.336-.999.803-1.484 1.4-.486.598-.896 1.288-1.232 2.072-.318.766-.514 1.587-.588 2.464 1.549-.448 2.781-.942 3.696-1.484.933-.56 1.596-1.12 1.988-1.68.41-.578.616-1.12.616-1.624 0-.522-.15-.924-.448-1.204-.28-.298-.654-.448-1.12-.448zm-2.464 12.796c-1.232 0-2.25-.42-3.052-1.26-.784-.84-1.176-2.156-1.176-3.948 0-1.12.196-2.202.588-3.248.392-1.064.924-2.006 1.596-2.828.672-.84 1.446-1.502 2.324-1.988.896-.485 1.829-.728 2.8-.728.914 0 1.605.224 2.072.672.485.448.728 1.083.728 1.904 0 .598-.234 1.26-.7 1.988-.467.71-1.298 1.428-2.492 2.156-1.176.728-2.828 1.4-4.956 2.016.056 1.195.336 2.054.84 2.576.504.504 1.185.756 2.044.756.877 0 1.633-.224 2.268-.672.634-.448 1.138-.905 1.512-1.372l.644.504c-.579.952-1.307 1.774-2.184 2.464-.878.672-1.83 1.008-2.856 1.008z" fill="#000"/><path clip-rule="evenodd" d="m518.75 8.8253c-8.509-4.91241-18.991-4.91241-27.5-.00001l-229.808 132.67971c-8.508 4.912-13.75 13.991-13.75 23.815v76.872c0 1.381-1.119 2.5-2.5 2.5h-79.871c-9.825 0-18.904 5.242-23.816 13.75l-132.6797 229.808c-4.9124 8.508-4.91241 18.991-.00001 27.5l132.67971 229.808c4.912 8.508 13.991 13.75 23.815 13.75h79.872c1.381 0 2.5 1.119 2.5 2.5v82.871c0 9.825 5.242 18.904 13.75 23.816l229.808 132.675c8.509 4.92 18.991 4.92 27.5 0l229.808-132.675c8.508-4.912 13.75-13.991 13.75-23.815v-82.872c0-1.381 1.119-2.5 2.5-2.5h76.871c9.825 0 18.904-5.242 23.816-13.75l132.68-229.808c4.915-8.509 4.915-18.991 0-27.5l-132.68-229.808c-4.912-8.508-13.991-13.75-23.815-13.75h-76.872c-1.381 0-2.5-1.119-2.5-2.5v-76.872c0-9.824-5.242-18.903-13.75-23.815zm-30-4.33014c10.056-5.80557 22.444-5.80555 32.5.00001l229.808 132.67983c10.055 5.805 16.25 16.534 16.25 28.145v74.372h74.372c11.611 0 22.34 6.195 28.145 16.25l132.675 229.808c5.81 10.056 5.81 22.444 0 32.5l-132.675 229.808c-5.805 10.055-16.534 16.25-28.146 16.25h-74.371v80.372c0 11.611-6.195 22.34-16.25 28.145l-229.808 132.675c-10.056 5.81-22.444 5.81-32.5 0l-229.808-132.675c-10.055-5.805-16.25-16.534-16.25-28.146v-80.371h-77.372c-11.611 0-22.34-6.195-28.145-16.25l-132.67984-229.808c-5.80557-10.056-5.80555-22.445.00001-32.5l132.67983-229.808c5.805-10.055 16.534-16.25 28.146-16.25h77.371v-74.372c0-11.611 6.195-22.34 16.25-28.145z" fill="#bd0611" fill-rule="evenodd"/></svg>