<svg fill="none" height="150" viewBox="0 0 275 150" width="275" xmlns="http://www.w3.org/2000/svg"><g fill="#021740" fill-opacity=".1"><path d="m10 48h255v41h-255z"/><path d="m10 98h255v41h-255z"/><path d="m170 10h95v129h-95z"/><path d="m65 10h95v129h-95z"/></g><path d="m92.0962 73.169.063-.306.774-.126 1.134-5.346-.891-.054.036-.261 1.53-.459.117.09-.216 1.008c.282-.342.585-.609.909-.801.324-.198.615-.297.873-.297.222 0 .414.084.576.252.162.162.243.447.243.855 0 .306-.054.618-.162.936s-.255.624-.441.918c-.186.288-.399.549-.639.783s-.492.42-.756.558c-.264.132-.525.198-.783.198-.186 0-.357-.045-.513-.135-.078.384-.144.714-.198.99s-.099.528-.135.756l.828.135-.072.306zm3.906-5.949c-.186 0-.405.081-.657.243-.246.162-.51.393-.792.693l-.45 2.097c.12.09.237.156.351.198.12.036.231.054.333.054.228 0 .441-.063.639-.189.204-.126.384-.291.54-.495.18-.24.321-.51.423-.81.108-.306.162-.615.162-.927 0-.576-.183-.864-.549-.864zm3.9463-.216c-.138 0-.291.054-.459.162-.162.108-.321.258-.477.45s-.288.414-.396.666c-.102.246-.165.51-.189.792.498-.144.894-.303 1.188-.477.3-.18.5135-.36.6395-.54.132-.186.198-.36.198-.522 0-.168-.048-.297-.144-.387-.09-.096-.21-.144-.3605-.144zm-.792 4.113c-.396 0-.723-.135-.981-.405-.252-.27-.378-.693-.378-1.269 0-.36.063-.708.189-1.044.126-.342.297-.645.513-.909.216-.27.465-.483.747-.639.288-.156.588-.234.9005-.234.294 0 .516.072.666.216.156.144.234.348.234.612 0 .192-.075.405-.225.639-.15.228-.417.459-.801.693-.3785.234-.9095.45-1.5935.648.018.384.108.66.27.828.162.162.381.243.657.243.282 0 .525-.072.7295-.216.204-.144.366-.291.486-.441l.207.162c-.186.306-.42.57-.702.792-.2825.216-.5885.324-.9185.324zm2.5045-.117.765-3.609-.891-.054.036-.261 1.485-.459.117.09-.198 1.206c.132-.228.27-.438.414-.63.15-.198.306-.357.468-.477.162-.126.321-.189.477-.189.126 0 .243.021.351.063.108.036.192.105.252.207-.006.15-.051.273-.135.369-.078.09-.192.135-.342.135-.078 0-.165-.021-.261-.063-.09-.048-.18-.105-.27-.171-.216.18-.414.393-.594.639s-.351.528-.513.846l-.108.468c-.066.312-.129.627-.189.945-.054.312-.111.627-.171.945l-.603.072zm8.787.117c-.144 0-.258-.036-.342-.108-.078-.072-.117-.165-.117-.279 0-.102.012-.201.036-.297.03-.102.066-.246.108-.432l.387-1.584c.036-.156.069-.303.099-.441s.045-.252.045-.342c0-.156-.027-.264-.081-.324s-.132-.09-.234-.09c-.294 0-.759.264-1.395.792l-.234 1.098c-.072.312-.138.627-.198.945-.06.312-.12.627-.18.945l-.585.072-.09-.072.621-2.934c.012-.078.027-.156.045-.234s.027-.153.027-.225c0-.144-.027-.243-.081-.297-.054-.06-.132-.09-.234-.09-.162 0-.369.066-.621.198-.246.132-.534.333-.864.603l-.243 1.089c-.066.312-.129.627-.189.945-.054.312-.111.627-.171.945l-.603.072-.09-.072.765-3.609-.891-.054.036-.261 1.53-.459.117.09-.189.927c.294-.282.612-.522.954-.72s.651-.297.927-.297c.378 0 .567.207.567.621 0 .06-.006.123-.018.189-.006.06-.015.123-.027.189.282-.276.582-.51.9-.702.324-.198.621-.297.891-.297.378 0 .567.207.567.621 0 .144-.018.291-.054.441-.03.144-.063.291-.099.441l-.405 1.665c-.03.126-.057.234-.081.324-.024.084-.036.15-.036.198 0 .06.018.108.054.144.036.03.078.045.126.045.228 0 .522-.216.882-.648l.216.171c-.126.18-.27.354-.432.522-.156.168-.327.306-.513.414s-.387.162-.603.162zm2.307-.459c0-.066.006-.144.018-.234.012-.096.039-.237.081-.423l.54-2.61-.891-.054.036-.261 1.53-.459.117.09-.639 3.078c-.024.114-.045.216-.063.306-.012.09-.018.159-.018.207 0 .06.021.108.063.144s.087.054.135.054c.216 0 .504-.216.864-.648l.225.171c-.132.18-.276.354-.432.522-.15.168-.315.306-.495.414-.174.108-.369.162-.585.162-.12 0-.231-.039-.333-.117s-.153-.192-.153-.342zm1.323-5.265c-.144 0-.261-.045-.351-.135-.09-.096-.135-.228-.135-.396 0-.15.054-.279.162-.387.108-.114.231-.171.369-.171.144 0 .261.048.351.144.09.09.135.216.135.378 0 .144-.054.276-.162.396-.108.114-.231.171-.369.171zm3.571 4.446c0 .372-.141.678-.423.918-.276.24-.642.36-1.098.36-.348 0-.615-.081-.801-.243-.18-.162-.285-.378-.315-.648.024-.078.066-.138.126-.18.066-.048.135-.072.207-.072.132 0 .228.036.288.108.066.066.114.162.144.288l.098.387c.019.006.037.009.055.009h.072c.312 0 .555-.069.729-.207s.261-.324.261-.558c0-.144-.033-.282-.099-.414s-.228-.291-.486-.477c-.222-.174-.411-.351-.567-.531-.15-.186-.225-.42-.225-.702 0-.234.06-.447.18-.639s.285-.342.495-.45c.216-.114.468-.171.756-.171.264 0 .492.06.684.18.192.114.321.318.387.612-.054.168-.168.252-.342.252-.21 0-.363-.141-.459-.423l-.081-.261c-.018-.006-.039-.009-.063-.009-.018 0-.039 0-.063 0-.312 0-.534.072-.666.216-.126.144-.189.318-.189.522 0 .186.045.342.135.468.096.12.273.276.531.468.27.204.459.39.567.558.108.162.162.375.162.639zm3.243 0c0 .372-.141.678-.423.918-.276.24-.642.36-1.098.36-.348 0-.615-.081-.801-.243-.18-.162-.285-.378-.315-.648.024-.078.066-.138.126-.18.066-.048.135-.072.207-.072.132 0 .228.036.288.108.066.066.114.162.144.288l.099.387c.018.006.036.009.054.009h.072c.312 0 .555-.069.729-.207s.261-.324.261-.558c0-.144-.033-.282-.099-.414s-.228-.291-.486-.477c-.222-.174-.411-.351-.567-.531-.15-.186-.225-.42-.225-.702 0-.234.06-.447.18-.639s.285-.342.495-.45c.216-.114.468-.171.756-.171.264 0 .492.06.684.18.192.114.321.318.387.612-.054.168-.168.252-.342.252-.21 0-.363-.141-.459-.423l-.081-.261c-.018-.006-.039-.009-.063-.009-.018 0-.039 0-.063 0-.312 0-.534.072-.666.216-.126.144-.189.318-.189.522 0 .186.045.342.135.468.096.12.273.276.531.468.27.204.459.39.567.558.108.162.162.375.162.639zm1.092.819c0-.066.006-.144.018-.234.012-.096.039-.237.081-.423l.54-2.61-.891-.054.036-.261 1.53-.459.117.09-.639 3.078c-.024.114-.045.216-.063.306-.012.09-.018.159-.018.207 0 .06.021.108.063.144s.087.054.135.054c.216 0 .504-.216.864-.648l.225.171c-.132.18-.276.354-.432.522-.15.168-.315.306-.495.414-.174.108-.369.162-.585.162-.12 0-.231-.039-.333-.117s-.153-.192-.153-.342zm1.323-5.265c-.144 0-.261-.045-.351-.135-.09-.096-.135-.228-.135-.396 0-.15.054-.279.162-.387.108-.114.231-.171.369-.171.144 0 .261.048.351.144.09.09.135.216.135.378 0 .144-.054.276-.162.396-.108.114-.231.171-.369.171zm2.598 5.724c-.276 0-.528-.06-.756-.18s-.411-.297-.549-.531c-.132-.24-.198-.531-.198-.873 0-.408.06-.786.18-1.134.126-.354.297-.663.513-.927.216-.27.465-.48.747-.63.288-.15.591-.225.909-.225.426 0 .774.135 1.044.405.276.27.414.66.414 1.17 0 .39-.06.762-.18 1.116-.12.348-.288.66-.504.936-.21.27-.453.483-.729.639s-.573.234-.891.234zm.099-.36c.222 0 .423-.069.603-.207s.333-.324.459-.558c.132-.234.234-.495.306-.783s.108-.582.108-.882c0-.486-.078-.831-.234-1.035-.15-.21-.348-.315-.594-.315-.282 0-.54.111-.774.333-.228.222-.408.519-.54.891-.132.366-.198.774-.198 1.224 0 .474.081.816.243 1.026.162.204.369.306.621.306zm3.684.243-.603.072-.09-.072.765-3.609-.891-.054.036-.261 1.53-.459.117.09-.189.927c.3-.282.618-.522.954-.72.342-.198.651-.297.927-.297.384 0 .576.207.576.621 0 .144-.015.291-.045.441-.03.144-.063.291-.099.441l-.405 1.665c-.03.126-.057.234-.081.324-.024.084-.036.15-.036.198 0 .126.057.189.171.189s.249-.057.405-.171c.162-.114.324-.273.486-.477l.216.171c-.114.174-.255.348-.423.522-.162.168-.339.306-.531.414s-.393.162-.603.162c-.138 0-.249-.036-.333-.108-.078-.072-.117-.165-.117-.279 0-.102.012-.201.036-.297.03-.102.066-.246.108-.432l.387-1.584c.036-.156.069-.303.099-.441s.045-.252.045-.342c0-.156-.027-.264-.081-.324s-.132-.09-.234-.09c-.162 0-.369.066-.621.198s-.543.333-.873.603l-.243 1.089c-.066.312-.129.627-.189.945-.054.312-.111.627-.171.945z" fill="#bd0611"/><path d="m96.0131 120.658c0-.066.006-.144.018-.234.012-.096.039-.237.081-.423l.54-2.61-.891-.054.036-.261 1.53-.459.117.09-.639 3.078c-.024.114-.045.216-.063.306-.012.09-.018.159-.018.207 0 .06.021.108.063.144s.087.054.135.054c.216 0 .504-.216.864-.648l.225.171c-.132.18-.276.354-.432.522-.15.168-.315.306-.495.414-.174.108-.369.162-.585.162-.12 0-.231-.039-.333-.117s-.153-.192-.153-.342zm1.323-5.265c-.144 0-.261-.045-.351-.135-.09-.096-.135-.228-.135-.396 0-.15.054-.279.162-.387.108-.114.231-.171.369-.171.144 0 .261.048.351.144.09.09.135.216.135.378 0 .144-.054.276-.162.396-.108.114-.231.171-.369.171zm1.9862 5.607-.603.072-.09-.072.765-3.609-.891-.054.036-.261 1.5297-.459.117.09-.1887.927c.2997-.282.6177-.522.9537-.72.342-.198.651-.297.927-.297.384 0 .576.207.576.621 0 .144-.015.291-.045.441-.03.144-.063.291-.099.441l-.405 1.665c-.03.126-.057.234-.081.324-.024.084-.036.15-.036.198 0 .126.057.189.171.189s.249-.057.405-.171c.162-.114.324-.273.486-.477l.216.171c-.114.174-.255.348-.423.522-.162.168-.339.306-.531.414s-.393.162-.603.162c-.138 0-.249-.036-.333-.108-.078-.072-.117-.165-.117-.279 0-.102.012-.201.036-.297.03-.102.066-.246.108-.432l.387-1.584c.036-.156.069-.303.099-.441s.045-.252.045-.342c0-.156-.027-.264-.081-.324s-.132-.09-.234-.09c-.162 0-.369.066-.621.198s-.543.333-.8727.603l-.243 1.089c-.066.312-.129.627-.189.945-.054.312-.111.627-.171.945zm4.5507-.999.603-2.826h-.918l.063-.36.972-.09.423-1.206h.459l-.261 1.215h1.143l-.072.486-1.161-.036-.549 2.583c-.054.24-.081.414-.081.522 0 .066.021.117.063.153.048.036.099.054.153.054.228 0 .522-.216.882-.648l.225.171c-.126.18-.27.354-.432.522s-.336.306-.522.414-.381.162-.585.162c-.132 0-.249-.039-.351-.117-.096-.078-.144-.192-.144-.342 0-.066.006-.144.018-.234.012-.096.036-.237.072-.423zm4.699-2.997c-.138 0-.291.054-.459.162-.162.108-.321.258-.477.45s-.288.414-.396.666c-.102.246-.165.51-.189.792.498-.144.894-.303 1.188-.477.3-.18.513-.36.639-.54.132-.186.198-.36.198-.522 0-.168-.048-.297-.144-.387-.09-.096-.21-.144-.36-.144zm-.792 4.113c-.396 0-.723-.135-.981-.405-.252-.27-.378-.693-.378-1.269 0-.36.063-.708.189-1.044.126-.342.297-.645.513-.909.216-.27.465-.483.747-.639.288-.156.588-.234.9-.234.294 0 .516.072.666.216.156.144.234.348.234.612 0 .192-.075.405-.225.639-.15.228-.417.459-.801.693-.378.234-.909.45-1.593.648.018.384.108.66.27.828.162.162.381.243.657.243.282 0 .525-.072.729-.216s.366-.291.486-.441l.207.162c-.186.306-.42.57-.702.792-.282.216-.588.324-.918.324zm3.197-.117-.603.072-.09-.072.765-3.609-.891-.054.036-.261 1.53-.459.117.09-.189.927c.3-.282.618-.522.954-.72.342-.198.651-.297.927-.297.384 0 .576.207.576.621 0 .144-.015.291-.045.441-.03.144-.063.291-.099.441l-.405 1.665c-.03.126-.057.234-.081.324-.024.084-.036.15-.036.198 0 .126.057.189.171.189s.249-.057.405-.171c.162-.114.324-.273.486-.477l.216.171c-.114.174-.255.348-.423.522-.162.168-.339.306-.531.414s-.393.162-.603.162c-.138 0-.249-.036-.333-.108-.078-.072-.117-.165-.117-.279 0-.102.012-.201.036-.297.03-.102.066-.246.108-.432l.387-1.584c.036-.156.069-.303.099-.441s.045-.252.045-.342c0-.156-.027-.264-.081-.324s-.132-.09-.234-.09c-.162 0-.369.066-.621.198s-.543.333-.873.603l-.243 1.089c-.066.312-.129.627-.189.945-.054.312-.111.627-.171.945zm4.55-.999.603-2.826h-.918l.063-.36.972-.09.423-1.206h.459l-.261 1.215h1.143l-.072.486-1.161-.036-.549 2.583c-.054.24-.081.414-.081.522 0 .066.021.117.063.153.048.036.099.054.153.054.228 0 .522-.216.882-.648l.225.171c-.126.18-.27.354-.432.522s-.336.306-.522.414-.381.162-.585.162c-.132 0-.249-.039-.351-.117-.096-.078-.144-.192-.144-.342 0-.066.006-.144.018-.234.012-.096.036-.237.072-.423zm2.872.657c0-.066.006-.144.018-.234.012-.096.039-.237.081-.423l.54-2.61-.891-.054.036-.261 1.53-.459.117.09-.639 3.078c-.024.114-.045.216-.063.306-.012.09-.018.159-.018.207 0 .06.021.108.063.144s.087.054.135.054c.216 0 .504-.216.864-.648l.225.171c-.132.18-.276.354-.432.522-.15.168-.315.306-.495.414-.174.108-.369.162-.585.162-.12 0-.231-.039-.333-.117s-.153-.192-.153-.342zm1.323-5.265c-.144 0-.261-.045-.351-.135-.09-.096-.135-.228-.135-.396 0-.15.054-.279.162-.387.108-.114.231-.171.369-.171.144 0 .261.048.351.144.09.09.135.216.135.378 0 .144-.054.276-.162.396-.108.114-.231.171-.369.171zm2.598 5.724c-.276 0-.528-.06-.756-.18s-.411-.297-.549-.531c-.132-.24-.198-.531-.198-.873 0-.408.06-.786.18-1.134.126-.354.297-.663.513-.927.216-.27.465-.48.747-.63.288-.15.591-.225.909-.225.426 0 .774.135 1.044.405.276.27.414.66.414 1.17 0 .39-.06.762-.18 1.116-.12.348-.288.66-.504.936-.21.27-.453.483-.729.639s-.573.234-.891.234zm.099-.36c.222 0 .423-.069.603-.207s.333-.324.459-.558c.132-.234.234-.495.306-.783s.108-.582.108-.882c0-.486-.078-.831-.234-1.035-.15-.21-.348-.315-.594-.315-.282 0-.54.111-.774.333-.228.222-.408.519-.54.891-.132.366-.198.774-.198 1.224 0 .474.081.816.243 1.026.162.204.369.306.621.306zm3.684.243-.603.072-.09-.072.765-3.609-.891-.054.036-.261 1.53-.459.117.09-.189.927c.3-.282.618-.522.954-.72.342-.198.651-.297.927-.297.384 0 .576.207.576.621 0 .144-.015.291-.045.441-.03.144-.063.291-.099.441l-.405 1.665c-.03.126-.057.234-.081.324-.024.084-.036.15-.036.198 0 .126.057.189.171.189s.249-.057.405-.171c.162-.114.324-.273.486-.477l.216.171c-.114.174-.255.348-.423.522-.162.168-.339.306-.531.414s-.393.162-.603.162c-.138 0-.249-.036-.333-.108-.078-.072-.117-.165-.117-.279 0-.102.012-.201.036-.297.03-.102.066-.246.108-.432l.387-1.584c.036-.156.069-.303.099-.441s.045-.252.045-.342c0-.156-.027-.264-.081-.324s-.132-.09-.234-.09c-.162 0-.369.066-.621.198s-.543.333-.873.603l-.243 1.089c-.066.312-.129.627-.189.945-.054.312-.111.627-.171.945z" fill="#bd0611"/><path d="m200.488 64.25c.264 0 .489.069.675.207.192.132.306.282.342.45-.06.204-.177.306-.351.306-.132 0-.249-.039-.351-.117-.096-.078-.216-.204-.36-.378l-.144-.171c-.15.066-.294.177-.432.333-.138.15-.264.366-.378.648-.108.276-.201.645-.279 1.107-.006.018-.009.036-.009.054 0 .012-.003.027-.009.045h1.161l-.072.477-1.161-.036c-.096.57-.192 1.155-.288 1.755s-.201 1.185-.315 1.755c-.096.48-.213.897-.351 1.251-.132.354-.324.645-.576.873-.186.168-.354.282-.504.342-.156.066-.306.099-.45.099-.204 0-.384-.051-.54-.153s-.255-.237-.297-.405c.018-.096.069-.174.153-.234.078-.06.165-.09.261-.09.132 0 .252.036.36.108.102.072.201.159.297.261l.108.108c.06-.048.12-.105.18-.171.066-.06.129-.132.189-.216.114-.168.213-.39.297-.666.084-.27.168-.639.252-1.107.108-.606.207-1.194.297-1.764.096-.57.192-1.158.288-1.764h-.936l.072-.342.936-.081.009-.081c.078-.498.192-.903.342-1.215.156-.318.327-.561.513-.729.192-.174.381-.294.567-.36.192-.066.36-.099.504-.099zm1.304 6.867c-.276 0-.528-.06-.756-.18s-.411-.297-.549-.531c-.132-.24-.198-.531-.198-.873 0-.408.06-.786.18-1.134.126-.354.297-.663.513-.927.216-.27.465-.48.747-.63.288-.15.591-.225.909-.225.426 0 .774.135 1.044.405.276.27.414.66.414 1.17 0 .39-.06.762-.18 1.116-.12.348-.288.66-.504.936-.21.27-.453.483-.729.639s-.573.234-.891.234zm.099-.36c.222 0 .423-.069.603-.207s.333-.324.459-.558c.132-.234.234-.495.306-.783s.108-.582.108-.882c0-.486-.078-.831-.234-1.035-.15-.21-.348-.315-.594-.315-.282 0-.54.111-.774.333-.228.222-.408.519-.54.891-.132.366-.198.774-.198 1.224 0 .474.081.816.243 1.026.162.204.369.306.621.306zm2.991.243.765-3.609-.891-.054.036-.261 1.485-.459.117.09-.198 1.206c.132-.228.27-.438.414-.63.15-.198.306-.357.468-.477.162-.126.321-.189.477-.189.126 0 .243.021.351.063.108.036.192.105.252.207-.006.15-.051.273-.135.369-.078.09-.192.135-.342.135-.078 0-.165-.021-.261-.063-.09-.048-.18-.105-.27-.171-.216.18-.414.393-.594.639s-.351.528-.513.846l-.108.468c-.066.312-.129.627-.189.945-.054.312-.111.627-.171.945l-.603.072zm4.894-1.683c.282-.006.504-.138.666-.396.168-.258.252-.624.252-1.098 0-.288-.069-.513-.207-.675-.132-.168-.294-.249-.486-.243-.312.006-.546.144-.702.414-.156.264-.234.606-.234 1.026 0 .66.237.984.711.972zm-1.404-.927c0-.33.075-.627.225-.891.156-.27.363-.483.621-.639.258-.162.543-.243.855-.243.288 0 .531.075.729.225.198.144.327.351.387.621.084-.354.201-.6.351-.738.156-.138.318-.207.486-.207.12 0 .21.018.27.054.054.066.081.129.081.189 0 .18-.078.309-.234.387-.15.078-.369.159-.657.243-.03.078-.057.162-.081.252-.024.084-.048.177-.072.279-.132.582-.348 1.008-.648 1.278-.294.27-.621.405-.981.405-.27 0-.501-.045-.693-.135-.096.114-.159.207-.189.279-.024.072-.036.141-.036.207 0 .078.033.159.099.243s.189.138.369.162l.891.108c.48.06.819.174 1.017.342.204.168.306.381.306.639 0 .312-.114.597-.342.855-.222.264-.531.474-.927.63-.39.156-.834.234-1.332.234-.42 0-.771-.078-1.053-.234-.276-.156-.414-.396-.414-.72 0-.27.111-.528.333-.774.222-.24.489-.435.801-.585-.156-.078-.261-.171-.315-.279-.054-.114-.081-.219-.081-.315 0-.168.06-.324.18-.468.12-.15.285-.3.495-.45-.294-.21-.441-.528-.441-.954zm-.27 3.528c0 .258.102.459.306.603.204.15.489.225.855.225.48 0 .864-.087 1.152-.261s.432-.405.432-.693c0-.114-.033-.219-.099-.315-.06-.096-.171-.18-.333-.252s-.399-.126-.711-.162l-.72-.081c-.024-.006-.051-.009-.081-.009-.024-.006-.048-.012-.072-.018-.24.156-.423.306-.549.45-.12.15-.18.321-.18.513zm4.71-1.26c0-.066.006-.144.018-.234.012-.096.039-.237.081-.423l.54-2.61-.891-.054.036-.261 1.53-.459.117.09-.639 3.078c-.024.114-.045.216-.063.306-.012.09-.018.159-.018.207 0 .06.021.108.063.144s.087.054.135.054c.216 0 .504-.216.864-.648l.225.171c-.132.18-.276.354-.432.522-.15.168-.315.306-.495.414-.174.108-.369.162-.585.162-.12 0-.231-.039-.333-.117s-.153-.192-.153-.342zm1.323-5.265c-.144 0-.261-.045-.351-.135-.09-.096-.135-.228-.135-.396 0-.15.054-.279.162-.387.108-.114.231-.171.369-.171.144 0 .261.048.351.144.09.09.135.216.135.378 0 .144-.054.276-.162.396-.108.114-.231.171-.369.171zm2.124 5.625c-.018-.708-.045-1.326-.081-1.854s-.087-1.029-.153-1.503c-.018-.18-.048-.294-.09-.342-.042-.054-.096-.081-.162-.081-.078 0-.162.042-.252.126-.084.078-.204.234-.36.468l-.207-.144c.318-.714.696-1.071 1.134-1.071.186 0 .321.057.405.171.09.114.156.294.198.54.066.402.111.864.135 1.386s.039 1.044.045 1.566c.318-.372.597-.738.837-1.098.24-.366.471-.756.693-1.17.006-.012.009-.021.009-.027.006-.012.012-.021.018-.027l-.063-.351c-.006-.06-.015-.123-.027-.189-.006-.066-.009-.12-.009-.162 0-.228.042-.39.126-.486.09-.102.21-.153.36-.153.084 0 .156.012.216.036s.102.051.126.081c.03.042.045.126.045.252 0 .06-.009.135-.027.225-.012.09-.051.213-.117.369-.06.15-.162.36-.306.63-.138.264-.321.558-.549.882-.222.318-.471.645-.747.981-.276.33-.567.651-.873.963l-.261.027zm5.333-4.014c-.138 0-.291.054-.459.162-.162.108-.321.258-.477.45s-.288.414-.396.666c-.102.246-.165.51-.189.792.498-.144.894-.303 1.188-.477.3-.18.513-.36.639-.54.132-.186.198-.36.198-.522 0-.168-.048-.297-.144-.387-.09-.096-.21-.144-.36-.144zm-.792 4.113c-.396 0-.723-.135-.981-.405-.252-.27-.378-.693-.378-1.269 0-.36.063-.708.189-1.044.126-.342.297-.645.513-.909.216-.27.465-.483.747-.639.288-.156.588-.234.9-.234.294 0 .516.072.666.216.156.144.234.348.234.612 0 .192-.075.405-.225.639-.15.228-.417.459-.801.693-.378.234-.909.45-1.593.648.018.384.108.66.27.828.162.162.381.243.657.243.282 0 .525-.072.729-.216s.366-.291.486-.441l.207.162c-.186.306-.42.57-.702.792-.282.216-.588.324-.918.324zm3.197-.117-.603.072-.09-.072.765-3.609-.891-.054.036-.261 1.53-.459.117.09-.189.927c.3-.282.618-.522.954-.72.342-.198.651-.297.927-.297.384 0 .576.207.576.621 0 .144-.015.291-.045.441-.03.144-.063.291-.099.441l-.405 1.665c-.03.126-.057.234-.081.324-.024.084-.036.15-.036.198 0 .126.057.189.171.189s.249-.057.405-.171c.162-.114.324-.273.486-.477l.216.171c-.114.174-.255.348-.423.522-.162.168-.339.306-.531.414s-.393.162-.603.162c-.138 0-.249-.036-.333-.108-.078-.072-.117-.165-.117-.279 0-.102.012-.201.036-.297.03-.102.066-.246.108-.432l.387-1.584c.036-.156.069-.303.099-.441s.045-.252.045-.342c0-.156-.027-.264-.081-.324s-.132-.09-.234-.09c-.162 0-.369.066-.621.198s-.543.333-.873.603l-.243 1.089c-.066.312-.129.627-.189.945-.054.312-.111.627-.171.945zm6.331-3.996c-.138 0-.291.054-.459.162-.162.108-.321.258-.477.45s-.288.414-.396.666c-.102.246-.165.51-.189.792.498-.144.894-.303 1.188-.477.3-.18.513-.36.639-.54.132-.186.198-.36.198-.522 0-.168-.048-.297-.144-.387-.09-.096-.21-.144-.36-.144zm-.792 4.113c-.396 0-.723-.135-.981-.405-.252-.27-.378-.693-.378-1.269 0-.36.063-.708.189-1.044.126-.342.297-.645.513-.909.216-.27.465-.483.747-.639.288-.156.588-.234.9-.234.294 0 .516.072.666.216.156.144.234.348.234.612 0 .192-.075.405-.225.639-.15.228-.417.459-.801.693-.378.234-.909.45-1.593.648.018.384.108.66.27.828.162.162.381.243.657.243.282 0 .525-.072.729-.216s.366-.291.486-.441l.207.162c-.186.306-.42.57-.702.792-.282.216-.588.324-.918.324zm4.781-1.278c0 .372-.141.678-.423.918-.276.24-.642.36-1.098.36-.348 0-.615-.081-.801-.243-.18-.162-.285-.378-.315-.648.024-.078.066-.138.126-.18.066-.048.135-.072.207-.072.132 0 .228.036.288.108.066.066.114.162.144.288l.099.387c.018.006.036.009.054.009h.072c.312 0 .555-.069.729-.207s.261-.324.261-.558c0-.144-.033-.282-.099-.414s-.228-.291-.486-.477c-.222-.174-.411-.351-.567-.531-.15-.186-.225-.42-.225-.702 0-.234.06-.447.18-.639s.285-.342.495-.45c.216-.114.468-.171.756-.171.264 0 .492.06.684.18.192.114.321.318.387.612-.054.168-.168.252-.342.252-.21 0-.363-.141-.459-.423l-.081-.261c-.018-.006-.039-.009-.063-.009-.018 0-.039 0-.063 0-.312 0-.534.072-.666.216-.126.144-.189.318-.189.522 0 .186.045.342.135.468.096.12.273.276.531.468.27.204.459.39.567.558.108.162.162.375.162.639zm3.243 0c0 .372-.141.678-.423.918-.276.24-.642.36-1.098.36-.348 0-.615-.081-.801-.243-.18-.162-.285-.378-.315-.648.024-.078.066-.138.126-.18.066-.048.135-.072.207-.072.132 0 .228.036.288.108.066.066.114.162.144.288l.099.387c.018.006.036.009.054.009h.072c.312 0 .555-.069.729-.207s.261-.324.261-.558c0-.144-.033-.282-.099-.414s-.228-.291-.486-.477c-.222-.174-.411-.351-.567-.531-.15-.186-.225-.42-.225-.702 0-.234.06-.447.18-.639s.285-.342.495-.45c.216-.114.468-.171.756-.171.264 0 .492.06.684.18.192.114.321.318.387.612-.054.168-.168.252-.342.252-.21 0-.363-.141-.459-.423l-.081-.261c-.018-.006-.039-.009-.063-.009-.018 0-.039 0-.063 0-.312 0-.534.072-.666.216-.126.144-.189.318-.189.522 0 .186.045.342.135.468.096.12.273.276.531.468.27.204.459.39.567.558.108.162.162.375.162.639z" fill="#bd0611"/><path d="m197.611 117.004c-.138 0-.291.054-.459.162-.162.108-.321.258-.477.45s-.288.414-.396.666c-.102.246-.165.51-.189.792.498-.144.894-.303 1.188-.477.3-.18.513-.36.639-.54.132-.186.198-.36.198-.522 0-.168-.048-.297-.144-.387-.09-.096-.21-.144-.36-.144zm-.792 4.113c-.396 0-.723-.135-.981-.405-.252-.27-.378-.693-.378-1.269 0-.36.063-.708.189-1.044.126-.342.297-.645.513-.909.216-.27.465-.483.747-.639.288-.156.588-.234.9-.234.294 0 .516.072.666.216.156.144.234.348.234.612 0 .192-.075.405-.225.639-.15.228-.417.459-.801.693-.378.234-.909.45-1.593.648.018.384.108.66.27.828.162.162.381.243.657.243.282 0 .525-.072.729-.216s.366-.291.486-.441l.207.162c-.186.306-.42.57-.702.792-.282.216-.588.324-.918.324zm1.775-.639c.024-.108.075-.189.153-.243.084-.054.162-.081.234-.081.096 0 .177.021.243.063.066.036.138.123.216.261l.099.18c.054-.042.111-.096.171-.162.216-.234.417-.474.603-.72s.372-.507.558-.783l-.378-1.287c-.054-.186-.105-.312-.153-.378-.042-.072-.111-.108-.207-.108-.06 0-.15.036-.27.108-.114.072-.249.24-.405.504l-.207-.153c.168-.372.351-.642.549-.81s.39-.252.576-.252c.174 0 .312.057.414.171.108.114.201.315.279.603l.279.999c.192-.306.372-.576.54-.81.174-.234.318-.42.432-.558.132-.156.252-.261.36-.315.108-.06.234-.09.378-.09.12 0 .24.039.36.117.126.078.207.198.243.36 0 .126-.036.231-.108.315-.072.078-.159.117-.261.117-.09 0-.174-.018-.252-.054-.078-.042-.159-.126-.243-.252l-.054-.072c-.024.018-.045.039-.063.063s-.039.048-.063.072c-.21.234-.411.474-.603.72s-.378.498-.558.756l.315 1.143c.066.246.135.408.207.486.078.072.18.108.306.108.12 0 .252-.057.396-.171.15-.114.306-.273.468-.477l.225.171c-.216.318-.45.582-.702.792-.252.204-.498.306-.738.306-.132 0-.249-.042-.351-.126-.102-.09-.192-.264-.27-.522l-.333-1.116c-.186.3-.363.573-.531.819-.168.24-.33.453-.486.639-.096.114-.195.192-.297.234-.102.048-.213.072-.333.072-.18 0-.345-.051-.495-.153-.144-.108-.225-.27-.243-.486zm4.19 2.691.063-.306.774-.126 1.134-5.346-.891-.054.036-.261 1.53-.459.117.09-.216 1.008c.282-.342.585-.609.909-.801.324-.198.615-.297.873-.297.222 0 .414.084.576.252.162.162.243.447.243.855 0 .306-.054.618-.162.936s-.255.624-.441.918c-.186.288-.399.549-.639.783s-.492.42-.756.558c-.264.132-.525.198-.783.198-.186 0-.357-.045-.513-.135-.078.384-.144.714-.198.99s-.099.528-.135.756l.828.135-.072.306zm3.906-5.949c-.186 0-.405.081-.657.243-.246.162-.51.393-.792.693l-.45 2.097c.12.09.237.156.351.198.12.036.231.054.333.054.228 0 .441-.063.639-.189.204-.126.384-.291.54-.495.18-.24.321-.51.423-.81.108-.306.162-.615.162-.927 0-.576-.183-.864-.549-.864zm2.391 3.897c-.138 0-.258-.042-.36-.126-.096-.09-.144-.222-.144-.396 0-.066.006-.144.018-.234.018-.09.039-.213.063-.369l.648-3.285c.054-.264.105-.528.153-.792.048-.27.093-.54.135-.81l-.846-.054.036-.261 1.548-.45.099.072-1.08 5.355c-.054.24-.081.414-.081.522 0 .066.021.117.063.153.048.036.102.054.162.054.096 0 .216-.057.36-.171.15-.114.315-.273.495-.477l.207.171c-.126.174-.264.348-.414.522-.144.168-.303.306-.477.414s-.369.162-.585.162zm2.451-1.431c0 .276.048.48.144.612.102.132.234.198.396.198.156 0 .336-.063.54-.189s.453-.351.747-.675l.486-2.25c-.084-.048-.174-.087-.27-.117-.09-.036-.183-.054-.279-.054-.144 0-.306.045-.486.135-.174.09-.342.219-.504.387-.216.222-.399.504-.549.846s-.225.711-.225 1.107zm2.16 1.431c-.12 0-.228-.042-.324-.126s-.144-.216-.144-.396c0-.174.012-.333.036-.477-.258.294-.525.534-.801.72-.27.186-.528.279-.774.279-.216 0-.414-.084-.594-.252-.174-.168-.261-.438-.261-.81 0-.312.057-.63.171-.954.12-.324.276-.633.468-.927.198-.3.417-.567.657-.801.246-.234.495-.417.747-.549.258-.138.504-.207.738-.207.102 0 .195.021.279.063s.162.102.234.18l.414-.333.162.081-.72 3.177c-.054.222-.081.393-.081.513 0 .06.021.108.063.144s.093.054.153.054c.114 0 .249-.06.405-.18.162-.12.321-.276.477-.468l.216.171c-.114.174-.252.345-.414.513s-.336.309-.522.423c-.186.108-.381.162-.585.162zm2.812-.117-.603.072-.09-.072.765-3.609-.891-.054.036-.261 1.53-.459.117.09-.189.927c.3-.282.618-.522.954-.72.342-.198.651-.297.927-.297.384 0 .576.207.576.621 0 .144-.015.291-.045.441-.03.144-.063.291-.099.441l-.405 1.665c-.03.126-.057.234-.081.324-.024.084-.036.15-.036.198 0 .126.057.189.171.189s.249-.057.405-.171c.162-.114.324-.273.486-.477l.216.171c-.114.174-.255.348-.423.522-.162.168-.339.306-.531.414s-.393.162-.603.162c-.138 0-.249-.036-.333-.108-.078-.072-.117-.165-.117-.279 0-.102.012-.201.036-.297.03-.102.066-.246.108-.432l.387-1.584c.036-.156.069-.303.099-.441s.045-.252.045-.342c0-.156-.027-.264-.081-.324s-.132-.09-.234-.09c-.162 0-.369.066-.621.198s-.543.333-.873.603l-.243 1.089c-.066.312-.129.627-.189.945-.054.312-.111.627-.171.945zm4.801-1.314c0 .276.048.48.144.612.102.132.234.198.396.198.156 0 .336-.063.54-.189s.453-.351.747-.675l.486-2.25c-.084-.048-.174-.087-.27-.117-.09-.036-.183-.054-.279-.054-.144 0-.306.045-.486.135-.174.09-.342.219-.504.387-.216.222-.399.504-.549.846s-.225.711-.225 1.107zm2.16 1.431c-.12 0-.228-.042-.324-.126s-.144-.216-.144-.396c0-.174.012-.333.036-.477-.258.294-.525.534-.801.72-.27.186-.528.279-.774.279-.216 0-.414-.084-.594-.252-.174-.168-.261-.438-.261-.81 0-.312.057-.63.171-.954.12-.324.276-.633.468-.927.198-.3.417-.567.657-.801.246-.234.495-.417.747-.549.258-.138.504-.207.738-.207.102 0 .195.021.279.063s.162.102.234.18l.414-.333.162.081-.72 3.177c-.054.222-.081.393-.081.513 0 .06.021.108.063.144s.093.054.153.054c.114 0 .249-.06.405-.18.162-.12.321-.276.477-.468l.216.171c-.114.174-.252.345-.414.513s-.336.309-.522.423c-.186.108-.381.162-.585.162zm2.291-1.116.603-2.826h-.918l.063-.36.972-.09.423-1.206h.459l-.261 1.215h1.143l-.072.486-1.161-.036-.549 2.583c-.054.24-.081.414-.081.522 0 .066.021.117.063.153.048.036.099.054.153.054.228 0 .522-.216.882-.648l.225.171c-.126.18-.27.354-.432.522s-.336.306-.522.414-.381.162-.585.162c-.132 0-.249-.039-.351-.117-.096-.078-.144-.192-.144-.342 0-.066.006-.144.018-.234.012-.096.036-.237.072-.423zm2.872.657c0-.066.006-.144.018-.234.012-.096.039-.237.081-.423l.54-2.61-.891-.054.036-.261 1.53-.459.117.09-.639 3.078c-.024.114-.045.216-.063.306-.012.09-.018.159-.018.207 0 .06.021.108.063.144s.087.054.135.054c.216 0 .504-.216.864-.648l.225.171c-.132.18-.276.354-.432.522-.15.168-.315.306-.495.414-.174.108-.369.162-.585.162-.12 0-.231-.039-.333-.117s-.153-.192-.153-.342zm1.323-5.265c-.144 0-.261-.045-.351-.135-.09-.096-.135-.228-.135-.396 0-.15.054-.279.162-.387.108-.114.231-.171.369-.171.144 0 .261.048.351.144.09.09.135.216.135.378 0 .144-.054.276-.162.396-.108.114-.231.171-.369.171zm2.599 5.724c-.276 0-.528-.06-.756-.18s-.411-.297-.549-.531c-.132-.24-.198-.531-.198-.873 0-.408.06-.786.18-1.134.126-.354.297-.663.513-.927.216-.27.465-.48.747-.63.288-.15.591-.225.909-.225.426 0 .774.135 1.044.405.276.27.414.66.414 1.17 0 .39-.06.762-.18 1.116-.12.348-.288.66-.504.936-.21.27-.453.483-.729.639s-.573.234-.891.234zm.099-.36c.222 0 .423-.069.603-.207s.333-.324.459-.558c.132-.234.234-.495.306-.783s.108-.582.108-.882c0-.486-.078-.831-.234-1.035-.15-.21-.348-.315-.594-.315-.282 0-.54.111-.774.333-.228.222-.408.519-.54.891-.132.366-.198.774-.198 1.224 0 .474.081.816.243 1.026.162.204.369.306.621.306zm3.683.243-.603.072-.09-.072.765-3.609-.891-.054.036-.261 1.53-.459.117.09-.189.927c.3-.282.618-.522.954-.72.342-.198.651-.297.927-.297.384 0 .576.207.576.621 0 .144-.015.291-.045.441-.03.144-.063.291-.099.441l-.405 1.665c-.03.126-.057.234-.081.324-.024.084-.036.15-.036.198 0 .126.057.189.171.189s.249-.057.405-.171c.162-.114.324-.273.486-.477l.216.171c-.114.174-.255.348-.423.522-.162.168-.339.306-.531.414s-.393.162-.603.162c-.138 0-.249-.036-.333-.108-.078-.072-.117-.165-.117-.279 0-.102.012-.201.036-.297.03-.102.066-.246.108-.432l.387-1.584c.036-.156.069-.303.099-.441s.045-.252.045-.342c0-.156-.027-.264-.081-.324s-.132-.09-.234-.09c-.162 0-.369.066-.621.198s-.543.333-.873.603l-.243 1.089c-.066.312-.129.627-.189.945-.054.312-.111.627-.171.945z" fill="#bd0611"/><path d="m103.327 30.933c0 .324.15.486.45.486.366 0 .72-.162 1.062-.486.246-.234.441-.531.585-.891.15-.36.225-.723.225-1.089 0-.288-.051-.504-.153-.648-.096-.144-.228-.216-.396-.216-.192 0-.411.084-.657.252s-.513.408-.801.72l-.135.621c-.048.228-.087.414-.117.558-.024.138-.042.261-.054.369-.006.102-.009.21-.009.324zm.054 1.053c-.204 0-.381-.066-.531-.198-.144-.132-.216-.315-.216-.549 0-.192.018-.399.054-.621.042-.228.093-.492.153-.792l.765-3.843-.891-.063.045-.261 1.557-.45.099.072-.693 3.357c.276-.36.576-.642.9-.846s.618-.306.882-.306c.222 0 .414.084.576.252.162.162.243.447.243.855 0 .306-.054.618-.162.936s-.258.624-.45.918c-.192.288-.414.549-.666.783s-.519.42-.801.558c-.282.132-.57.198-.864.198zm5.651-4.113c-.138 0-.291.054-.459.162-.162.108-.321.258-.477.45s-.288.414-.396.666c-.102.246-.165.51-.189.792.498-.144.894-.303 1.188-.477.3-.18.513-.36.639-.54.132-.186.198-.36.198-.522 0-.168-.048-.297-.144-.387-.09-.096-.21-.144-.36-.144zm-.792 4.113c-.396 0-.723-.135-.981-.405-.252-.27-.378-.693-.378-1.269 0-.36.063-.708.189-1.044.126-.342.297-.645.513-.909.216-.27.465-.483.747-.639.288-.156.588-.234.9-.234.294 0 .516.072.666.216.156.144.234.348.234.612 0 .192-.075.405-.225.639-.15.228-.417.459-.801.693-.378.234-.909.45-1.593.648.018.384.108.66.27.828.162.162.381.243.657.243.282 0 .525-.072.729-.216s.366-.291.486-.441l.207.162c-.186.306-.42.57-.702.792-.282.216-.588.324-.918.324zm5.15-6.867c.264 0 .489.069.675.207.192.132.306.282.342.45-.06.204-.177.306-.351.306-.132 0-.249-.039-.351-.117-.096-.078-.216-.204-.36-.378l-.144-.171c-.15.066-.294.177-.432.333-.138.15-.264.366-.378.648-.108.276-.201.645-.279 1.107-.006.018-.009.036-.009.054 0 .012-.003.027-.009.045h1.161l-.072.477-1.161-.036c-.096.57-.192 1.155-.288 1.755s-.201 1.185-.315 1.755c-.096.48-.213.897-.351 1.251-.132.354-.324.645-.576.873-.186.168-.354.282-.504.342-.156.066-.306.099-.45.099-.204 0-.384-.051-.54-.153s-.255-.237-.297-.405c.018-.096.069-.174.153-.234.078-.06.165-.09.261-.09.132 0 .252.036.36.108.102.072.201.159.297.261l.108.108c.06-.048.12-.105.18-.171.066-.06.129-.132.189-.216.114-.168.213-.39.297-.666.084-.27.168-.639.252-1.107.108-.606.207-1.194.297-1.764.096-.57.192-1.158.288-1.764h-.936l.072-.342.936-.081.009-.081c.078-.498.192-.903.342-1.215.156-.318.327-.561.513-.729.192-.174.381-.294.567-.36.192-.066.36-.099.504-.099zm1.305 6.867c-.276 0-.528-.06-.756-.18s-.411-.297-.549-.531c-.132-.24-.198-.531-.198-.873 0-.408.06-.786.18-1.134.126-.354.297-.663.513-.927.216-.27.465-.48.747-.63.288-.15.591-.225.909-.225.426 0 .774.135 1.044.405.276.27.414.66.414 1.17 0 .39-.06.762-.18 1.116-.12.348-.288.66-.504.936-.21.27-.453.483-.729.639s-.573.234-.891.234zm.099-.36c.222 0 .423-.069.603-.207s.333-.324.459-.558c.132-.234.234-.495.306-.783s.108-.582.108-.882c0-.486-.078-.831-.234-1.035-.15-.21-.348-.315-.594-.315-.282 0-.54.111-.774.333-.228.222-.408.519-.54.891-.132.366-.198.774-.198 1.224 0 .474.081.816.243 1.026.162.204.369.306.621.306zm2.99.243.765-3.609-.891-.054.036-.261 1.485-.459.117.09-.198 1.206c.132-.228.27-.438.414-.63.15-.198.306-.357.468-.477.162-.126.321-.189.477-.189.126 0 .243.021.351.063.108.036.192.105.252.207-.006.15-.051.273-.135.369-.078.09-.192.135-.342.135-.078 0-.165-.021-.261-.063-.09-.048-.18-.105-.27-.171-.216.18-.414.393-.594.639s-.351.528-.513.846l-.108.468c-.066.312-.129.627-.189.945-.054.312-.111.627-.171.945l-.603.072zm5.328-3.996c-.138 0-.291.054-.459.162-.162.108-.321.258-.477.45s-.288.414-.396.666c-.102.246-.165.51-.189.792.498-.144.894-.303 1.188-.477.3-.18.513-.36.639-.54.132-.186.198-.36.198-.522 0-.168-.048-.297-.144-.387-.09-.096-.21-.144-.36-.144zm-.792 4.113c-.396 0-.723-.135-.981-.405-.252-.27-.378-.693-.378-1.269 0-.36.063-.708.189-1.044.126-.342.297-.645.513-.909.216-.27.465-.483.747-.639.288-.156.588-.234.9-.234.294 0 .516.072.666.216.156.144.234.348.234.612 0 .192-.075.405-.225.639-.15.228-.417.459-.801.693-.378.234-.909.45-1.593.648.018.384.108.66.27.828.162.162.381.243.657.243.282 0 .525-.072.729-.216s.366-.291.486-.441l.207.162c-.186.306-.42.57-.702.792-.282.216-.588.324-.918.324z" fill="#000"/><path d="m209.998 30.555c0 .276.048.48.144.612.102.132.234.198.396.198.156 0 .336-.063.54-.189s.453-.351.747-.675l.486-2.25c-.084-.048-.174-.087-.27-.117-.09-.036-.183-.054-.279-.054-.144 0-.306.045-.486.135-.174.09-.342.219-.504.387-.216.222-.399.504-.549.846s-.225.711-.225 1.107zm2.16 1.431c-.12 0-.228-.042-.324-.126s-.144-.216-.144-.396c0-.174.012-.333.036-.477-.258.294-.525.534-.801.72-.27.186-.528.279-.774.279-.216 0-.414-.084-.594-.252-.174-.168-.261-.438-.261-.81 0-.312.057-.63.171-.954.12-.324.276-.633.468-.927.198-.3.417-.567.657-.801.246-.234.495-.417.747-.549.258-.138.504-.207.738-.207.102 0 .195.021.279.063s.162.102.234.18l.414-.333.162.081-.72 3.177c-.054.222-.081.393-.081.513 0 .06.021.108.063.144s.093.054.153.054c.114 0 .249-.06.405-.18.162-.12.321-.276.477-.468l.216.171c-.114.174-.252.345-.414.513s-.336.309-.522.423c-.186.108-.381.162-.585.162zm4.909-6.867c.252 0 .468.066.648.198.186.132.297.279.333.441-.03.102-.075.177-.135.225-.06.042-.126.063-.198.063-.132 0-.246-.036-.342-.108-.096-.078-.213-.201-.351-.369l-.126-.162c-.162.072-.324.186-.486.342s-.309.375-.441.657c-.132.276-.24.642-.324 1.098-.006.018-.009.036-.009.054 0 .012-.003.027-.009.045h1.818l.054-.009.423-1.206h.459l-.261 1.215h1.143l-.072.486-1.161-.036-.549 2.583c-.054.24-.081.414-.081.522 0 .066.021.117.063.153.048.036.099.054.153.054.228 0 .522-.216.882-.648l.225.171c-.126.18-.27.354-.432.522s-.336.306-.522.414-.381.162-.585.162c-.132 0-.249-.039-.351-.117-.096-.078-.144-.192-.144-.342 0-.066.006-.144.018-.234.012-.096.036-.237.072-.423l.603-2.826h-.918v-.018h-.909c-.096.576-.192 1.167-.288 1.773-.096.6-.201 1.185-.315 1.755-.096.48-.213.897-.351 1.251-.132.354-.324.645-.576.873-.186.168-.354.282-.504.342-.156.066-.306.099-.45.099-.204 0-.384-.051-.54-.153s-.255-.237-.297-.405c.018-.096.069-.174.153-.234.078-.06.165-.09.261-.09.132 0 .252.036.36.108.102.072.201.159.297.261l.108.108c.06-.048.12-.105.18-.171.066-.06.129-.132.189-.216.114-.168.213-.39.297-.666.084-.27.168-.639.252-1.107.108-.606.204-1.194.288-1.764.09-.57.186-1.158.288-1.764h-.927l.072-.342.927-.081c.006-.012.009-.024.009-.036 0-.018.003-.033.009-.045.138-.78.396-1.374.774-1.782.378-.414.81-.621 1.296-.621zm4.41 2.754c-.138 0-.291.054-.459.162-.162.108-.321.258-.477.45s-.288.414-.396.666c-.102.246-.165.51-.189.792.498-.144.894-.303 1.188-.477.3-.18.513-.36.639-.54.132-.186.198-.36.198-.522 0-.168-.048-.297-.144-.387-.09-.096-.21-.144-.36-.144zm-.792 4.113c-.396 0-.723-.135-.981-.405-.252-.27-.378-.693-.378-1.269 0-.36.063-.708.189-1.044.126-.342.297-.645.513-.909.216-.27.465-.483.747-.639.288-.156.588-.234.9-.234.294 0 .516.072.666.216.156.144.234.348.234.612 0 .192-.075.405-.225.639-.15.228-.417.459-.801.693-.378.234-.909.45-1.593.648.018.384.108.66.27.828.162.162.381.243.657.243.282 0 .525-.072.729-.216s.366-.291.486-.441l.207.162c-.186.306-.42.57-.702.792-.282.216-.588.324-.918.324zm2.504-.117.765-3.609-.891-.054.036-.261 1.485-.459.117.09-.198 1.206c.132-.228.27-.438.414-.63.15-.198.306-.357.468-.477.162-.126.321-.189.477-.189.126 0 .243.021.351.063.108.036.192.105.252.207-.006.15-.051.273-.135.369-.078.09-.192.135-.342.135-.078 0-.165-.021-.261-.063-.09-.048-.18-.105-.27-.171-.216.18-.414.393-.594.639s-.351.528-.513.846l-.108.468c-.066.312-.129.627-.189.945-.054.312-.111.627-.171.945l-.603.072z" fill="#000"/><path d="m32.9349 69.686c0 .276.048.48.144.612.102.132.234.198.396.198.156 0 .336-.063.54-.189s.453-.351.747-.675l.486-2.25c-.084-.048-.174-.087-.27-.117-.09-.036-.183-.054-.279-.054-.144 0-.306.045-.486.135-.174.09-.342.219-.504.387-.216.222-.399.504-.549.846s-.225.711-.225 1.107zm2.16 1.431c-.12 0-.228-.042-.324-.126s-.144-.216-.144-.396c0-.174.012-.333.036-.477-.258.294-.525.534-.801.72-.27.186-.528.279-.774.279-.216 0-.414-.084-.594-.252-.174-.168-.261-.438-.261-.81 0-.312.057-.63.171-.954.12-.324.276-.633.468-.927.198-.3.417-.567.657-.801.246-.234.495-.417.747-.549.258-.138.504-.207.738-.207.102 0 .195.021.279.063s.162.102.234.18l.414-.333.162.081-.72 3.177c-.054.222-.081.393-.081.513 0 .06.021.108.063.144s.093.054.153.054c.114 0 .249-.06.405-.18.162-.12.321-.276.477-.468l.216.171c-.114.174-.252.345-.414.513s-.336.309-.522.423c-.186.108-.381.162-.585.162zm4.3522-1.278c0 .372-.141.678-.423.918-.276.24-.642.36-1.098.36-.348 0-.615-.081-.801-.243-.18-.162-.285-.378-.315-.648.024-.078.066-.138.126-.18.066-.048.135-.072.207-.072.132 0 .228.036.288.108.066.066.114.162.144.288l.099.387c.018.006.036.009.054.009h.072c.312 0 .555-.069.729-.207s.261-.324.261-.558c0-.144-.033-.282-.099-.414s-.228-.291-.486-.477c-.222-.174-.411-.351-.567-.531-.15-.186-.225-.42-.225-.702 0-.234.06-.447.18-.639s.285-.342.495-.45c.216-.114.468-.171.756-.171.264 0 .492.06.684.18.192.114.321.318.387.612-.054.168-.168.252-.342.252-.21 0-.363-.141-.459-.423l-.081-.261c-.018-.006-.039-.009-.063-.009-.018 0-.039 0-.063 0-.312 0-.534.072-.666.216-.126.144-.189.318-.189.522 0 .186.045.342.135.468.096.12.273.276.531.468.27.204.459.39.567.558.108.162.162.375.162.639zm.7523 1.161.864-4.293c.054-.264.105-.528.153-.792.054-.27.102-.54.144-.81l-.855-.054.036-.261 1.557-.45.054.072-.81 4.113 2.394-1.863c.096.006.174.045.234.117.066.072.099.156.099.252 0 .078-.036.153-.108.225s-.192.153-.36.243l-2.187 1.206.207.045c.264.048.471.147.621.297.156.144.285.33.387.558l.261.567c.102.216.195.354.279.414s.195.096.333.108l.459.036-.045.27c-.132.042-.246.072-.342.09s-.195.027-.297.027c-.21 0-.393-.042-.549-.126s-.3-.282-.432-.594l-.288-.702c-.108-.252-.207-.429-.297-.531-.09-.108-.213-.183-.369-.225l-.081-.027-.036.198c-.06.312-.12.627-.18.945-.054.312-.108.627-.162.945l-.603.072z" fill="#000"/><path d="m32.474 120.001.603-2.826h-.918l.063-.36.972-.09.423-1.206h.459l-.261 1.215h1.143l-.072.486-1.161-.036-.549 2.583c-.054.24-.081.414-.081.522 0 .066.021.117.063.153.048.036.099.054.153.054.228 0 .522-.216.882-.648l.225.171c-.126.18-.27.354-.432.522s-.336.306-.522.414-.381.162-.585.162c-.132 0-.249-.039-.351-.117-.096-.078-.144-.192-.144-.342 0-.066.006-.144.018-.234.012-.096.036-.237.072-.423zm4.6989-2.997c-.138 0-.291.054-.459.162-.162.108-.321.258-.477.45s-.288.414-.396.666c-.102.246-.165.51-.189.792.498-.144.894-.303 1.188-.477.3-.18.513-.36.639-.54.132-.186.198-.36.198-.522 0-.168-.048-.297-.144-.387-.09-.096-.21-.144-.36-.144zm-.792 4.113c-.396 0-.723-.135-.981-.405-.252-.27-.378-.693-.378-1.269 0-.36.063-.708.189-1.044.126-.342.297-.645.513-.909.216-.27.465-.483.747-.639.288-.156.588-.234.9-.234.294 0 .516.072.666.216.156.144.234.348.234.612 0 .192-.075.405-.225.639-.15.228-.417.459-.801.693-.378.234-.909.45-1.593.648.018.384.108.66.27.828.162.162.381.243.657.243.282 0 .525-.072.729-.216s.366-.291.486-.441l.207.162c-.186.306-.42.57-.702.792-.282.216-.588.324-.918.324zm2.9022 0c-.138 0-.258-.042-.36-.126-.096-.09-.144-.222-.144-.396 0-.066.006-.144.018-.234.018-.09.039-.213.063-.369l.648-3.285c.054-.264.105-.528.153-.792.048-.27.093-.54.135-.81l-.846-.054.036-.261 1.548-.45.099.072-1.08 5.355c-.054.24-.081.414-.081.522 0 .066.021.117.063.153.048.036.102.054.162.054.096 0 .216-.057.36-.171.15-.114.315-.273.495-.477l.207.171c-.126.174-.264.348-.414.522-.144.168-.303.306-.477.414s-.369.162-.585.162zm2.5136 0c-.138 0-.258-.042-.36-.126-.096-.09-.144-.222-.144-.396 0-.066.006-.144.018-.234.018-.09.039-.213.063-.369l.648-3.285c.054-.264.105-.528.153-.792.048-.27.093-.54.135-.81l-.846-.054.036-.261 1.548-.45.099.072-1.08 5.355c-.054.24-.081.414-.081.522 0 .066.021.117.063.153.048.036.102.054.162.054.096 0 .216-.057.36-.171.15-.114.315-.273.495-.477l.207.171c-.126.174-.264.348-.414.522-.144.168-.303.306-.477.414s-.369.162-.585.162z" fill="#000"/><rect height="34.2" rx="1.1" stroke="#bd0611" stroke-width=".8" width="88.2" x="68.4" y="101.4"/></svg>