<svg viewBox="0 0 1124 142" xmlns="http://www.w3.org/2000/svg"><g transform="translate(562 71)"><g fill="#ff744c"><path d="m-562 37h94v32h-94z" opacity=".7"/><path d="m-221-69h-90.4l.2.6h-.8v137.4h34v-106h57z" opacity=".7"/><path d="m-74.6-14h-28.7v-55h-31.7v138h60.4c22.8 0 41.3-18.8 41.3-41.7 0-22.8-18.5-41.3-41.3-41.3z" opacity=".7"/><path d="m202.1 12c22.2 0 40.3-18.3 40.3-40.5s-18-40.5-40.3-40.5h-65.1v81z" opacity=".7"/><circle cx="339.7" opacity=".7" r="71"/></g><g fill="#6da9b6"><path d="m-412 37v-106h-34v138h94v-32z" opacity=".7"/><path d="m71-69-43 80v58h36v-58l43-80z" opacity=".7"/><path d="m241.6 69h-38.3l-30.6-50.6h38.3z" opacity=".7"/><path d="m561.6 69h-39.3l-85.6-138h39.2z" opacity=".7"/></g><g fill="#262628" opacity=".55"><path d="m-562-69h2.5v138h-2.5z"/><path d="m-554.6-69h2.5v138h-2.5z"/><path d="m-547.1-69h2.5v138h-2.5z"/><path d="m-539.7-69h2.5v138h-2.5z"/><path d="m-532.2-69h2.5v138h-2.5z"/><path d="m-446-69h91v2.5h-91z"/><path d="m-446-61.6h91v2.5h-91z"/><path d="m-446-54.1h91v2.5h-91z"/><path d="m-446-46.7h91v2.5h-91z"/><path d="m-446-39.5h91v2.5h-91z"/><path d="m-446-16.5h85v2.5h-85z"/><path d="m-446-9.1h85v2.5h-85z"/><path d="m-446-1.6h85v2.5h-85z"/><path d="m-446 5.8h85v2.5h-85z"/><path d="m-446 13.3h85v2.5h-85z"/><path d="m-446 37h94v2.5h-94z"/><path d="m-446 44.4h94v2.5h-94z"/><path d="m-446 51.9h94v2.5h-94z"/><path d="m-446 59.3h94v2.5h-94z"/><path d="m-446 66.5h94v2.5h-94z"/><path d="m-312-69h91v2.5h-91z"/><path d="m-312-61.6h91v2.5h-91z"/><path d="m-312-54.1h91v2.5h-91z"/><path d="m-312-46.7h91v2.5h-91z"/><path d="m-312-39.5h91v2.5h-91z"/><path d="m-312-16.5h85v2.5h-85z"/><path d="m-312-9.1h85v2.5h-85z"/><path d="m-312-1.6h85v2.5h-85z"/><path d="m-312 5.8h85v2.5h-85z"/><path d="m-312 13.3h85v2.5h-85z"/><path d="m-312 37h94v2.5h-94z"/><path d="m-312 44.4h94v2.5h-94z"/><path d="m-312 51.9h94v2.5h-94z"/><path d="m-312 59.3h94v2.5h-94z"/><path d="m-312 66.5h94v2.5h-94z"/><path d="m-113.1-69h2.5v138h-2.5z"/><path d="m-120.6-69h2.5v138h-2.5z"/><path d="m-128-69h2.5v138h-2.5z"/><path d="m-135-69h2.5v138h-2.5z"/><path d="m-105.9-69h2.7v79.5h-2.7z"/><path d="m-98.1-69h2.7v79.5h-2.7z"/><path d="m-90.3-69h2.7v79.5h-2.7z"/><path d="m-80.9-69h-1.6v79.5h1.6 1.1v-79.4c-.3-.1-.6-.1-1.1-.1z"/><path d="m-74.7-68.4v78.4c.9-.1 1.8-.3 2.7-.5v-77.4c-1-.2-1.8-.4-2.7-.5z"/><path d="m-67-66.4v74.4c.9-.3 1.8-.7 2.7-1.1v-72.1c-.9-.4-1.8-.8-2.7-1.2z"/><path d="m-59.2-62.4v66.4c.9-.6 1.8-1.2 2.7-1.9v-62.6c-.9-.7-1.8-1.3-2.7-1.9z"/><path d="m-51.4-55.7v53.1c.9-1 1.8-2.1 2.7-3.3v-46.5c-.9-1.2-1.8-2.3-2.7-3.3z"/><path d="m-43.6-42.8c1.6 4.3 2.4 8.8 2.4 13.6s-.8 9.4-2.4 13.6"/><path d="m31 11-47.9-80h-3l47.9 80z"/><path d="m39.2 11-47.9-80h-3l47.9 80z"/><path d="m47.5 11-47.9-80h-3l47.9 80z"/><path d="m55.8 11-47.9-80h-3l47.9 80z"/><path d="m64 11-47.9-80h-3l47.9 80z"/><path d="m137-69h2.5v138h-2.5z"/><path d="m144.4-69h2.5v138h-2.5z"/><path d="m151.9-69h2.5v138h-2.5z"/><path d="m159.3-69h2.5v138h-2.5z"/><path d="m166.8-69h2.5v138h-2.5z"/><path d="m273.6-26v52c.8 1.9 1.6 3.8 2.5 5.6v-63.2c-.9 1.8-1.7 3.7-2.5 5.6z"/><path d="m281-39.9v79.9c.8 1.2 1.6 2.3 2.5 3.4v-86.8c-.9 1.2-1.7 2.3-2.5 3.5z"/><path d="m288.4-49v98c.8.9 1.6 1.7 2.5 2.5v-103c-.9.8-1.7 1.6-2.5 2.5z"/><path d="m295.7-55.7v111.5c.8.6 1.7 1.3 2.5 1.9v-115.3c-.8.6-1.6 1.2-2.5 1.9z"/><path d="m303.1-60.9v121.7c.8.5 1.7 1 2.5 1.4v-124.5c-.8.5-1.7 1-2.5 1.4z"/><path d="m311.3-65.1v130.1c.8.4 1.7.7 2.5 1v-132.1c-.9.3-1.7.7-2.5 1z"/><path d="m318.2-67.7v135.4c.8.3 1.7.5 2.5.7v-136.8c-.8.2-1.7.5-2.5.7z"/><path d="m325.6-69.6v139.2c.8.2 1.7.3 2.5.4v-140c-.9.1-1.7.2-2.5.4z"/><path d="m332.9-70.7v141.3c.8.1 1.7.1 2.5.2v-141.7c-.8.1-1.6.1-2.5.2z"/><path d="m340.3-71v142c.8 0 1.7 0 2.5-.1v-141.8c-.8-.1-1.6-.1-2.5-.1z"/><path d="m347.7-70.5v141.1c.8-.1 1.7-.2 2.5-.3v-140.5c-.8-.1-1.7-.2-2.5-.3z"/><path d="m436.7-69h2.5v138h-2.5z"/><path d="m443.7-69h2.5v138h-2.5z"/><path d="m451.1-69h2.5v138h-2.5z"/><path d="m458.5-69h2.5v138h-2.5z"/><path d="m466-69h2.5v138h-2.5z"/><path d="m473.4-69h2.5v138h-2.5z"/><path d="m522.3-69h2.5v138h-2.5z"/><path d="m529.3-69h2.5v138h-2.5z"/><path d="m536.8-69h2.5v138h-2.5z"/><path d="m544.2-69h2.5v138h-2.5z"/><path d="m551.7-69h2.5v138h-2.5z"/><path d="m559.1-69h2.5v138h-2.5z"/></g></g></svg>